G04 MADE WITH FRITZING*
G04 WWW.FRITZING.ORG*
G04 DOUBLE SIDED*
G04 HOLES PLATED*
G04 CONTOUR ON CENTER OF CONTOUR VECTOR*
%ASAXBY*%
%FSLAX23Y23*%
%MOIN*%
%OFA0B0*%
%SFA1.0B1.0*%
%ADD10C,0.075000*%
%ADD11C,0.078000*%
%ADD12C,0.074000*%
%ADD13C,0.063000*%
%ADD14C,0.024000*%
%ADD15R,0.001000X0.001000*%
%LNCOPPER1*%
G90*
G70*
G54D10*
X867Y1426D03*
X186Y1376D03*
X275Y875D03*
X668Y340D03*
G54D11*
X72Y1473D03*
X72Y1373D03*
X72Y1273D03*
X72Y1173D03*
X72Y1073D03*
X72Y973D03*
X72Y873D03*
X72Y773D03*
X72Y673D03*
X72Y573D03*
X72Y473D03*
X72Y373D03*
X972Y373D03*
X972Y473D03*
X972Y573D03*
X972Y673D03*
X972Y773D03*
X972Y873D03*
X972Y973D03*
X972Y1073D03*
X972Y1173D03*
X972Y1273D03*
X972Y1373D03*
X972Y1473D03*
G54D12*
X862Y73D03*
X972Y73D03*
X862Y73D03*
X972Y73D03*
X772Y1263D03*
X772Y1373D03*
X772Y1263D03*
X772Y1373D03*
X772Y963D03*
X772Y1073D03*
X772Y963D03*
X772Y1073D03*
X562Y73D03*
X572Y173D03*
X562Y273D03*
X572Y373D03*
X562Y73D03*
X572Y173D03*
X562Y273D03*
X572Y373D03*
X772Y273D03*
X762Y173D03*
X772Y73D03*
X772Y273D03*
X762Y173D03*
X772Y73D03*
X272Y73D03*
X282Y173D03*
X272Y273D03*
X272Y73D03*
X282Y173D03*
X272Y273D03*
G54D13*
X572Y1273D03*
X572Y1173D03*
X572Y1073D03*
X272Y1073D03*
X272Y1173D03*
X272Y1273D03*
X572Y1273D03*
X572Y1173D03*
X572Y1073D03*
X272Y1073D03*
X272Y1173D03*
X272Y1273D03*
X572Y1273D03*
X572Y1173D03*
X572Y1073D03*
X272Y1073D03*
X272Y1173D03*
X272Y1273D03*
X572Y773D03*
X572Y673D03*
X572Y573D03*
X272Y573D03*
X272Y673D03*
X272Y773D03*
X572Y773D03*
X572Y673D03*
X572Y573D03*
X272Y573D03*
X272Y673D03*
X272Y773D03*
X572Y773D03*
X572Y673D03*
X572Y573D03*
X272Y573D03*
X272Y673D03*
X272Y773D03*
G54D14*
X872Y1172D02*
X873Y573D01*
D02*
X771Y373D02*
X673Y473D01*
D02*
X971Y173D02*
X782Y173D01*
D02*
X971Y74D02*
X971Y173D01*
D02*
X960Y88D02*
X971Y74D01*
D02*
X842Y73D02*
X792Y73D01*
D02*
X673Y473D02*
X373Y473D01*
D02*
X571Y973D02*
X373Y972D01*
D02*
X754Y1064D02*
X571Y973D01*
D02*
X171Y1271D02*
X256Y1272D01*
D02*
X171Y772D02*
X171Y1271D01*
D02*
X171Y371D02*
X91Y372D01*
D02*
X171Y772D02*
X171Y371D01*
D02*
X256Y772D02*
X171Y772D01*
D02*
X373Y473D02*
X284Y561D01*
D02*
X772Y293D02*
X771Y373D01*
D02*
X873Y573D02*
X953Y573D01*
D02*
X771Y672D02*
X873Y573D01*
D02*
X771Y672D02*
X771Y672D01*
D02*
X588Y673D02*
X771Y672D01*
D02*
X872Y1172D02*
X588Y1173D01*
D02*
X872Y1272D02*
X872Y1172D01*
D02*
X959Y1359D02*
X872Y1272D01*
D02*
X672Y1473D02*
X758Y1387D01*
D02*
X91Y1473D02*
X672Y1473D01*
D02*
X373Y972D02*
X283Y1061D01*
D02*
X771Y672D02*
X772Y943D01*
G36*
X702Y1499D02*
X702Y1479D01*
X704Y1479D01*
X704Y1477D01*
X706Y1477D01*
X706Y1475D01*
X708Y1475D01*
X708Y1473D01*
X710Y1473D01*
X710Y1471D01*
X712Y1471D01*
X712Y1469D01*
X714Y1469D01*
X714Y1467D01*
X716Y1467D01*
X716Y1465D01*
X718Y1465D01*
X718Y1463D01*
X720Y1463D01*
X720Y1461D01*
X722Y1461D01*
X722Y1459D01*
X724Y1459D01*
X724Y1457D01*
X726Y1457D01*
X726Y1455D01*
X728Y1455D01*
X728Y1453D01*
X730Y1453D01*
X730Y1451D01*
X732Y1451D01*
X732Y1449D01*
X734Y1449D01*
X734Y1447D01*
X736Y1447D01*
X736Y1445D01*
X738Y1445D01*
X738Y1443D01*
X740Y1443D01*
X740Y1441D01*
X742Y1441D01*
X742Y1439D01*
X744Y1439D01*
X744Y1437D01*
X746Y1437D01*
X746Y1435D01*
X748Y1435D01*
X748Y1433D01*
X750Y1433D01*
X750Y1431D01*
X752Y1431D01*
X752Y1429D01*
X754Y1429D01*
X754Y1427D01*
X756Y1427D01*
X756Y1425D01*
X778Y1425D01*
X778Y1423D01*
X788Y1423D01*
X788Y1421D01*
X794Y1421D01*
X794Y1419D01*
X796Y1419D01*
X796Y1417D01*
X800Y1417D01*
X800Y1415D01*
X804Y1415D01*
X804Y1413D01*
X806Y1413D01*
X806Y1411D01*
X808Y1411D01*
X808Y1409D01*
X810Y1409D01*
X810Y1407D01*
X812Y1407D01*
X812Y1405D01*
X814Y1405D01*
X814Y1401D01*
X816Y1401D01*
X816Y1399D01*
X818Y1399D01*
X818Y1395D01*
X820Y1395D01*
X820Y1391D01*
X822Y1391D01*
X822Y1383D01*
X824Y1383D01*
X824Y1363D01*
X822Y1363D01*
X822Y1355D01*
X820Y1355D01*
X820Y1351D01*
X818Y1351D01*
X818Y1347D01*
X816Y1347D01*
X816Y1343D01*
X814Y1343D01*
X814Y1341D01*
X812Y1341D01*
X812Y1339D01*
X810Y1339D01*
X810Y1335D01*
X806Y1335D01*
X806Y1315D01*
X824Y1315D01*
X824Y1199D01*
X846Y1199D01*
X846Y1281D01*
X848Y1281D01*
X848Y1285D01*
X850Y1285D01*
X850Y1289D01*
X852Y1289D01*
X852Y1291D01*
X854Y1291D01*
X854Y1293D01*
X856Y1293D01*
X856Y1295D01*
X858Y1295D01*
X858Y1297D01*
X860Y1297D01*
X860Y1299D01*
X862Y1299D01*
X862Y1301D01*
X864Y1301D01*
X864Y1303D01*
X866Y1303D01*
X866Y1305D01*
X868Y1305D01*
X868Y1307D01*
X870Y1307D01*
X870Y1309D01*
X872Y1309D01*
X872Y1311D01*
X874Y1311D01*
X874Y1313D01*
X876Y1313D01*
X876Y1315D01*
X878Y1315D01*
X878Y1317D01*
X880Y1317D01*
X880Y1319D01*
X882Y1319D01*
X882Y1321D01*
X884Y1321D01*
X884Y1323D01*
X886Y1323D01*
X886Y1325D01*
X888Y1325D01*
X888Y1327D01*
X890Y1327D01*
X890Y1329D01*
X892Y1329D01*
X892Y1331D01*
X894Y1331D01*
X894Y1333D01*
X896Y1333D01*
X896Y1335D01*
X898Y1335D01*
X898Y1337D01*
X900Y1337D01*
X900Y1339D01*
X902Y1339D01*
X902Y1341D01*
X904Y1341D01*
X904Y1343D01*
X906Y1343D01*
X906Y1345D01*
X908Y1345D01*
X908Y1347D01*
X910Y1347D01*
X910Y1349D01*
X912Y1349D01*
X912Y1351D01*
X914Y1351D01*
X914Y1353D01*
X916Y1353D01*
X916Y1355D01*
X918Y1355D01*
X918Y1381D01*
X920Y1381D01*
X920Y1389D01*
X922Y1389D01*
X922Y1395D01*
X924Y1395D01*
X924Y1399D01*
X926Y1399D01*
X926Y1401D01*
X928Y1401D01*
X928Y1405D01*
X930Y1405D01*
X930Y1407D01*
X932Y1407D01*
X932Y1409D01*
X934Y1409D01*
X934Y1411D01*
X936Y1411D01*
X936Y1433D01*
X934Y1433D01*
X934Y1435D01*
X932Y1435D01*
X932Y1437D01*
X930Y1437D01*
X930Y1441D01*
X928Y1441D01*
X928Y1443D01*
X926Y1443D01*
X926Y1447D01*
X924Y1447D01*
X924Y1451D01*
X922Y1451D01*
X922Y1455D01*
X920Y1455D01*
X920Y1463D01*
X918Y1463D01*
X918Y1499D01*
X702Y1499D01*
G37*
D02*
G36*
X118Y1445D02*
X118Y1443D01*
X116Y1443D01*
X116Y1441D01*
X114Y1441D01*
X114Y1437D01*
X112Y1437D01*
X112Y1435D01*
X110Y1435D01*
X110Y1433D01*
X108Y1433D01*
X108Y1411D01*
X110Y1411D01*
X110Y1409D01*
X112Y1409D01*
X112Y1407D01*
X114Y1407D01*
X114Y1405D01*
X116Y1405D01*
X116Y1403D01*
X118Y1403D01*
X118Y1399D01*
X120Y1399D01*
X120Y1395D01*
X122Y1395D01*
X122Y1391D01*
X124Y1391D01*
X124Y1383D01*
X126Y1383D01*
X126Y1361D01*
X124Y1361D01*
X124Y1355D01*
X122Y1355D01*
X122Y1349D01*
X120Y1349D01*
X120Y1347D01*
X118Y1347D01*
X118Y1343D01*
X116Y1343D01*
X116Y1341D01*
X114Y1341D01*
X114Y1337D01*
X112Y1337D01*
X112Y1335D01*
X110Y1335D01*
X110Y1333D01*
X108Y1333D01*
X108Y1319D01*
X580Y1319D01*
X580Y1317D01*
X588Y1317D01*
X588Y1315D01*
X592Y1315D01*
X592Y1313D01*
X596Y1313D01*
X596Y1311D01*
X600Y1311D01*
X600Y1309D01*
X602Y1309D01*
X602Y1307D01*
X604Y1307D01*
X604Y1305D01*
X606Y1305D01*
X606Y1303D01*
X608Y1303D01*
X608Y1301D01*
X610Y1301D01*
X610Y1297D01*
X612Y1297D01*
X612Y1295D01*
X614Y1295D01*
X614Y1291D01*
X616Y1291D01*
X616Y1283D01*
X618Y1283D01*
X618Y1261D01*
X616Y1261D01*
X616Y1255D01*
X614Y1255D01*
X614Y1251D01*
X612Y1251D01*
X612Y1247D01*
X610Y1247D01*
X610Y1245D01*
X608Y1245D01*
X608Y1243D01*
X606Y1243D01*
X606Y1239D01*
X604Y1239D01*
X604Y1237D01*
X600Y1237D01*
X600Y1235D01*
X598Y1235D01*
X598Y1233D01*
X594Y1233D01*
X594Y1213D01*
X596Y1213D01*
X596Y1211D01*
X600Y1211D01*
X600Y1209D01*
X602Y1209D01*
X602Y1207D01*
X604Y1207D01*
X604Y1205D01*
X606Y1205D01*
X606Y1203D01*
X608Y1203D01*
X608Y1201D01*
X610Y1201D01*
X610Y1199D01*
X720Y1199D01*
X720Y1315D01*
X738Y1315D01*
X738Y1335D01*
X736Y1335D01*
X736Y1337D01*
X734Y1337D01*
X734Y1339D01*
X732Y1339D01*
X732Y1341D01*
X730Y1341D01*
X730Y1343D01*
X728Y1343D01*
X728Y1347D01*
X726Y1347D01*
X726Y1351D01*
X724Y1351D01*
X724Y1355D01*
X722Y1355D01*
X722Y1365D01*
X720Y1365D01*
X720Y1387D01*
X718Y1387D01*
X718Y1389D01*
X716Y1389D01*
X716Y1391D01*
X714Y1391D01*
X714Y1393D01*
X712Y1393D01*
X712Y1395D01*
X710Y1395D01*
X710Y1397D01*
X708Y1397D01*
X708Y1399D01*
X706Y1399D01*
X706Y1401D01*
X704Y1401D01*
X704Y1403D01*
X702Y1403D01*
X702Y1405D01*
X700Y1405D01*
X700Y1407D01*
X698Y1407D01*
X698Y1409D01*
X696Y1409D01*
X696Y1411D01*
X694Y1411D01*
X694Y1413D01*
X692Y1413D01*
X692Y1415D01*
X690Y1415D01*
X690Y1417D01*
X688Y1417D01*
X688Y1419D01*
X686Y1419D01*
X686Y1421D01*
X684Y1421D01*
X684Y1423D01*
X682Y1423D01*
X682Y1425D01*
X680Y1425D01*
X680Y1427D01*
X678Y1427D01*
X678Y1429D01*
X676Y1429D01*
X676Y1431D01*
X674Y1431D01*
X674Y1433D01*
X672Y1433D01*
X672Y1435D01*
X670Y1435D01*
X670Y1437D01*
X668Y1437D01*
X668Y1439D01*
X666Y1439D01*
X666Y1441D01*
X664Y1441D01*
X664Y1443D01*
X662Y1443D01*
X662Y1445D01*
X118Y1445D01*
G37*
D02*
G36*
X108Y1319D02*
X108Y1311D01*
X110Y1311D01*
X110Y1309D01*
X112Y1309D01*
X112Y1307D01*
X114Y1307D01*
X114Y1305D01*
X116Y1305D01*
X116Y1303D01*
X118Y1303D01*
X118Y1299D01*
X120Y1299D01*
X120Y1295D01*
X122Y1295D01*
X122Y1291D01*
X124Y1291D01*
X124Y1283D01*
X126Y1283D01*
X126Y1279D01*
X146Y1279D01*
X146Y1283D01*
X148Y1283D01*
X148Y1287D01*
X150Y1287D01*
X150Y1289D01*
X152Y1289D01*
X152Y1291D01*
X154Y1291D01*
X154Y1293D01*
X156Y1293D01*
X156Y1295D01*
X160Y1295D01*
X160Y1297D01*
X168Y1297D01*
X168Y1299D01*
X234Y1299D01*
X234Y1301D01*
X236Y1301D01*
X236Y1303D01*
X238Y1303D01*
X238Y1305D01*
X240Y1305D01*
X240Y1307D01*
X242Y1307D01*
X242Y1309D01*
X246Y1309D01*
X246Y1311D01*
X248Y1311D01*
X248Y1313D01*
X252Y1313D01*
X252Y1315D01*
X256Y1315D01*
X256Y1317D01*
X264Y1317D01*
X264Y1319D01*
X108Y1319D01*
G37*
D02*
G36*
X280Y1319D02*
X280Y1317D01*
X288Y1317D01*
X288Y1315D01*
X292Y1315D01*
X292Y1313D01*
X296Y1313D01*
X296Y1311D01*
X300Y1311D01*
X300Y1309D01*
X302Y1309D01*
X302Y1307D01*
X304Y1307D01*
X304Y1305D01*
X306Y1305D01*
X306Y1303D01*
X308Y1303D01*
X308Y1301D01*
X310Y1301D01*
X310Y1297D01*
X312Y1297D01*
X312Y1295D01*
X314Y1295D01*
X314Y1291D01*
X316Y1291D01*
X316Y1283D01*
X318Y1283D01*
X318Y1261D01*
X316Y1261D01*
X316Y1255D01*
X314Y1255D01*
X314Y1251D01*
X312Y1251D01*
X312Y1247D01*
X310Y1247D01*
X310Y1245D01*
X308Y1245D01*
X308Y1243D01*
X306Y1243D01*
X306Y1239D01*
X304Y1239D01*
X304Y1237D01*
X300Y1237D01*
X300Y1235D01*
X298Y1235D01*
X298Y1233D01*
X294Y1233D01*
X294Y1213D01*
X296Y1213D01*
X296Y1211D01*
X300Y1211D01*
X300Y1209D01*
X302Y1209D01*
X302Y1207D01*
X304Y1207D01*
X304Y1205D01*
X306Y1205D01*
X306Y1203D01*
X308Y1203D01*
X308Y1201D01*
X310Y1201D01*
X310Y1197D01*
X312Y1197D01*
X312Y1195D01*
X314Y1195D01*
X314Y1191D01*
X316Y1191D01*
X316Y1183D01*
X318Y1183D01*
X318Y1161D01*
X316Y1161D01*
X316Y1155D01*
X314Y1155D01*
X314Y1151D01*
X312Y1151D01*
X312Y1147D01*
X310Y1147D01*
X310Y1145D01*
X308Y1145D01*
X308Y1143D01*
X306Y1143D01*
X306Y1139D01*
X304Y1139D01*
X304Y1137D01*
X300Y1137D01*
X300Y1135D01*
X298Y1135D01*
X298Y1133D01*
X294Y1133D01*
X294Y1113D01*
X296Y1113D01*
X296Y1111D01*
X300Y1111D01*
X300Y1109D01*
X302Y1109D01*
X302Y1107D01*
X304Y1107D01*
X304Y1105D01*
X306Y1105D01*
X306Y1103D01*
X308Y1103D01*
X308Y1101D01*
X310Y1101D01*
X310Y1097D01*
X312Y1097D01*
X312Y1095D01*
X314Y1095D01*
X314Y1091D01*
X316Y1091D01*
X316Y1083D01*
X318Y1083D01*
X318Y1063D01*
X320Y1063D01*
X320Y1061D01*
X322Y1061D01*
X322Y1059D01*
X324Y1059D01*
X324Y1057D01*
X326Y1057D01*
X326Y1055D01*
X328Y1055D01*
X328Y1053D01*
X330Y1053D01*
X330Y1051D01*
X332Y1051D01*
X332Y1049D01*
X334Y1049D01*
X334Y1047D01*
X336Y1047D01*
X336Y1045D01*
X338Y1045D01*
X338Y1043D01*
X340Y1043D01*
X340Y1041D01*
X342Y1041D01*
X342Y1039D01*
X344Y1039D01*
X344Y1037D01*
X346Y1037D01*
X346Y1035D01*
X348Y1035D01*
X348Y1033D01*
X350Y1033D01*
X350Y1031D01*
X352Y1031D01*
X352Y1029D01*
X354Y1029D01*
X354Y1027D01*
X356Y1027D01*
X356Y1025D01*
X358Y1025D01*
X358Y1023D01*
X360Y1023D01*
X360Y1021D01*
X362Y1021D01*
X362Y1019D01*
X364Y1019D01*
X364Y1017D01*
X366Y1017D01*
X366Y1015D01*
X368Y1015D01*
X368Y1013D01*
X370Y1013D01*
X370Y1011D01*
X372Y1011D01*
X372Y1009D01*
X374Y1009D01*
X374Y1007D01*
X376Y1007D01*
X376Y1005D01*
X378Y1005D01*
X378Y1003D01*
X380Y1003D01*
X380Y1001D01*
X382Y1001D01*
X382Y999D01*
X564Y999D01*
X564Y1001D01*
X568Y1001D01*
X568Y1003D01*
X572Y1003D01*
X572Y1005D01*
X576Y1005D01*
X576Y1007D01*
X582Y1007D01*
X582Y1025D01*
X572Y1025D01*
X572Y1027D01*
X560Y1027D01*
X560Y1029D01*
X554Y1029D01*
X554Y1031D01*
X550Y1031D01*
X550Y1033D01*
X546Y1033D01*
X546Y1035D01*
X544Y1035D01*
X544Y1037D01*
X542Y1037D01*
X542Y1039D01*
X538Y1039D01*
X538Y1043D01*
X536Y1043D01*
X536Y1045D01*
X534Y1045D01*
X534Y1047D01*
X532Y1047D01*
X532Y1051D01*
X530Y1051D01*
X530Y1055D01*
X528Y1055D01*
X528Y1063D01*
X526Y1063D01*
X526Y1083D01*
X528Y1083D01*
X528Y1089D01*
X530Y1089D01*
X530Y1093D01*
X532Y1093D01*
X532Y1097D01*
X534Y1097D01*
X534Y1101D01*
X536Y1101D01*
X536Y1103D01*
X538Y1103D01*
X538Y1105D01*
X540Y1105D01*
X540Y1107D01*
X542Y1107D01*
X542Y1109D01*
X546Y1109D01*
X546Y1111D01*
X548Y1111D01*
X548Y1113D01*
X550Y1113D01*
X550Y1133D01*
X546Y1133D01*
X546Y1135D01*
X544Y1135D01*
X544Y1137D01*
X542Y1137D01*
X542Y1139D01*
X538Y1139D01*
X538Y1143D01*
X536Y1143D01*
X536Y1145D01*
X534Y1145D01*
X534Y1147D01*
X532Y1147D01*
X532Y1151D01*
X530Y1151D01*
X530Y1155D01*
X528Y1155D01*
X528Y1163D01*
X526Y1163D01*
X526Y1183D01*
X528Y1183D01*
X528Y1189D01*
X530Y1189D01*
X530Y1193D01*
X532Y1193D01*
X532Y1197D01*
X534Y1197D01*
X534Y1201D01*
X536Y1201D01*
X536Y1203D01*
X538Y1203D01*
X538Y1205D01*
X540Y1205D01*
X540Y1207D01*
X542Y1207D01*
X542Y1209D01*
X546Y1209D01*
X546Y1211D01*
X548Y1211D01*
X548Y1213D01*
X550Y1213D01*
X550Y1233D01*
X546Y1233D01*
X546Y1235D01*
X544Y1235D01*
X544Y1237D01*
X542Y1237D01*
X542Y1239D01*
X538Y1239D01*
X538Y1243D01*
X536Y1243D01*
X536Y1245D01*
X534Y1245D01*
X534Y1247D01*
X532Y1247D01*
X532Y1251D01*
X530Y1251D01*
X530Y1255D01*
X528Y1255D01*
X528Y1263D01*
X526Y1263D01*
X526Y1283D01*
X528Y1283D01*
X528Y1289D01*
X530Y1289D01*
X530Y1293D01*
X532Y1293D01*
X532Y1297D01*
X534Y1297D01*
X534Y1301D01*
X536Y1301D01*
X536Y1303D01*
X538Y1303D01*
X538Y1305D01*
X540Y1305D01*
X540Y1307D01*
X542Y1307D01*
X542Y1309D01*
X546Y1309D01*
X546Y1311D01*
X548Y1311D01*
X548Y1313D01*
X552Y1313D01*
X552Y1315D01*
X556Y1315D01*
X556Y1317D01*
X564Y1317D01*
X564Y1319D01*
X280Y1319D01*
G37*
D02*
G36*
X900Y1263D02*
X900Y1181D01*
X920Y1181D01*
X920Y1189D01*
X922Y1189D01*
X922Y1195D01*
X924Y1195D01*
X924Y1199D01*
X926Y1199D01*
X926Y1201D01*
X928Y1201D01*
X928Y1205D01*
X930Y1205D01*
X930Y1207D01*
X932Y1207D01*
X932Y1209D01*
X934Y1209D01*
X934Y1211D01*
X936Y1211D01*
X936Y1233D01*
X934Y1233D01*
X934Y1235D01*
X932Y1235D01*
X932Y1237D01*
X930Y1237D01*
X930Y1241D01*
X928Y1241D01*
X928Y1243D01*
X926Y1243D01*
X926Y1247D01*
X924Y1247D01*
X924Y1251D01*
X922Y1251D01*
X922Y1255D01*
X920Y1255D01*
X920Y1263D01*
X900Y1263D01*
G37*
D02*
G36*
X124Y1261D02*
X124Y1255D01*
X122Y1255D01*
X122Y1249D01*
X120Y1249D01*
X120Y1247D01*
X118Y1247D01*
X118Y1243D01*
X116Y1243D01*
X116Y1241D01*
X114Y1241D01*
X114Y1237D01*
X112Y1237D01*
X112Y1235D01*
X110Y1235D01*
X110Y1233D01*
X108Y1233D01*
X108Y1211D01*
X110Y1211D01*
X110Y1209D01*
X112Y1209D01*
X112Y1207D01*
X114Y1207D01*
X114Y1205D01*
X116Y1205D01*
X116Y1203D01*
X118Y1203D01*
X118Y1199D01*
X120Y1199D01*
X120Y1195D01*
X122Y1195D01*
X122Y1191D01*
X124Y1191D01*
X124Y1183D01*
X144Y1183D01*
X144Y1261D01*
X124Y1261D01*
G37*
D02*
G36*
X198Y1245D02*
X198Y945D01*
X366Y945D01*
X366Y947D01*
X360Y947D01*
X360Y949D01*
X358Y949D01*
X358Y951D01*
X354Y951D01*
X354Y953D01*
X352Y953D01*
X352Y955D01*
X350Y955D01*
X350Y957D01*
X348Y957D01*
X348Y959D01*
X346Y959D01*
X346Y961D01*
X344Y961D01*
X344Y963D01*
X342Y963D01*
X342Y965D01*
X340Y965D01*
X340Y967D01*
X338Y967D01*
X338Y969D01*
X336Y969D01*
X336Y971D01*
X334Y971D01*
X334Y973D01*
X332Y973D01*
X332Y975D01*
X330Y975D01*
X330Y977D01*
X328Y977D01*
X328Y979D01*
X326Y979D01*
X326Y981D01*
X324Y981D01*
X324Y983D01*
X322Y983D01*
X322Y985D01*
X320Y985D01*
X320Y987D01*
X318Y987D01*
X318Y989D01*
X316Y989D01*
X316Y991D01*
X314Y991D01*
X314Y993D01*
X312Y993D01*
X312Y995D01*
X310Y995D01*
X310Y997D01*
X308Y997D01*
X308Y999D01*
X306Y999D01*
X306Y1001D01*
X304Y1001D01*
X304Y1003D01*
X302Y1003D01*
X302Y1005D01*
X300Y1005D01*
X300Y1007D01*
X298Y1007D01*
X298Y1009D01*
X296Y1009D01*
X296Y1011D01*
X294Y1011D01*
X294Y1013D01*
X292Y1013D01*
X292Y1015D01*
X290Y1015D01*
X290Y1017D01*
X288Y1017D01*
X288Y1019D01*
X286Y1019D01*
X286Y1021D01*
X284Y1021D01*
X284Y1023D01*
X282Y1023D01*
X282Y1025D01*
X272Y1025D01*
X272Y1027D01*
X260Y1027D01*
X260Y1029D01*
X254Y1029D01*
X254Y1031D01*
X250Y1031D01*
X250Y1033D01*
X246Y1033D01*
X246Y1035D01*
X244Y1035D01*
X244Y1037D01*
X242Y1037D01*
X242Y1039D01*
X238Y1039D01*
X238Y1043D01*
X236Y1043D01*
X236Y1045D01*
X234Y1045D01*
X234Y1047D01*
X232Y1047D01*
X232Y1051D01*
X230Y1051D01*
X230Y1055D01*
X228Y1055D01*
X228Y1063D01*
X226Y1063D01*
X226Y1083D01*
X228Y1083D01*
X228Y1089D01*
X230Y1089D01*
X230Y1093D01*
X232Y1093D01*
X232Y1097D01*
X234Y1097D01*
X234Y1101D01*
X236Y1101D01*
X236Y1103D01*
X238Y1103D01*
X238Y1105D01*
X240Y1105D01*
X240Y1107D01*
X242Y1107D01*
X242Y1109D01*
X246Y1109D01*
X246Y1111D01*
X248Y1111D01*
X248Y1113D01*
X250Y1113D01*
X250Y1133D01*
X246Y1133D01*
X246Y1135D01*
X244Y1135D01*
X244Y1137D01*
X242Y1137D01*
X242Y1139D01*
X238Y1139D01*
X238Y1143D01*
X236Y1143D01*
X236Y1145D01*
X234Y1145D01*
X234Y1147D01*
X232Y1147D01*
X232Y1151D01*
X230Y1151D01*
X230Y1155D01*
X228Y1155D01*
X228Y1163D01*
X226Y1163D01*
X226Y1183D01*
X228Y1183D01*
X228Y1189D01*
X230Y1189D01*
X230Y1193D01*
X232Y1193D01*
X232Y1197D01*
X234Y1197D01*
X234Y1201D01*
X236Y1201D01*
X236Y1203D01*
X238Y1203D01*
X238Y1205D01*
X240Y1205D01*
X240Y1207D01*
X242Y1207D01*
X242Y1209D01*
X246Y1209D01*
X246Y1211D01*
X248Y1211D01*
X248Y1213D01*
X250Y1213D01*
X250Y1233D01*
X246Y1233D01*
X246Y1235D01*
X244Y1235D01*
X244Y1237D01*
X242Y1237D01*
X242Y1239D01*
X238Y1239D01*
X238Y1243D01*
X236Y1243D01*
X236Y1245D01*
X198Y1245D01*
G37*
D02*
G36*
X698Y1007D02*
X698Y1005D01*
X694Y1005D01*
X694Y1003D01*
X690Y1003D01*
X690Y1001D01*
X686Y1001D01*
X686Y999D01*
X682Y999D01*
X682Y997D01*
X678Y997D01*
X678Y995D01*
X674Y995D01*
X674Y993D01*
X670Y993D01*
X670Y991D01*
X666Y991D01*
X666Y989D01*
X662Y989D01*
X662Y987D01*
X658Y987D01*
X658Y985D01*
X654Y985D01*
X654Y983D01*
X650Y983D01*
X650Y981D01*
X646Y981D01*
X646Y979D01*
X642Y979D01*
X642Y977D01*
X638Y977D01*
X638Y975D01*
X634Y975D01*
X634Y973D01*
X630Y973D01*
X630Y971D01*
X626Y971D01*
X626Y969D01*
X622Y969D01*
X622Y967D01*
X618Y967D01*
X618Y965D01*
X614Y965D01*
X614Y963D01*
X610Y963D01*
X610Y961D01*
X606Y961D01*
X606Y959D01*
X602Y959D01*
X602Y957D01*
X598Y957D01*
X598Y955D01*
X594Y955D01*
X594Y953D01*
X590Y953D01*
X590Y951D01*
X586Y951D01*
X586Y949D01*
X582Y949D01*
X582Y947D01*
X570Y947D01*
X570Y945D01*
X720Y945D01*
X720Y1007D01*
X698Y1007D01*
G37*
D02*
G36*
X198Y945D02*
X198Y943D01*
X720Y943D01*
X720Y945D01*
X198Y945D01*
G37*
D02*
G36*
X198Y945D02*
X198Y943D01*
X720Y943D01*
X720Y945D01*
X198Y945D01*
G37*
D02*
G36*
X198Y943D02*
X198Y819D01*
X580Y819D01*
X580Y817D01*
X588Y817D01*
X588Y815D01*
X592Y815D01*
X592Y813D01*
X596Y813D01*
X596Y811D01*
X600Y811D01*
X600Y809D01*
X602Y809D01*
X602Y807D01*
X604Y807D01*
X604Y805D01*
X606Y805D01*
X606Y803D01*
X608Y803D01*
X608Y801D01*
X610Y801D01*
X610Y797D01*
X612Y797D01*
X612Y795D01*
X614Y795D01*
X614Y791D01*
X616Y791D01*
X616Y783D01*
X618Y783D01*
X618Y761D01*
X616Y761D01*
X616Y755D01*
X614Y755D01*
X614Y751D01*
X612Y751D01*
X612Y747D01*
X610Y747D01*
X610Y745D01*
X608Y745D01*
X608Y743D01*
X606Y743D01*
X606Y739D01*
X604Y739D01*
X604Y737D01*
X600Y737D01*
X600Y735D01*
X598Y735D01*
X598Y733D01*
X594Y733D01*
X594Y713D01*
X596Y713D01*
X596Y711D01*
X600Y711D01*
X600Y709D01*
X602Y709D01*
X602Y707D01*
X604Y707D01*
X604Y705D01*
X606Y705D01*
X606Y703D01*
X608Y703D01*
X608Y701D01*
X610Y701D01*
X610Y699D01*
X744Y699D01*
X744Y911D01*
X720Y911D01*
X720Y943D01*
X198Y943D01*
G37*
D02*
G36*
X198Y819D02*
X198Y799D01*
X234Y799D01*
X234Y801D01*
X236Y801D01*
X236Y803D01*
X238Y803D01*
X238Y805D01*
X240Y805D01*
X240Y807D01*
X242Y807D01*
X242Y809D01*
X246Y809D01*
X246Y811D01*
X248Y811D01*
X248Y813D01*
X252Y813D01*
X252Y815D01*
X256Y815D01*
X256Y817D01*
X264Y817D01*
X264Y819D01*
X198Y819D01*
G37*
D02*
G36*
X280Y819D02*
X280Y817D01*
X288Y817D01*
X288Y815D01*
X292Y815D01*
X292Y813D01*
X296Y813D01*
X296Y811D01*
X300Y811D01*
X300Y809D01*
X302Y809D01*
X302Y807D01*
X304Y807D01*
X304Y805D01*
X306Y805D01*
X306Y803D01*
X308Y803D01*
X308Y801D01*
X310Y801D01*
X310Y797D01*
X312Y797D01*
X312Y795D01*
X314Y795D01*
X314Y791D01*
X316Y791D01*
X316Y783D01*
X318Y783D01*
X318Y761D01*
X316Y761D01*
X316Y755D01*
X314Y755D01*
X314Y751D01*
X312Y751D01*
X312Y747D01*
X310Y747D01*
X310Y745D01*
X308Y745D01*
X308Y741D01*
X306Y741D01*
X306Y739D01*
X304Y739D01*
X304Y737D01*
X300Y737D01*
X300Y735D01*
X298Y735D01*
X298Y733D01*
X294Y733D01*
X294Y713D01*
X296Y713D01*
X296Y711D01*
X300Y711D01*
X300Y709D01*
X302Y709D01*
X302Y707D01*
X304Y707D01*
X304Y705D01*
X306Y705D01*
X306Y703D01*
X308Y703D01*
X308Y701D01*
X310Y701D01*
X310Y697D01*
X312Y697D01*
X312Y695D01*
X314Y695D01*
X314Y691D01*
X316Y691D01*
X316Y683D01*
X318Y683D01*
X318Y661D01*
X316Y661D01*
X316Y655D01*
X314Y655D01*
X314Y651D01*
X312Y651D01*
X312Y647D01*
X310Y647D01*
X310Y645D01*
X308Y645D01*
X308Y641D01*
X306Y641D01*
X306Y639D01*
X304Y639D01*
X304Y637D01*
X300Y637D01*
X300Y635D01*
X298Y635D01*
X298Y633D01*
X294Y633D01*
X294Y613D01*
X296Y613D01*
X296Y611D01*
X300Y611D01*
X300Y609D01*
X302Y609D01*
X302Y607D01*
X304Y607D01*
X304Y605D01*
X306Y605D01*
X306Y603D01*
X308Y603D01*
X308Y601D01*
X310Y601D01*
X310Y597D01*
X312Y597D01*
X312Y595D01*
X314Y595D01*
X314Y591D01*
X316Y591D01*
X316Y583D01*
X318Y583D01*
X318Y565D01*
X320Y565D01*
X320Y563D01*
X322Y563D01*
X322Y561D01*
X324Y561D01*
X324Y559D01*
X326Y559D01*
X326Y557D01*
X328Y557D01*
X328Y555D01*
X330Y555D01*
X330Y553D01*
X332Y553D01*
X332Y551D01*
X334Y551D01*
X334Y549D01*
X336Y549D01*
X336Y547D01*
X338Y547D01*
X338Y545D01*
X340Y545D01*
X340Y543D01*
X342Y543D01*
X342Y541D01*
X344Y541D01*
X344Y539D01*
X346Y539D01*
X346Y537D01*
X348Y537D01*
X348Y535D01*
X350Y535D01*
X350Y533D01*
X352Y533D01*
X352Y531D01*
X354Y531D01*
X354Y529D01*
X356Y529D01*
X356Y527D01*
X358Y527D01*
X358Y525D01*
X572Y525D01*
X572Y527D01*
X560Y527D01*
X560Y529D01*
X554Y529D01*
X554Y531D01*
X550Y531D01*
X550Y533D01*
X546Y533D01*
X546Y535D01*
X544Y535D01*
X544Y537D01*
X542Y537D01*
X542Y539D01*
X538Y539D01*
X538Y543D01*
X536Y543D01*
X536Y545D01*
X534Y545D01*
X534Y547D01*
X532Y547D01*
X532Y551D01*
X530Y551D01*
X530Y555D01*
X528Y555D01*
X528Y563D01*
X526Y563D01*
X526Y583D01*
X528Y583D01*
X528Y589D01*
X530Y589D01*
X530Y593D01*
X532Y593D01*
X532Y597D01*
X534Y597D01*
X534Y601D01*
X536Y601D01*
X536Y603D01*
X538Y603D01*
X538Y605D01*
X540Y605D01*
X540Y607D01*
X542Y607D01*
X542Y609D01*
X546Y609D01*
X546Y611D01*
X548Y611D01*
X548Y613D01*
X550Y613D01*
X550Y633D01*
X546Y633D01*
X546Y635D01*
X544Y635D01*
X544Y637D01*
X542Y637D01*
X542Y639D01*
X538Y639D01*
X538Y643D01*
X536Y643D01*
X536Y645D01*
X534Y645D01*
X534Y647D01*
X532Y647D01*
X532Y651D01*
X530Y651D01*
X530Y655D01*
X528Y655D01*
X528Y663D01*
X526Y663D01*
X526Y683D01*
X528Y683D01*
X528Y689D01*
X530Y689D01*
X530Y693D01*
X532Y693D01*
X532Y697D01*
X534Y697D01*
X534Y701D01*
X536Y701D01*
X536Y703D01*
X538Y703D01*
X538Y705D01*
X540Y705D01*
X540Y707D01*
X542Y707D01*
X542Y709D01*
X546Y709D01*
X546Y711D01*
X548Y711D01*
X548Y713D01*
X550Y713D01*
X550Y733D01*
X546Y733D01*
X546Y735D01*
X544Y735D01*
X544Y737D01*
X542Y737D01*
X542Y739D01*
X538Y739D01*
X538Y743D01*
X536Y743D01*
X536Y745D01*
X534Y745D01*
X534Y747D01*
X532Y747D01*
X532Y751D01*
X530Y751D01*
X530Y755D01*
X528Y755D01*
X528Y763D01*
X526Y763D01*
X526Y783D01*
X528Y783D01*
X528Y789D01*
X530Y789D01*
X530Y793D01*
X532Y793D01*
X532Y797D01*
X534Y797D01*
X534Y801D01*
X536Y801D01*
X536Y803D01*
X538Y803D01*
X538Y805D01*
X540Y805D01*
X540Y807D01*
X542Y807D01*
X542Y809D01*
X546Y809D01*
X546Y811D01*
X548Y811D01*
X548Y813D01*
X552Y813D01*
X552Y815D01*
X556Y815D01*
X556Y817D01*
X564Y817D01*
X564Y819D01*
X280Y819D01*
G37*
D02*
G36*
X608Y645D02*
X608Y643D01*
X606Y643D01*
X606Y639D01*
X604Y639D01*
X604Y637D01*
X600Y637D01*
X600Y635D01*
X598Y635D01*
X598Y633D01*
X594Y633D01*
X594Y613D01*
X596Y613D01*
X596Y611D01*
X600Y611D01*
X600Y609D01*
X602Y609D01*
X602Y607D01*
X604Y607D01*
X604Y605D01*
X606Y605D01*
X606Y603D01*
X608Y603D01*
X608Y601D01*
X610Y601D01*
X610Y597D01*
X612Y597D01*
X612Y595D01*
X614Y595D01*
X614Y591D01*
X616Y591D01*
X616Y583D01*
X618Y583D01*
X618Y561D01*
X616Y561D01*
X616Y555D01*
X614Y555D01*
X614Y551D01*
X612Y551D01*
X612Y547D01*
X610Y547D01*
X610Y545D01*
X608Y545D01*
X608Y543D01*
X606Y543D01*
X606Y539D01*
X604Y539D01*
X604Y537D01*
X600Y537D01*
X600Y535D01*
X598Y535D01*
X598Y533D01*
X594Y533D01*
X594Y531D01*
X590Y531D01*
X590Y529D01*
X584Y529D01*
X584Y527D01*
X574Y527D01*
X574Y525D01*
X936Y525D01*
X936Y533D01*
X934Y533D01*
X934Y535D01*
X932Y535D01*
X932Y537D01*
X930Y537D01*
X930Y541D01*
X928Y541D01*
X928Y543D01*
X926Y543D01*
X926Y545D01*
X868Y545D01*
X868Y547D01*
X862Y547D01*
X862Y549D01*
X858Y549D01*
X858Y551D01*
X856Y551D01*
X856Y553D01*
X854Y553D01*
X854Y555D01*
X852Y555D01*
X852Y557D01*
X850Y557D01*
X850Y559D01*
X848Y559D01*
X848Y561D01*
X846Y561D01*
X846Y563D01*
X844Y563D01*
X844Y565D01*
X842Y565D01*
X842Y567D01*
X840Y567D01*
X840Y569D01*
X838Y569D01*
X838Y571D01*
X836Y571D01*
X836Y573D01*
X834Y573D01*
X834Y575D01*
X832Y575D01*
X832Y577D01*
X830Y577D01*
X830Y579D01*
X826Y579D01*
X826Y581D01*
X824Y581D01*
X824Y583D01*
X822Y583D01*
X822Y585D01*
X820Y585D01*
X820Y587D01*
X818Y587D01*
X818Y589D01*
X816Y589D01*
X816Y591D01*
X814Y591D01*
X814Y593D01*
X812Y593D01*
X812Y595D01*
X810Y595D01*
X810Y597D01*
X808Y597D01*
X808Y599D01*
X806Y599D01*
X806Y601D01*
X804Y601D01*
X804Y603D01*
X802Y603D01*
X802Y605D01*
X800Y605D01*
X800Y607D01*
X798Y607D01*
X798Y609D01*
X796Y609D01*
X796Y611D01*
X794Y611D01*
X794Y613D01*
X792Y613D01*
X792Y615D01*
X790Y615D01*
X790Y617D01*
X788Y617D01*
X788Y619D01*
X786Y619D01*
X786Y621D01*
X784Y621D01*
X784Y623D01*
X782Y623D01*
X782Y625D01*
X780Y625D01*
X780Y627D01*
X778Y627D01*
X778Y629D01*
X776Y629D01*
X776Y631D01*
X774Y631D01*
X774Y633D01*
X772Y633D01*
X772Y635D01*
X770Y635D01*
X770Y637D01*
X768Y637D01*
X768Y639D01*
X766Y639D01*
X766Y641D01*
X764Y641D01*
X764Y643D01*
X762Y643D01*
X762Y645D01*
X608Y645D01*
G37*
D02*
G36*
X360Y525D02*
X360Y523D01*
X936Y523D01*
X936Y525D01*
X360Y525D01*
G37*
D02*
G36*
X360Y525D02*
X360Y523D01*
X936Y523D01*
X936Y525D01*
X360Y525D01*
G37*
D02*
G36*
X362Y523D02*
X362Y521D01*
X364Y521D01*
X364Y519D01*
X366Y519D01*
X366Y517D01*
X368Y517D01*
X368Y515D01*
X370Y515D01*
X370Y513D01*
X372Y513D01*
X372Y511D01*
X374Y511D01*
X374Y509D01*
X376Y509D01*
X376Y507D01*
X378Y507D01*
X378Y505D01*
X380Y505D01*
X380Y503D01*
X382Y503D01*
X382Y501D01*
X676Y501D01*
X676Y499D01*
X684Y499D01*
X684Y497D01*
X688Y497D01*
X688Y495D01*
X690Y495D01*
X690Y493D01*
X692Y493D01*
X692Y491D01*
X694Y491D01*
X694Y489D01*
X696Y489D01*
X696Y487D01*
X698Y487D01*
X698Y485D01*
X700Y485D01*
X700Y483D01*
X702Y483D01*
X702Y481D01*
X704Y481D01*
X704Y479D01*
X706Y479D01*
X706Y477D01*
X708Y477D01*
X708Y475D01*
X710Y475D01*
X710Y473D01*
X712Y473D01*
X712Y471D01*
X714Y471D01*
X714Y469D01*
X716Y469D01*
X716Y467D01*
X718Y467D01*
X718Y465D01*
X720Y465D01*
X720Y463D01*
X722Y463D01*
X722Y461D01*
X724Y461D01*
X724Y459D01*
X726Y459D01*
X726Y457D01*
X728Y457D01*
X728Y455D01*
X730Y455D01*
X730Y453D01*
X732Y453D01*
X732Y451D01*
X734Y451D01*
X734Y449D01*
X736Y449D01*
X736Y447D01*
X738Y447D01*
X738Y445D01*
X740Y445D01*
X740Y443D01*
X742Y443D01*
X742Y441D01*
X744Y441D01*
X744Y439D01*
X746Y439D01*
X746Y437D01*
X748Y437D01*
X748Y435D01*
X750Y435D01*
X750Y433D01*
X752Y433D01*
X752Y431D01*
X754Y431D01*
X754Y429D01*
X756Y429D01*
X756Y425D01*
X758Y425D01*
X758Y423D01*
X760Y423D01*
X760Y421D01*
X762Y421D01*
X762Y419D01*
X764Y419D01*
X764Y417D01*
X766Y417D01*
X766Y415D01*
X768Y415D01*
X768Y413D01*
X770Y413D01*
X770Y411D01*
X772Y411D01*
X772Y409D01*
X774Y409D01*
X774Y407D01*
X776Y407D01*
X776Y405D01*
X778Y405D01*
X778Y403D01*
X780Y403D01*
X780Y401D01*
X782Y401D01*
X782Y399D01*
X784Y399D01*
X784Y397D01*
X786Y397D01*
X786Y395D01*
X788Y395D01*
X788Y393D01*
X790Y393D01*
X790Y391D01*
X792Y391D01*
X792Y389D01*
X794Y389D01*
X794Y385D01*
X796Y385D01*
X796Y381D01*
X798Y381D01*
X798Y325D01*
X824Y325D01*
X824Y319D01*
X960Y319D01*
X960Y321D01*
X952Y321D01*
X952Y323D01*
X948Y323D01*
X948Y325D01*
X946Y325D01*
X946Y327D01*
X942Y327D01*
X942Y329D01*
X940Y329D01*
X940Y331D01*
X936Y331D01*
X936Y333D01*
X934Y333D01*
X934Y335D01*
X932Y335D01*
X932Y337D01*
X930Y337D01*
X930Y341D01*
X928Y341D01*
X928Y343D01*
X926Y343D01*
X926Y347D01*
X924Y347D01*
X924Y351D01*
X922Y351D01*
X922Y355D01*
X920Y355D01*
X920Y363D01*
X918Y363D01*
X918Y381D01*
X920Y381D01*
X920Y389D01*
X922Y389D01*
X922Y395D01*
X924Y395D01*
X924Y399D01*
X926Y399D01*
X926Y401D01*
X928Y401D01*
X928Y405D01*
X930Y405D01*
X930Y407D01*
X932Y407D01*
X932Y409D01*
X934Y409D01*
X934Y411D01*
X936Y411D01*
X936Y433D01*
X934Y433D01*
X934Y435D01*
X932Y435D01*
X932Y437D01*
X930Y437D01*
X930Y441D01*
X928Y441D01*
X928Y443D01*
X926Y443D01*
X926Y447D01*
X924Y447D01*
X924Y451D01*
X922Y451D01*
X922Y455D01*
X920Y455D01*
X920Y463D01*
X918Y463D01*
X918Y481D01*
X920Y481D01*
X920Y489D01*
X922Y489D01*
X922Y495D01*
X924Y495D01*
X924Y499D01*
X926Y499D01*
X926Y501D01*
X928Y501D01*
X928Y505D01*
X930Y505D01*
X930Y507D01*
X932Y507D01*
X932Y509D01*
X934Y509D01*
X934Y511D01*
X936Y511D01*
X936Y523D01*
X362Y523D01*
G37*
D02*
G36*
X384Y501D02*
X384Y499D01*
X574Y499D01*
X574Y501D01*
X384Y501D01*
G37*
D02*
G36*
X984Y321D02*
X984Y319D01*
X1004Y319D01*
X1004Y321D01*
X984Y321D01*
G37*
D02*
G36*
X824Y319D02*
X824Y317D01*
X1004Y317D01*
X1004Y319D01*
X824Y319D01*
G37*
D02*
G36*
X824Y319D02*
X824Y317D01*
X1004Y317D01*
X1004Y319D01*
X824Y319D01*
G37*
D02*
G36*
X824Y317D02*
X824Y221D01*
X804Y221D01*
X804Y201D01*
X972Y201D01*
X972Y199D01*
X982Y199D01*
X982Y197D01*
X984Y197D01*
X984Y195D01*
X1004Y195D01*
X1004Y317D01*
X824Y317D01*
G37*
D02*
G36*
X806Y201D02*
X806Y199D01*
X930Y199D01*
X930Y201D01*
X806Y201D01*
G37*
D02*
G36*
X900Y1163D02*
X900Y1081D01*
X920Y1081D01*
X920Y1089D01*
X922Y1089D01*
X922Y1095D01*
X924Y1095D01*
X924Y1099D01*
X926Y1099D01*
X926Y1101D01*
X928Y1101D01*
X928Y1105D01*
X930Y1105D01*
X930Y1107D01*
X932Y1107D01*
X932Y1109D01*
X934Y1109D01*
X934Y1111D01*
X936Y1111D01*
X936Y1133D01*
X934Y1133D01*
X934Y1135D01*
X932Y1135D01*
X932Y1137D01*
X930Y1137D01*
X930Y1141D01*
X928Y1141D01*
X928Y1143D01*
X926Y1143D01*
X926Y1147D01*
X924Y1147D01*
X924Y1151D01*
X922Y1151D01*
X922Y1155D01*
X920Y1155D01*
X920Y1163D01*
X900Y1163D01*
G37*
D02*
G36*
X124Y1161D02*
X124Y1155D01*
X122Y1155D01*
X122Y1149D01*
X120Y1149D01*
X120Y1147D01*
X118Y1147D01*
X118Y1143D01*
X116Y1143D01*
X116Y1141D01*
X114Y1141D01*
X114Y1137D01*
X112Y1137D01*
X112Y1135D01*
X110Y1135D01*
X110Y1133D01*
X108Y1133D01*
X108Y1111D01*
X110Y1111D01*
X110Y1109D01*
X112Y1109D01*
X112Y1107D01*
X114Y1107D01*
X114Y1105D01*
X116Y1105D01*
X116Y1103D01*
X118Y1103D01*
X118Y1099D01*
X120Y1099D01*
X120Y1095D01*
X122Y1095D01*
X122Y1091D01*
X124Y1091D01*
X124Y1083D01*
X144Y1083D01*
X144Y1161D01*
X124Y1161D01*
G37*
D02*
G36*
X608Y1145D02*
X608Y1143D01*
X606Y1143D01*
X606Y1139D01*
X604Y1139D01*
X604Y1137D01*
X600Y1137D01*
X600Y1135D01*
X598Y1135D01*
X598Y1133D01*
X594Y1133D01*
X594Y1125D01*
X778Y1125D01*
X778Y1123D01*
X788Y1123D01*
X788Y1121D01*
X794Y1121D01*
X794Y1119D01*
X796Y1119D01*
X796Y1117D01*
X800Y1117D01*
X800Y1115D01*
X804Y1115D01*
X804Y1113D01*
X806Y1113D01*
X806Y1111D01*
X808Y1111D01*
X808Y1109D01*
X810Y1109D01*
X810Y1107D01*
X812Y1107D01*
X812Y1105D01*
X814Y1105D01*
X814Y1101D01*
X816Y1101D01*
X816Y1099D01*
X818Y1099D01*
X818Y1095D01*
X820Y1095D01*
X820Y1091D01*
X822Y1091D01*
X822Y1083D01*
X824Y1083D01*
X824Y1063D01*
X822Y1063D01*
X822Y1055D01*
X820Y1055D01*
X820Y1051D01*
X818Y1051D01*
X818Y1047D01*
X816Y1047D01*
X816Y1043D01*
X814Y1043D01*
X814Y1041D01*
X812Y1041D01*
X812Y1039D01*
X810Y1039D01*
X810Y1035D01*
X806Y1035D01*
X806Y1015D01*
X824Y1015D01*
X824Y911D01*
X800Y911D01*
X800Y899D01*
X798Y899D01*
X798Y683D01*
X800Y683D01*
X800Y681D01*
X802Y681D01*
X802Y679D01*
X804Y679D01*
X804Y677D01*
X806Y677D01*
X806Y675D01*
X808Y675D01*
X808Y673D01*
X810Y673D01*
X810Y671D01*
X812Y671D01*
X812Y669D01*
X814Y669D01*
X814Y667D01*
X816Y667D01*
X816Y665D01*
X818Y665D01*
X818Y663D01*
X820Y663D01*
X820Y661D01*
X822Y661D01*
X822Y659D01*
X824Y659D01*
X824Y657D01*
X826Y657D01*
X826Y655D01*
X846Y655D01*
X846Y1145D01*
X608Y1145D01*
G37*
D02*
G36*
X594Y1125D02*
X594Y1113D01*
X596Y1113D01*
X596Y1111D01*
X600Y1111D01*
X600Y1109D01*
X602Y1109D01*
X602Y1107D01*
X604Y1107D01*
X604Y1105D01*
X606Y1105D01*
X606Y1103D01*
X608Y1103D01*
X608Y1101D01*
X610Y1101D01*
X610Y1097D01*
X612Y1097D01*
X612Y1095D01*
X614Y1095D01*
X614Y1091D01*
X616Y1091D01*
X616Y1083D01*
X618Y1083D01*
X618Y1061D01*
X616Y1061D01*
X616Y1055D01*
X614Y1055D01*
X614Y1051D01*
X612Y1051D01*
X612Y1047D01*
X610Y1047D01*
X610Y1045D01*
X608Y1045D01*
X608Y1043D01*
X606Y1043D01*
X606Y1039D01*
X604Y1039D01*
X604Y1029D01*
X626Y1029D01*
X626Y1031D01*
X630Y1031D01*
X630Y1033D01*
X634Y1033D01*
X634Y1035D01*
X638Y1035D01*
X638Y1037D01*
X642Y1037D01*
X642Y1039D01*
X646Y1039D01*
X646Y1041D01*
X650Y1041D01*
X650Y1043D01*
X654Y1043D01*
X654Y1045D01*
X658Y1045D01*
X658Y1047D01*
X662Y1047D01*
X662Y1049D01*
X666Y1049D01*
X666Y1051D01*
X670Y1051D01*
X670Y1053D01*
X674Y1053D01*
X674Y1055D01*
X678Y1055D01*
X678Y1057D01*
X682Y1057D01*
X682Y1059D01*
X686Y1059D01*
X686Y1061D01*
X690Y1061D01*
X690Y1063D01*
X694Y1063D01*
X694Y1065D01*
X698Y1065D01*
X698Y1067D01*
X702Y1067D01*
X702Y1069D01*
X706Y1069D01*
X706Y1071D01*
X710Y1071D01*
X710Y1073D01*
X714Y1073D01*
X714Y1075D01*
X718Y1075D01*
X718Y1077D01*
X720Y1077D01*
X720Y1081D01*
X722Y1081D01*
X722Y1089D01*
X724Y1089D01*
X724Y1095D01*
X726Y1095D01*
X726Y1097D01*
X728Y1097D01*
X728Y1101D01*
X730Y1101D01*
X730Y1103D01*
X732Y1103D01*
X732Y1107D01*
X734Y1107D01*
X734Y1109D01*
X736Y1109D01*
X736Y1111D01*
X738Y1111D01*
X738Y1113D01*
X742Y1113D01*
X742Y1115D01*
X744Y1115D01*
X744Y1117D01*
X748Y1117D01*
X748Y1119D01*
X752Y1119D01*
X752Y1121D01*
X756Y1121D01*
X756Y1123D01*
X766Y1123D01*
X766Y1125D01*
X594Y1125D01*
G37*
D02*
G36*
X900Y1063D02*
X900Y981D01*
X920Y981D01*
X920Y989D01*
X922Y989D01*
X922Y995D01*
X924Y995D01*
X924Y999D01*
X926Y999D01*
X926Y1001D01*
X928Y1001D01*
X928Y1005D01*
X930Y1005D01*
X930Y1007D01*
X932Y1007D01*
X932Y1009D01*
X934Y1009D01*
X934Y1011D01*
X936Y1011D01*
X936Y1033D01*
X934Y1033D01*
X934Y1035D01*
X932Y1035D01*
X932Y1037D01*
X930Y1037D01*
X930Y1041D01*
X928Y1041D01*
X928Y1043D01*
X926Y1043D01*
X926Y1047D01*
X924Y1047D01*
X924Y1051D01*
X922Y1051D01*
X922Y1055D01*
X920Y1055D01*
X920Y1063D01*
X900Y1063D01*
G37*
D02*
G36*
X124Y1061D02*
X124Y1055D01*
X122Y1055D01*
X122Y1049D01*
X120Y1049D01*
X120Y1047D01*
X118Y1047D01*
X118Y1043D01*
X116Y1043D01*
X116Y1041D01*
X114Y1041D01*
X114Y1037D01*
X112Y1037D01*
X112Y1035D01*
X110Y1035D01*
X110Y1033D01*
X108Y1033D01*
X108Y1011D01*
X110Y1011D01*
X110Y1009D01*
X112Y1009D01*
X112Y1007D01*
X114Y1007D01*
X114Y1005D01*
X116Y1005D01*
X116Y1003D01*
X118Y1003D01*
X118Y999D01*
X120Y999D01*
X120Y995D01*
X122Y995D01*
X122Y991D01*
X124Y991D01*
X124Y983D01*
X144Y983D01*
X144Y1061D01*
X124Y1061D01*
G37*
D02*
G36*
X900Y963D02*
X900Y881D01*
X920Y881D01*
X920Y889D01*
X922Y889D01*
X922Y895D01*
X924Y895D01*
X924Y899D01*
X926Y899D01*
X926Y901D01*
X928Y901D01*
X928Y905D01*
X930Y905D01*
X930Y907D01*
X932Y907D01*
X932Y909D01*
X934Y909D01*
X934Y911D01*
X936Y911D01*
X936Y933D01*
X934Y933D01*
X934Y935D01*
X932Y935D01*
X932Y937D01*
X930Y937D01*
X930Y941D01*
X928Y941D01*
X928Y943D01*
X926Y943D01*
X926Y947D01*
X924Y947D01*
X924Y951D01*
X922Y951D01*
X922Y955D01*
X920Y955D01*
X920Y963D01*
X900Y963D01*
G37*
D02*
G36*
X124Y961D02*
X124Y955D01*
X122Y955D01*
X122Y949D01*
X120Y949D01*
X120Y947D01*
X118Y947D01*
X118Y943D01*
X116Y943D01*
X116Y941D01*
X114Y941D01*
X114Y937D01*
X112Y937D01*
X112Y935D01*
X110Y935D01*
X110Y933D01*
X108Y933D01*
X108Y911D01*
X110Y911D01*
X110Y909D01*
X112Y909D01*
X112Y907D01*
X114Y907D01*
X114Y905D01*
X116Y905D01*
X116Y903D01*
X118Y903D01*
X118Y899D01*
X120Y899D01*
X120Y895D01*
X122Y895D01*
X122Y891D01*
X124Y891D01*
X124Y883D01*
X144Y883D01*
X144Y961D01*
X124Y961D01*
G37*
D02*
G36*
X900Y863D02*
X900Y781D01*
X920Y781D01*
X920Y789D01*
X922Y789D01*
X922Y795D01*
X924Y795D01*
X924Y799D01*
X926Y799D01*
X926Y801D01*
X928Y801D01*
X928Y805D01*
X930Y805D01*
X930Y807D01*
X932Y807D01*
X932Y809D01*
X934Y809D01*
X934Y811D01*
X936Y811D01*
X936Y833D01*
X934Y833D01*
X934Y835D01*
X932Y835D01*
X932Y837D01*
X930Y837D01*
X930Y841D01*
X928Y841D01*
X928Y843D01*
X926Y843D01*
X926Y847D01*
X924Y847D01*
X924Y851D01*
X922Y851D01*
X922Y855D01*
X920Y855D01*
X920Y863D01*
X900Y863D01*
G37*
D02*
G36*
X124Y861D02*
X124Y855D01*
X122Y855D01*
X122Y849D01*
X120Y849D01*
X120Y847D01*
X118Y847D01*
X118Y843D01*
X116Y843D01*
X116Y841D01*
X114Y841D01*
X114Y837D01*
X112Y837D01*
X112Y835D01*
X110Y835D01*
X110Y833D01*
X108Y833D01*
X108Y811D01*
X110Y811D01*
X110Y809D01*
X112Y809D01*
X112Y807D01*
X114Y807D01*
X114Y805D01*
X116Y805D01*
X116Y803D01*
X118Y803D01*
X118Y799D01*
X120Y799D01*
X120Y795D01*
X122Y795D01*
X122Y791D01*
X124Y791D01*
X124Y783D01*
X144Y783D01*
X144Y861D01*
X124Y861D01*
G37*
D02*
G36*
X900Y763D02*
X900Y681D01*
X920Y681D01*
X920Y689D01*
X922Y689D01*
X922Y695D01*
X924Y695D01*
X924Y699D01*
X926Y699D01*
X926Y701D01*
X928Y701D01*
X928Y705D01*
X930Y705D01*
X930Y707D01*
X932Y707D01*
X932Y709D01*
X934Y709D01*
X934Y711D01*
X936Y711D01*
X936Y733D01*
X934Y733D01*
X934Y735D01*
X932Y735D01*
X932Y737D01*
X930Y737D01*
X930Y741D01*
X928Y741D01*
X928Y743D01*
X926Y743D01*
X926Y747D01*
X924Y747D01*
X924Y751D01*
X922Y751D01*
X922Y755D01*
X920Y755D01*
X920Y763D01*
X900Y763D01*
G37*
D02*
G36*
X124Y761D02*
X124Y755D01*
X122Y755D01*
X122Y749D01*
X120Y749D01*
X120Y747D01*
X118Y747D01*
X118Y743D01*
X116Y743D01*
X116Y741D01*
X114Y741D01*
X114Y737D01*
X112Y737D01*
X112Y735D01*
X110Y735D01*
X110Y733D01*
X108Y733D01*
X108Y711D01*
X110Y711D01*
X110Y709D01*
X112Y709D01*
X112Y707D01*
X114Y707D01*
X114Y705D01*
X116Y705D01*
X116Y703D01*
X118Y703D01*
X118Y699D01*
X120Y699D01*
X120Y695D01*
X122Y695D01*
X122Y691D01*
X124Y691D01*
X124Y683D01*
X144Y683D01*
X144Y761D01*
X124Y761D01*
G37*
D02*
G36*
X900Y663D02*
X900Y599D01*
X926Y599D01*
X926Y601D01*
X928Y601D01*
X928Y605D01*
X930Y605D01*
X930Y607D01*
X932Y607D01*
X932Y609D01*
X934Y609D01*
X934Y611D01*
X936Y611D01*
X936Y633D01*
X934Y633D01*
X934Y635D01*
X932Y635D01*
X932Y637D01*
X930Y637D01*
X930Y641D01*
X928Y641D01*
X928Y643D01*
X926Y643D01*
X926Y647D01*
X924Y647D01*
X924Y651D01*
X922Y651D01*
X922Y655D01*
X920Y655D01*
X920Y663D01*
X900Y663D01*
G37*
D02*
G36*
X124Y661D02*
X124Y655D01*
X122Y655D01*
X122Y649D01*
X120Y649D01*
X120Y647D01*
X118Y647D01*
X118Y643D01*
X116Y643D01*
X116Y641D01*
X114Y641D01*
X114Y637D01*
X112Y637D01*
X112Y635D01*
X110Y635D01*
X110Y633D01*
X108Y633D01*
X108Y611D01*
X110Y611D01*
X110Y609D01*
X112Y609D01*
X112Y607D01*
X114Y607D01*
X114Y605D01*
X116Y605D01*
X116Y603D01*
X118Y603D01*
X118Y599D01*
X120Y599D01*
X120Y595D01*
X122Y595D01*
X122Y591D01*
X124Y591D01*
X124Y583D01*
X144Y583D01*
X144Y661D01*
X124Y661D01*
G37*
D02*
G36*
X124Y561D02*
X124Y555D01*
X122Y555D01*
X122Y549D01*
X120Y549D01*
X120Y547D01*
X118Y547D01*
X118Y543D01*
X116Y543D01*
X116Y541D01*
X114Y541D01*
X114Y537D01*
X112Y537D01*
X112Y535D01*
X110Y535D01*
X110Y533D01*
X108Y533D01*
X108Y511D01*
X110Y511D01*
X110Y509D01*
X112Y509D01*
X112Y507D01*
X114Y507D01*
X114Y505D01*
X116Y505D01*
X116Y503D01*
X118Y503D01*
X118Y499D01*
X120Y499D01*
X120Y495D01*
X122Y495D01*
X122Y491D01*
X124Y491D01*
X124Y483D01*
X144Y483D01*
X144Y561D01*
X124Y561D01*
G37*
D02*
G36*
X124Y461D02*
X124Y455D01*
X122Y455D01*
X122Y449D01*
X120Y449D01*
X120Y447D01*
X118Y447D01*
X118Y443D01*
X116Y443D01*
X116Y441D01*
X114Y441D01*
X114Y437D01*
X112Y437D01*
X112Y435D01*
X110Y435D01*
X110Y433D01*
X108Y433D01*
X108Y411D01*
X110Y411D01*
X110Y409D01*
X112Y409D01*
X112Y407D01*
X114Y407D01*
X114Y405D01*
X116Y405D01*
X116Y403D01*
X118Y403D01*
X118Y399D01*
X144Y399D01*
X144Y461D01*
X124Y461D01*
G37*
D02*
G36*
X198Y745D02*
X198Y445D01*
X368Y445D01*
X368Y447D01*
X362Y447D01*
X362Y449D01*
X358Y449D01*
X358Y451D01*
X356Y451D01*
X356Y453D01*
X354Y453D01*
X354Y455D01*
X352Y455D01*
X352Y457D01*
X350Y457D01*
X350Y459D01*
X348Y459D01*
X348Y461D01*
X346Y461D01*
X346Y463D01*
X344Y463D01*
X344Y465D01*
X342Y465D01*
X342Y467D01*
X340Y467D01*
X340Y469D01*
X338Y469D01*
X338Y471D01*
X336Y471D01*
X336Y473D01*
X334Y473D01*
X334Y475D01*
X332Y475D01*
X332Y477D01*
X330Y477D01*
X330Y479D01*
X328Y479D01*
X328Y481D01*
X326Y481D01*
X326Y483D01*
X322Y483D01*
X322Y485D01*
X320Y485D01*
X320Y487D01*
X318Y487D01*
X318Y489D01*
X316Y489D01*
X316Y491D01*
X314Y491D01*
X314Y493D01*
X312Y493D01*
X312Y495D01*
X310Y495D01*
X310Y497D01*
X308Y497D01*
X308Y499D01*
X306Y499D01*
X306Y501D01*
X304Y501D01*
X304Y503D01*
X302Y503D01*
X302Y505D01*
X300Y505D01*
X300Y507D01*
X298Y507D01*
X298Y509D01*
X296Y509D01*
X296Y511D01*
X294Y511D01*
X294Y513D01*
X292Y513D01*
X292Y515D01*
X290Y515D01*
X290Y517D01*
X288Y517D01*
X288Y519D01*
X286Y519D01*
X286Y521D01*
X284Y521D01*
X284Y523D01*
X282Y523D01*
X282Y525D01*
X272Y525D01*
X272Y527D01*
X260Y527D01*
X260Y529D01*
X254Y529D01*
X254Y531D01*
X250Y531D01*
X250Y533D01*
X246Y533D01*
X246Y535D01*
X244Y535D01*
X244Y537D01*
X242Y537D01*
X242Y539D01*
X238Y539D01*
X238Y543D01*
X236Y543D01*
X236Y545D01*
X234Y545D01*
X234Y547D01*
X232Y547D01*
X232Y551D01*
X230Y551D01*
X230Y555D01*
X228Y555D01*
X228Y563D01*
X226Y563D01*
X226Y583D01*
X228Y583D01*
X228Y589D01*
X230Y589D01*
X230Y593D01*
X232Y593D01*
X232Y597D01*
X234Y597D01*
X234Y601D01*
X236Y601D01*
X236Y603D01*
X238Y603D01*
X238Y605D01*
X240Y605D01*
X240Y607D01*
X242Y607D01*
X242Y609D01*
X246Y609D01*
X246Y611D01*
X248Y611D01*
X248Y613D01*
X250Y613D01*
X250Y633D01*
X246Y633D01*
X246Y635D01*
X244Y635D01*
X244Y637D01*
X242Y637D01*
X242Y639D01*
X238Y639D01*
X238Y643D01*
X236Y643D01*
X236Y645D01*
X234Y645D01*
X234Y647D01*
X232Y647D01*
X232Y651D01*
X230Y651D01*
X230Y655D01*
X228Y655D01*
X228Y663D01*
X226Y663D01*
X226Y683D01*
X228Y683D01*
X228Y689D01*
X230Y689D01*
X230Y693D01*
X232Y693D01*
X232Y697D01*
X234Y697D01*
X234Y701D01*
X236Y701D01*
X236Y703D01*
X238Y703D01*
X238Y705D01*
X240Y705D01*
X240Y707D01*
X242Y707D01*
X242Y709D01*
X246Y709D01*
X246Y711D01*
X248Y711D01*
X248Y713D01*
X250Y713D01*
X250Y733D01*
X246Y733D01*
X246Y735D01*
X244Y735D01*
X244Y737D01*
X242Y737D01*
X242Y739D01*
X238Y739D01*
X238Y743D01*
X236Y743D01*
X236Y745D01*
X198Y745D01*
G37*
D02*
G36*
X580Y447D02*
X580Y445D01*
X662Y445D01*
X662Y447D01*
X580Y447D01*
G37*
D02*
G36*
X198Y445D02*
X198Y443D01*
X664Y443D01*
X664Y445D01*
X198Y445D01*
G37*
D02*
G36*
X198Y445D02*
X198Y443D01*
X664Y443D01*
X664Y445D01*
X198Y445D01*
G37*
D02*
G36*
X198Y443D02*
X198Y425D01*
X578Y425D01*
X578Y423D01*
X588Y423D01*
X588Y421D01*
X594Y421D01*
X594Y419D01*
X596Y419D01*
X596Y417D01*
X600Y417D01*
X600Y415D01*
X604Y415D01*
X604Y413D01*
X606Y413D01*
X606Y411D01*
X608Y411D01*
X608Y409D01*
X610Y409D01*
X610Y407D01*
X612Y407D01*
X612Y405D01*
X614Y405D01*
X614Y401D01*
X616Y401D01*
X616Y399D01*
X618Y399D01*
X618Y395D01*
X620Y395D01*
X620Y391D01*
X622Y391D01*
X622Y383D01*
X624Y383D01*
X624Y363D01*
X622Y363D01*
X622Y355D01*
X620Y355D01*
X620Y351D01*
X618Y351D01*
X618Y347D01*
X616Y347D01*
X616Y343D01*
X614Y343D01*
X614Y341D01*
X612Y341D01*
X612Y339D01*
X610Y339D01*
X610Y335D01*
X606Y335D01*
X606Y333D01*
X604Y333D01*
X604Y331D01*
X602Y331D01*
X602Y329D01*
X598Y329D01*
X598Y309D01*
X600Y309D01*
X600Y307D01*
X602Y307D01*
X602Y305D01*
X604Y305D01*
X604Y301D01*
X606Y301D01*
X606Y299D01*
X608Y299D01*
X608Y295D01*
X610Y295D01*
X610Y291D01*
X612Y291D01*
X612Y283D01*
X614Y283D01*
X614Y263D01*
X612Y263D01*
X612Y255D01*
X610Y255D01*
X610Y251D01*
X608Y251D01*
X608Y247D01*
X606Y247D01*
X606Y243D01*
X604Y243D01*
X604Y241D01*
X602Y241D01*
X602Y239D01*
X600Y239D01*
X600Y215D01*
X604Y215D01*
X604Y213D01*
X606Y213D01*
X606Y211D01*
X608Y211D01*
X608Y209D01*
X610Y209D01*
X610Y207D01*
X612Y207D01*
X612Y205D01*
X614Y205D01*
X614Y201D01*
X616Y201D01*
X616Y199D01*
X618Y199D01*
X618Y195D01*
X620Y195D01*
X620Y191D01*
X622Y191D01*
X622Y183D01*
X624Y183D01*
X624Y163D01*
X622Y163D01*
X622Y155D01*
X620Y155D01*
X620Y151D01*
X618Y151D01*
X618Y147D01*
X616Y147D01*
X616Y143D01*
X614Y143D01*
X614Y41D01*
X722Y41D01*
X722Y65D01*
X720Y65D01*
X720Y81D01*
X722Y81D01*
X722Y89D01*
X724Y89D01*
X724Y95D01*
X726Y95D01*
X726Y97D01*
X728Y97D01*
X728Y101D01*
X730Y101D01*
X730Y103D01*
X732Y103D01*
X732Y107D01*
X734Y107D01*
X734Y109D01*
X736Y109D01*
X736Y129D01*
X732Y129D01*
X732Y131D01*
X730Y131D01*
X730Y133D01*
X728Y133D01*
X728Y135D01*
X726Y135D01*
X726Y137D01*
X724Y137D01*
X724Y139D01*
X722Y139D01*
X722Y141D01*
X720Y141D01*
X720Y143D01*
X718Y143D01*
X718Y147D01*
X716Y147D01*
X716Y151D01*
X714Y151D01*
X714Y155D01*
X712Y155D01*
X712Y165D01*
X710Y165D01*
X710Y181D01*
X712Y181D01*
X712Y189D01*
X714Y189D01*
X714Y195D01*
X716Y195D01*
X716Y197D01*
X718Y197D01*
X718Y201D01*
X720Y201D01*
X720Y325D01*
X744Y325D01*
X744Y363D01*
X742Y363D01*
X742Y365D01*
X740Y365D01*
X740Y367D01*
X738Y367D01*
X738Y369D01*
X736Y369D01*
X736Y371D01*
X734Y371D01*
X734Y373D01*
X732Y373D01*
X732Y375D01*
X730Y375D01*
X730Y377D01*
X728Y377D01*
X728Y379D01*
X726Y379D01*
X726Y381D01*
X724Y381D01*
X724Y383D01*
X722Y383D01*
X722Y385D01*
X720Y385D01*
X720Y387D01*
X718Y387D01*
X718Y389D01*
X716Y389D01*
X716Y391D01*
X714Y391D01*
X714Y393D01*
X712Y393D01*
X712Y395D01*
X710Y395D01*
X710Y397D01*
X708Y397D01*
X708Y399D01*
X706Y399D01*
X706Y401D01*
X704Y401D01*
X704Y405D01*
X702Y405D01*
X702Y407D01*
X700Y407D01*
X700Y409D01*
X698Y409D01*
X698Y411D01*
X696Y411D01*
X696Y413D01*
X694Y413D01*
X694Y415D01*
X692Y415D01*
X692Y417D01*
X690Y417D01*
X690Y419D01*
X688Y419D01*
X688Y421D01*
X686Y421D01*
X686Y423D01*
X684Y423D01*
X684Y425D01*
X682Y425D01*
X682Y427D01*
X680Y427D01*
X680Y429D01*
X678Y429D01*
X678Y431D01*
X676Y431D01*
X676Y433D01*
X674Y433D01*
X674Y435D01*
X672Y435D01*
X672Y437D01*
X670Y437D01*
X670Y439D01*
X668Y439D01*
X668Y441D01*
X666Y441D01*
X666Y443D01*
X198Y443D01*
G37*
D02*
G36*
X198Y425D02*
X198Y365D01*
X196Y365D01*
X196Y359D01*
X194Y359D01*
X194Y355D01*
X192Y355D01*
X192Y353D01*
X190Y353D01*
X190Y351D01*
X188Y351D01*
X188Y349D01*
X184Y349D01*
X184Y347D01*
X180Y347D01*
X180Y345D01*
X118Y345D01*
X118Y343D01*
X116Y343D01*
X116Y341D01*
X114Y341D01*
X114Y337D01*
X112Y337D01*
X112Y335D01*
X110Y335D01*
X110Y333D01*
X108Y333D01*
X108Y331D01*
X106Y331D01*
X106Y329D01*
X102Y329D01*
X102Y327D01*
X100Y327D01*
X100Y325D01*
X278Y325D01*
X278Y323D01*
X288Y323D01*
X288Y321D01*
X294Y321D01*
X294Y319D01*
X296Y319D01*
X296Y317D01*
X300Y317D01*
X300Y315D01*
X304Y315D01*
X304Y313D01*
X306Y313D01*
X306Y311D01*
X308Y311D01*
X308Y309D01*
X310Y309D01*
X310Y307D01*
X312Y307D01*
X312Y305D01*
X314Y305D01*
X314Y301D01*
X316Y301D01*
X316Y299D01*
X318Y299D01*
X318Y295D01*
X320Y295D01*
X320Y291D01*
X322Y291D01*
X322Y283D01*
X324Y283D01*
X324Y263D01*
X322Y263D01*
X322Y255D01*
X320Y255D01*
X320Y251D01*
X318Y251D01*
X318Y247D01*
X316Y247D01*
X316Y243D01*
X314Y243D01*
X314Y241D01*
X312Y241D01*
X312Y239D01*
X310Y239D01*
X310Y215D01*
X314Y215D01*
X314Y213D01*
X316Y213D01*
X316Y211D01*
X318Y211D01*
X318Y209D01*
X320Y209D01*
X320Y207D01*
X322Y207D01*
X322Y205D01*
X324Y205D01*
X324Y201D01*
X326Y201D01*
X326Y199D01*
X328Y199D01*
X328Y195D01*
X330Y195D01*
X330Y191D01*
X332Y191D01*
X332Y183D01*
X334Y183D01*
X334Y163D01*
X332Y163D01*
X332Y155D01*
X330Y155D01*
X330Y151D01*
X328Y151D01*
X328Y147D01*
X326Y147D01*
X326Y143D01*
X324Y143D01*
X324Y41D01*
X510Y41D01*
X510Y125D01*
X528Y125D01*
X528Y147D01*
X526Y147D01*
X526Y151D01*
X524Y151D01*
X524Y155D01*
X522Y155D01*
X522Y165D01*
X520Y165D01*
X520Y181D01*
X522Y181D01*
X522Y189D01*
X524Y189D01*
X524Y195D01*
X526Y195D01*
X526Y197D01*
X528Y197D01*
X528Y201D01*
X530Y201D01*
X530Y203D01*
X532Y203D01*
X532Y207D01*
X534Y207D01*
X534Y209D01*
X536Y209D01*
X536Y229D01*
X532Y229D01*
X532Y231D01*
X530Y231D01*
X530Y233D01*
X528Y233D01*
X528Y235D01*
X526Y235D01*
X526Y237D01*
X524Y237D01*
X524Y239D01*
X522Y239D01*
X522Y241D01*
X520Y241D01*
X520Y243D01*
X518Y243D01*
X518Y247D01*
X516Y247D01*
X516Y251D01*
X514Y251D01*
X514Y255D01*
X512Y255D01*
X512Y265D01*
X510Y265D01*
X510Y281D01*
X512Y281D01*
X512Y289D01*
X514Y289D01*
X514Y295D01*
X516Y295D01*
X516Y297D01*
X518Y297D01*
X518Y301D01*
X520Y301D01*
X520Y303D01*
X522Y303D01*
X522Y307D01*
X524Y307D01*
X524Y309D01*
X526Y309D01*
X526Y311D01*
X528Y311D01*
X528Y313D01*
X532Y313D01*
X532Y315D01*
X534Y315D01*
X534Y317D01*
X536Y317D01*
X536Y337D01*
X534Y337D01*
X534Y339D01*
X532Y339D01*
X532Y341D01*
X530Y341D01*
X530Y343D01*
X528Y343D01*
X528Y347D01*
X526Y347D01*
X526Y351D01*
X524Y351D01*
X524Y355D01*
X522Y355D01*
X522Y365D01*
X520Y365D01*
X520Y381D01*
X522Y381D01*
X522Y389D01*
X524Y389D01*
X524Y395D01*
X526Y395D01*
X526Y397D01*
X528Y397D01*
X528Y401D01*
X530Y401D01*
X530Y403D01*
X532Y403D01*
X532Y407D01*
X534Y407D01*
X534Y409D01*
X536Y409D01*
X536Y411D01*
X538Y411D01*
X538Y413D01*
X542Y413D01*
X542Y415D01*
X544Y415D01*
X544Y417D01*
X548Y417D01*
X548Y419D01*
X552Y419D01*
X552Y421D01*
X556Y421D01*
X556Y423D01*
X566Y423D01*
X566Y425D01*
X198Y425D01*
G37*
D02*
G36*
X96Y325D02*
X96Y323D01*
X92Y323D01*
X92Y321D01*
X84Y321D01*
X84Y319D01*
X252Y319D01*
X252Y321D01*
X256Y321D01*
X256Y323D01*
X266Y323D01*
X266Y325D01*
X96Y325D01*
G37*
D02*
G36*
X40Y321D02*
X40Y319D01*
X60Y319D01*
X60Y321D01*
X40Y321D01*
G37*
D02*
G36*
X40Y319D02*
X40Y317D01*
X248Y317D01*
X248Y319D01*
X40Y319D01*
G37*
D02*
G36*
X40Y319D02*
X40Y317D01*
X248Y317D01*
X248Y319D01*
X40Y319D01*
G37*
D02*
G36*
X40Y317D02*
X40Y41D01*
X220Y41D01*
X220Y125D01*
X238Y125D01*
X238Y147D01*
X236Y147D01*
X236Y151D01*
X234Y151D01*
X234Y155D01*
X232Y155D01*
X232Y165D01*
X230Y165D01*
X230Y181D01*
X232Y181D01*
X232Y189D01*
X234Y189D01*
X234Y195D01*
X236Y195D01*
X236Y197D01*
X238Y197D01*
X238Y201D01*
X240Y201D01*
X240Y203D01*
X242Y203D01*
X242Y207D01*
X244Y207D01*
X244Y209D01*
X246Y209D01*
X246Y229D01*
X242Y229D01*
X242Y231D01*
X240Y231D01*
X240Y233D01*
X238Y233D01*
X238Y235D01*
X236Y235D01*
X236Y237D01*
X234Y237D01*
X234Y239D01*
X232Y239D01*
X232Y241D01*
X230Y241D01*
X230Y243D01*
X228Y243D01*
X228Y247D01*
X226Y247D01*
X226Y251D01*
X224Y251D01*
X224Y255D01*
X222Y255D01*
X222Y265D01*
X220Y265D01*
X220Y281D01*
X222Y281D01*
X222Y289D01*
X224Y289D01*
X224Y295D01*
X226Y295D01*
X226Y297D01*
X228Y297D01*
X228Y301D01*
X230Y301D01*
X230Y303D01*
X232Y303D01*
X232Y307D01*
X234Y307D01*
X234Y309D01*
X236Y309D01*
X236Y311D01*
X238Y311D01*
X238Y313D01*
X242Y313D01*
X242Y315D01*
X244Y315D01*
X244Y317D01*
X40Y317D01*
G37*
D02*
G36*
X806Y145D02*
X806Y143D01*
X804Y143D01*
X804Y141D01*
X802Y141D01*
X802Y139D01*
X800Y139D01*
X800Y125D01*
X914Y125D01*
X914Y107D01*
X934Y107D01*
X934Y109D01*
X936Y109D01*
X936Y111D01*
X938Y111D01*
X938Y113D01*
X942Y113D01*
X942Y115D01*
X944Y115D01*
X944Y145D01*
X806Y145D01*
G37*
D02*
G54D15*
X736Y1299D02*
X809Y1299D01*
X736Y1298D02*
X809Y1298D01*
X736Y1297D02*
X809Y1297D01*
X736Y1296D02*
X809Y1296D01*
X736Y1295D02*
X809Y1295D01*
X736Y1294D02*
X809Y1294D01*
X736Y1293D02*
X809Y1293D01*
X736Y1292D02*
X809Y1292D01*
X736Y1291D02*
X809Y1291D01*
X736Y1290D02*
X809Y1290D01*
X736Y1289D02*
X809Y1289D01*
X736Y1288D02*
X809Y1288D01*
X736Y1287D02*
X809Y1287D01*
X736Y1286D02*
X809Y1286D01*
X736Y1285D02*
X809Y1285D01*
X736Y1284D02*
X809Y1284D01*
X736Y1283D02*
X809Y1283D01*
X736Y1282D02*
X766Y1282D01*
X779Y1282D02*
X809Y1282D01*
X736Y1281D02*
X764Y1281D01*
X782Y1281D02*
X809Y1281D01*
X736Y1280D02*
X762Y1280D01*
X783Y1280D02*
X809Y1280D01*
X736Y1279D02*
X760Y1279D01*
X785Y1279D02*
X809Y1279D01*
X736Y1278D02*
X759Y1278D01*
X786Y1278D02*
X809Y1278D01*
X736Y1277D02*
X758Y1277D01*
X787Y1277D02*
X809Y1277D01*
X736Y1276D02*
X757Y1276D01*
X788Y1276D02*
X809Y1276D01*
X736Y1275D02*
X756Y1275D01*
X789Y1275D02*
X809Y1275D01*
X736Y1274D02*
X755Y1274D01*
X790Y1274D02*
X809Y1274D01*
X736Y1273D02*
X755Y1273D01*
X790Y1273D02*
X809Y1273D01*
X736Y1272D02*
X754Y1272D01*
X791Y1272D02*
X809Y1272D01*
X736Y1271D02*
X754Y1271D01*
X791Y1271D02*
X809Y1271D01*
X736Y1270D02*
X753Y1270D01*
X792Y1270D02*
X809Y1270D01*
X736Y1269D02*
X753Y1269D01*
X792Y1269D02*
X809Y1269D01*
X736Y1268D02*
X753Y1268D01*
X792Y1268D02*
X809Y1268D01*
X736Y1267D02*
X752Y1267D01*
X793Y1267D02*
X809Y1267D01*
X736Y1266D02*
X752Y1266D01*
X793Y1266D02*
X809Y1266D01*
X736Y1265D02*
X752Y1265D01*
X793Y1265D02*
X809Y1265D01*
X736Y1264D02*
X752Y1264D01*
X793Y1264D02*
X809Y1264D01*
X736Y1263D02*
X752Y1263D01*
X793Y1263D02*
X809Y1263D01*
X736Y1262D02*
X752Y1262D01*
X793Y1262D02*
X809Y1262D01*
X736Y1261D02*
X752Y1261D01*
X793Y1261D02*
X809Y1261D01*
X736Y1260D02*
X752Y1260D01*
X793Y1260D02*
X809Y1260D01*
X736Y1259D02*
X752Y1259D01*
X793Y1259D02*
X809Y1259D01*
X736Y1258D02*
X753Y1258D01*
X792Y1258D02*
X809Y1258D01*
X736Y1257D02*
X753Y1257D01*
X792Y1257D02*
X809Y1257D01*
X736Y1256D02*
X753Y1256D01*
X792Y1256D02*
X809Y1256D01*
X736Y1255D02*
X754Y1255D01*
X791Y1255D02*
X809Y1255D01*
X736Y1254D02*
X754Y1254D01*
X791Y1254D02*
X809Y1254D01*
X736Y1253D02*
X755Y1253D01*
X790Y1253D02*
X809Y1253D01*
X736Y1252D02*
X755Y1252D01*
X790Y1252D02*
X809Y1252D01*
X736Y1251D02*
X756Y1251D01*
X789Y1251D02*
X809Y1251D01*
X736Y1250D02*
X757Y1250D01*
X788Y1250D02*
X809Y1250D01*
X736Y1249D02*
X758Y1249D01*
X787Y1249D02*
X809Y1249D01*
X736Y1248D02*
X759Y1248D01*
X786Y1248D02*
X809Y1248D01*
X736Y1247D02*
X760Y1247D01*
X785Y1247D02*
X809Y1247D01*
X736Y1246D02*
X762Y1246D01*
X783Y1246D02*
X809Y1246D01*
X736Y1245D02*
X763Y1245D01*
X782Y1245D02*
X809Y1245D01*
X736Y1244D02*
X766Y1244D01*
X779Y1244D02*
X809Y1244D01*
X736Y1243D02*
X809Y1243D01*
X736Y1242D02*
X809Y1242D01*
X736Y1241D02*
X809Y1241D01*
X736Y1240D02*
X809Y1240D01*
X736Y1239D02*
X809Y1239D01*
X736Y1238D02*
X809Y1238D01*
X736Y1237D02*
X809Y1237D01*
X736Y1236D02*
X809Y1236D01*
X736Y1235D02*
X809Y1235D01*
X736Y1234D02*
X809Y1234D01*
X736Y1233D02*
X809Y1233D01*
X736Y1232D02*
X809Y1232D01*
X736Y1231D02*
X809Y1231D01*
X736Y1230D02*
X809Y1230D01*
X736Y1229D02*
X809Y1229D01*
X736Y1228D02*
X809Y1228D01*
X736Y1227D02*
X809Y1227D01*
X736Y1226D02*
X809Y1226D01*
X736Y1000D02*
X809Y1000D01*
X736Y999D02*
X809Y999D01*
X736Y998D02*
X809Y998D01*
X736Y997D02*
X809Y997D01*
X736Y996D02*
X809Y996D01*
X736Y995D02*
X809Y995D01*
X736Y994D02*
X809Y994D01*
X736Y993D02*
X809Y993D01*
X736Y992D02*
X809Y992D01*
X736Y991D02*
X809Y991D01*
X736Y990D02*
X809Y990D01*
X736Y989D02*
X809Y989D01*
X736Y988D02*
X809Y988D01*
X736Y987D02*
X809Y987D01*
X736Y986D02*
X809Y986D01*
X736Y985D02*
X809Y985D01*
X736Y984D02*
X809Y984D01*
X736Y983D02*
X809Y983D01*
X736Y982D02*
X766Y982D01*
X779Y982D02*
X809Y982D01*
X736Y981D02*
X763Y981D01*
X782Y981D02*
X809Y981D01*
X736Y980D02*
X762Y980D01*
X783Y980D02*
X809Y980D01*
X736Y979D02*
X760Y979D01*
X785Y979D02*
X809Y979D01*
X736Y978D02*
X759Y978D01*
X786Y978D02*
X809Y978D01*
X736Y977D02*
X758Y977D01*
X787Y977D02*
X809Y977D01*
X736Y976D02*
X757Y976D01*
X788Y976D02*
X809Y976D01*
X736Y975D02*
X756Y975D01*
X789Y975D02*
X809Y975D01*
X736Y974D02*
X755Y974D01*
X790Y974D02*
X809Y974D01*
X736Y973D02*
X755Y973D01*
X790Y973D02*
X809Y973D01*
X736Y972D02*
X754Y972D01*
X791Y972D02*
X809Y972D01*
X736Y971D02*
X754Y971D01*
X791Y971D02*
X809Y971D01*
X736Y970D02*
X753Y970D01*
X792Y970D02*
X809Y970D01*
X736Y969D02*
X753Y969D01*
X792Y969D02*
X809Y969D01*
X736Y968D02*
X753Y968D01*
X792Y968D02*
X809Y968D01*
X736Y967D02*
X752Y967D01*
X793Y967D02*
X809Y967D01*
X736Y966D02*
X752Y966D01*
X793Y966D02*
X809Y966D01*
X736Y965D02*
X752Y965D01*
X793Y965D02*
X809Y965D01*
X736Y964D02*
X752Y964D01*
X793Y964D02*
X809Y964D01*
X736Y963D02*
X752Y963D01*
X793Y963D02*
X809Y963D01*
X736Y962D02*
X752Y962D01*
X793Y962D02*
X809Y962D01*
X736Y961D02*
X752Y961D01*
X793Y961D02*
X809Y961D01*
X736Y960D02*
X752Y960D01*
X793Y960D02*
X809Y960D01*
X736Y959D02*
X752Y959D01*
X793Y959D02*
X809Y959D01*
X736Y958D02*
X753Y958D01*
X792Y958D02*
X809Y958D01*
X736Y957D02*
X753Y957D01*
X792Y957D02*
X809Y957D01*
X736Y956D02*
X753Y956D01*
X792Y956D02*
X809Y956D01*
X736Y955D02*
X754Y955D01*
X791Y955D02*
X809Y955D01*
X736Y954D02*
X754Y954D01*
X791Y954D02*
X809Y954D01*
X736Y953D02*
X755Y953D01*
X790Y953D02*
X809Y953D01*
X736Y952D02*
X755Y952D01*
X790Y952D02*
X809Y952D01*
X736Y951D02*
X756Y951D01*
X789Y951D02*
X809Y951D01*
X736Y950D02*
X757Y950D01*
X788Y950D02*
X809Y950D01*
X736Y949D02*
X758Y949D01*
X787Y949D02*
X809Y949D01*
X736Y948D02*
X759Y948D01*
X786Y948D02*
X809Y948D01*
X736Y947D02*
X760Y947D01*
X785Y947D02*
X809Y947D01*
X736Y946D02*
X762Y946D01*
X783Y946D02*
X809Y946D01*
X736Y945D02*
X764Y945D01*
X782Y945D02*
X809Y945D01*
X736Y944D02*
X766Y944D01*
X779Y944D02*
X809Y944D01*
X736Y943D02*
X809Y943D01*
X736Y942D02*
X809Y942D01*
X736Y941D02*
X809Y941D01*
X736Y940D02*
X809Y940D01*
X736Y939D02*
X809Y939D01*
X736Y938D02*
X809Y938D01*
X736Y937D02*
X809Y937D01*
X736Y936D02*
X809Y936D01*
X736Y935D02*
X809Y935D01*
X736Y934D02*
X809Y934D01*
X736Y933D02*
X809Y933D01*
X736Y932D02*
X809Y932D01*
X736Y931D02*
X809Y931D01*
X736Y930D02*
X809Y930D01*
X736Y929D02*
X809Y929D01*
X736Y928D02*
X809Y928D01*
X736Y927D02*
X809Y927D01*
X736Y310D02*
X809Y310D01*
X736Y309D02*
X809Y309D01*
X736Y308D02*
X809Y308D01*
X736Y307D02*
X809Y307D01*
X736Y306D02*
X809Y306D01*
X736Y305D02*
X809Y305D01*
X736Y304D02*
X809Y304D01*
X736Y303D02*
X809Y303D01*
X736Y302D02*
X809Y302D01*
X736Y301D02*
X809Y301D01*
X736Y300D02*
X809Y300D01*
X736Y299D02*
X809Y299D01*
X736Y298D02*
X809Y298D01*
X736Y297D02*
X809Y297D01*
X736Y296D02*
X809Y296D01*
X736Y295D02*
X809Y295D01*
X736Y294D02*
X809Y294D01*
X736Y293D02*
X771Y293D01*
X774Y293D02*
X809Y293D01*
X736Y292D02*
X766Y292D01*
X779Y292D02*
X809Y292D01*
X736Y291D02*
X763Y291D01*
X782Y291D02*
X809Y291D01*
X736Y290D02*
X761Y290D01*
X784Y290D02*
X809Y290D01*
X736Y289D02*
X760Y289D01*
X785Y289D02*
X809Y289D01*
X736Y288D02*
X759Y288D01*
X786Y288D02*
X809Y288D01*
X736Y287D02*
X758Y287D01*
X787Y287D02*
X809Y287D01*
X736Y286D02*
X757Y286D01*
X788Y286D02*
X809Y286D01*
X736Y285D02*
X756Y285D01*
X789Y285D02*
X809Y285D01*
X736Y284D02*
X755Y284D01*
X790Y284D02*
X809Y284D01*
X736Y283D02*
X755Y283D01*
X790Y283D02*
X809Y283D01*
X736Y282D02*
X754Y282D01*
X791Y282D02*
X809Y282D01*
X736Y281D02*
X754Y281D01*
X791Y281D02*
X809Y281D01*
X736Y280D02*
X753Y280D01*
X792Y280D02*
X809Y280D01*
X736Y279D02*
X753Y279D01*
X792Y279D02*
X809Y279D01*
X736Y278D02*
X753Y278D01*
X792Y278D02*
X809Y278D01*
X736Y277D02*
X752Y277D01*
X793Y277D02*
X809Y277D01*
X736Y276D02*
X752Y276D01*
X793Y276D02*
X809Y276D01*
X736Y275D02*
X752Y275D01*
X793Y275D02*
X809Y275D01*
X736Y274D02*
X752Y274D01*
X793Y274D02*
X809Y274D01*
X736Y273D02*
X752Y273D01*
X793Y273D02*
X809Y273D01*
X736Y272D02*
X752Y272D01*
X793Y272D02*
X809Y272D01*
X736Y271D02*
X752Y271D01*
X793Y271D02*
X809Y271D01*
X736Y270D02*
X752Y270D01*
X793Y270D02*
X809Y270D01*
X736Y269D02*
X752Y269D01*
X793Y269D02*
X809Y269D01*
X736Y268D02*
X753Y268D01*
X792Y268D02*
X809Y268D01*
X736Y267D02*
X753Y267D01*
X792Y267D02*
X809Y267D01*
X736Y266D02*
X753Y266D01*
X792Y266D02*
X809Y266D01*
X736Y265D02*
X754Y265D01*
X791Y265D02*
X809Y265D01*
X736Y264D02*
X754Y264D01*
X791Y264D02*
X809Y264D01*
X736Y263D02*
X755Y263D01*
X790Y263D02*
X809Y263D01*
X736Y262D02*
X755Y262D01*
X790Y262D02*
X809Y262D01*
X736Y261D02*
X756Y261D01*
X789Y261D02*
X809Y261D01*
X736Y260D02*
X757Y260D01*
X788Y260D02*
X809Y260D01*
X736Y259D02*
X758Y259D01*
X787Y259D02*
X809Y259D01*
X736Y258D02*
X759Y258D01*
X786Y258D02*
X809Y258D01*
X736Y257D02*
X760Y257D01*
X785Y257D02*
X809Y257D01*
X736Y256D02*
X762Y256D01*
X783Y256D02*
X809Y256D01*
X736Y255D02*
X764Y255D01*
X781Y255D02*
X809Y255D01*
X736Y254D02*
X766Y254D01*
X779Y254D02*
X809Y254D01*
X736Y253D02*
X809Y253D01*
X736Y252D02*
X809Y252D01*
X736Y251D02*
X809Y251D01*
X736Y250D02*
X809Y250D01*
X736Y249D02*
X809Y249D01*
X736Y248D02*
X809Y248D01*
X736Y247D02*
X809Y247D01*
X736Y246D02*
X809Y246D01*
X736Y245D02*
X809Y245D01*
X736Y244D02*
X809Y244D01*
X736Y243D02*
X809Y243D01*
X736Y242D02*
X809Y242D01*
X736Y241D02*
X809Y241D01*
X736Y240D02*
X809Y240D01*
X736Y239D02*
X809Y239D01*
X736Y238D02*
X809Y238D01*
X736Y237D02*
X809Y237D01*
X236Y110D02*
X309Y110D01*
X526Y110D02*
X599Y110D01*
X826Y110D02*
X899Y110D01*
X236Y109D02*
X309Y109D01*
X526Y109D02*
X599Y109D01*
X826Y109D02*
X899Y109D01*
X236Y108D02*
X309Y108D01*
X526Y108D02*
X599Y108D01*
X826Y108D02*
X899Y108D01*
X236Y107D02*
X309Y107D01*
X526Y107D02*
X599Y107D01*
X826Y107D02*
X899Y107D01*
X236Y106D02*
X309Y106D01*
X526Y106D02*
X599Y106D01*
X826Y106D02*
X899Y106D01*
X236Y105D02*
X309Y105D01*
X526Y105D02*
X599Y105D01*
X826Y105D02*
X899Y105D01*
X236Y104D02*
X309Y104D01*
X526Y104D02*
X599Y104D01*
X826Y104D02*
X899Y104D01*
X236Y103D02*
X309Y103D01*
X526Y103D02*
X599Y103D01*
X826Y103D02*
X899Y103D01*
X236Y102D02*
X309Y102D01*
X526Y102D02*
X599Y102D01*
X826Y102D02*
X899Y102D01*
X236Y101D02*
X309Y101D01*
X526Y101D02*
X599Y101D01*
X826Y101D02*
X899Y101D01*
X236Y100D02*
X309Y100D01*
X526Y100D02*
X599Y100D01*
X826Y100D02*
X899Y100D01*
X236Y99D02*
X309Y99D01*
X526Y99D02*
X599Y99D01*
X826Y99D02*
X899Y99D01*
X236Y98D02*
X309Y98D01*
X526Y98D02*
X599Y98D01*
X826Y98D02*
X899Y98D01*
X236Y97D02*
X309Y97D01*
X526Y97D02*
X599Y97D01*
X826Y97D02*
X899Y97D01*
X236Y96D02*
X309Y96D01*
X526Y96D02*
X599Y96D01*
X826Y96D02*
X899Y96D01*
X236Y95D02*
X309Y95D01*
X526Y95D02*
X599Y95D01*
X826Y95D02*
X899Y95D01*
X236Y94D02*
X309Y94D01*
X526Y94D02*
X599Y94D01*
X826Y94D02*
X899Y94D01*
X236Y93D02*
X271Y93D01*
X274Y93D02*
X309Y93D01*
X526Y93D02*
X561Y93D01*
X564Y93D02*
X599Y93D01*
X826Y93D02*
X861Y93D01*
X864Y93D02*
X899Y93D01*
X236Y92D02*
X266Y92D01*
X279Y92D02*
X309Y92D01*
X526Y92D02*
X556Y92D01*
X569Y92D02*
X599Y92D01*
X826Y92D02*
X856Y92D01*
X869Y92D02*
X899Y92D01*
X236Y91D02*
X263Y91D01*
X282Y91D02*
X309Y91D01*
X526Y91D02*
X553Y91D01*
X572Y91D02*
X599Y91D01*
X826Y91D02*
X853Y91D01*
X872Y91D02*
X899Y91D01*
X236Y90D02*
X261Y90D01*
X284Y90D02*
X309Y90D01*
X526Y90D02*
X551Y90D01*
X574Y90D02*
X599Y90D01*
X826Y90D02*
X851Y90D01*
X874Y90D02*
X899Y90D01*
X236Y89D02*
X260Y89D01*
X285Y89D02*
X309Y89D01*
X526Y89D02*
X550Y89D01*
X575Y89D02*
X599Y89D01*
X826Y89D02*
X850Y89D01*
X875Y89D02*
X899Y89D01*
X236Y88D02*
X259Y88D01*
X286Y88D02*
X309Y88D01*
X526Y88D02*
X549Y88D01*
X576Y88D02*
X599Y88D01*
X826Y88D02*
X849Y88D01*
X876Y88D02*
X899Y88D01*
X236Y87D02*
X258Y87D01*
X287Y87D02*
X309Y87D01*
X526Y87D02*
X548Y87D01*
X577Y87D02*
X599Y87D01*
X826Y87D02*
X848Y87D01*
X877Y87D02*
X899Y87D01*
X236Y86D02*
X257Y86D01*
X288Y86D02*
X309Y86D01*
X526Y86D02*
X547Y86D01*
X578Y86D02*
X599Y86D01*
X826Y86D02*
X847Y86D01*
X878Y86D02*
X899Y86D01*
X236Y85D02*
X256Y85D01*
X289Y85D02*
X309Y85D01*
X526Y85D02*
X546Y85D01*
X579Y85D02*
X599Y85D01*
X826Y85D02*
X846Y85D01*
X879Y85D02*
X899Y85D01*
X236Y84D02*
X255Y84D01*
X290Y84D02*
X309Y84D01*
X526Y84D02*
X545Y84D01*
X580Y84D02*
X599Y84D01*
X826Y84D02*
X845Y84D01*
X880Y84D02*
X899Y84D01*
X236Y83D02*
X255Y83D01*
X290Y83D02*
X309Y83D01*
X526Y83D02*
X545Y83D01*
X580Y83D02*
X599Y83D01*
X826Y83D02*
X845Y83D01*
X880Y83D02*
X899Y83D01*
X236Y82D02*
X254Y82D01*
X291Y82D02*
X309Y82D01*
X526Y82D02*
X544Y82D01*
X581Y82D02*
X599Y82D01*
X826Y82D02*
X844Y82D01*
X881Y82D02*
X899Y82D01*
X236Y81D02*
X254Y81D01*
X291Y81D02*
X309Y81D01*
X526Y81D02*
X544Y81D01*
X581Y81D02*
X599Y81D01*
X826Y81D02*
X844Y81D01*
X881Y81D02*
X899Y81D01*
X236Y80D02*
X253Y80D01*
X292Y80D02*
X309Y80D01*
X526Y80D02*
X543Y80D01*
X582Y80D02*
X599Y80D01*
X826Y80D02*
X843Y80D01*
X882Y80D02*
X899Y80D01*
X236Y79D02*
X253Y79D01*
X292Y79D02*
X309Y79D01*
X526Y79D02*
X543Y79D01*
X582Y79D02*
X599Y79D01*
X826Y79D02*
X843Y79D01*
X882Y79D02*
X899Y79D01*
X236Y78D02*
X253Y78D01*
X292Y78D02*
X309Y78D01*
X526Y78D02*
X543Y78D01*
X582Y78D02*
X599Y78D01*
X826Y78D02*
X843Y78D01*
X882Y78D02*
X899Y78D01*
X236Y77D02*
X253Y77D01*
X293Y77D02*
X309Y77D01*
X526Y77D02*
X542Y77D01*
X583Y77D02*
X599Y77D01*
X826Y77D02*
X842Y77D01*
X883Y77D02*
X899Y77D01*
X236Y76D02*
X252Y76D01*
X293Y76D02*
X309Y76D01*
X526Y76D02*
X542Y76D01*
X583Y76D02*
X599Y76D01*
X826Y76D02*
X842Y76D01*
X883Y76D02*
X899Y76D01*
X236Y75D02*
X252Y75D01*
X293Y75D02*
X309Y75D01*
X526Y75D02*
X542Y75D01*
X583Y75D02*
X599Y75D01*
X826Y75D02*
X842Y75D01*
X883Y75D02*
X899Y75D01*
X236Y74D02*
X252Y74D01*
X293Y74D02*
X309Y74D01*
X526Y74D02*
X542Y74D01*
X583Y74D02*
X599Y74D01*
X826Y74D02*
X842Y74D01*
X883Y74D02*
X899Y74D01*
X236Y73D02*
X252Y73D01*
X293Y73D02*
X309Y73D01*
X526Y73D02*
X542Y73D01*
X583Y73D02*
X599Y73D01*
X826Y73D02*
X842Y73D01*
X883Y73D02*
X899Y73D01*
X236Y72D02*
X252Y72D01*
X293Y72D02*
X309Y72D01*
X526Y72D02*
X542Y72D01*
X583Y72D02*
X599Y72D01*
X826Y72D02*
X842Y72D01*
X883Y72D02*
X899Y72D01*
X236Y71D02*
X252Y71D01*
X293Y71D02*
X309Y71D01*
X526Y71D02*
X542Y71D01*
X583Y71D02*
X599Y71D01*
X826Y71D02*
X842Y71D01*
X883Y71D02*
X899Y71D01*
X236Y70D02*
X252Y70D01*
X293Y70D02*
X309Y70D01*
X526Y70D02*
X542Y70D01*
X583Y70D02*
X599Y70D01*
X826Y70D02*
X842Y70D01*
X883Y70D02*
X899Y70D01*
X236Y69D02*
X253Y69D01*
X293Y69D02*
X309Y69D01*
X526Y69D02*
X543Y69D01*
X583Y69D02*
X599Y69D01*
X826Y69D02*
X842Y69D01*
X883Y69D02*
X899Y69D01*
X236Y68D02*
X253Y68D01*
X292Y68D02*
X309Y68D01*
X526Y68D02*
X543Y68D01*
X582Y68D02*
X599Y68D01*
X826Y68D02*
X843Y68D01*
X882Y68D02*
X899Y68D01*
X236Y67D02*
X253Y67D01*
X292Y67D02*
X309Y67D01*
X526Y67D02*
X543Y67D01*
X582Y67D02*
X599Y67D01*
X826Y67D02*
X843Y67D01*
X882Y67D02*
X899Y67D01*
X236Y66D02*
X253Y66D01*
X292Y66D02*
X309Y66D01*
X526Y66D02*
X543Y66D01*
X582Y66D02*
X599Y66D01*
X826Y66D02*
X843Y66D01*
X882Y66D02*
X899Y66D01*
X236Y65D02*
X254Y65D01*
X291Y65D02*
X309Y65D01*
X526Y65D02*
X544Y65D01*
X581Y65D02*
X599Y65D01*
X826Y65D02*
X844Y65D01*
X881Y65D02*
X899Y65D01*
X236Y64D02*
X254Y64D01*
X291Y64D02*
X309Y64D01*
X526Y64D02*
X544Y64D01*
X581Y64D02*
X599Y64D01*
X826Y64D02*
X844Y64D01*
X881Y64D02*
X899Y64D01*
X236Y63D02*
X255Y63D01*
X290Y63D02*
X309Y63D01*
X526Y63D02*
X545Y63D01*
X580Y63D02*
X599Y63D01*
X826Y63D02*
X845Y63D01*
X880Y63D02*
X899Y63D01*
X236Y62D02*
X256Y62D01*
X290Y62D02*
X309Y62D01*
X526Y62D02*
X545Y62D01*
X580Y62D02*
X599Y62D01*
X826Y62D02*
X845Y62D01*
X880Y62D02*
X899Y62D01*
X236Y61D02*
X256Y61D01*
X289Y61D02*
X309Y61D01*
X526Y61D02*
X546Y61D01*
X579Y61D02*
X599Y61D01*
X826Y61D02*
X846Y61D01*
X879Y61D02*
X899Y61D01*
X236Y60D02*
X257Y60D01*
X288Y60D02*
X309Y60D01*
X526Y60D02*
X547Y60D01*
X578Y60D02*
X599Y60D01*
X826Y60D02*
X847Y60D01*
X878Y60D02*
X899Y60D01*
X236Y59D02*
X258Y59D01*
X287Y59D02*
X309Y59D01*
X526Y59D02*
X548Y59D01*
X577Y59D02*
X599Y59D01*
X826Y59D02*
X848Y59D01*
X877Y59D02*
X899Y59D01*
X236Y58D02*
X259Y58D01*
X286Y58D02*
X309Y58D01*
X526Y58D02*
X549Y58D01*
X576Y58D02*
X599Y58D01*
X826Y58D02*
X849Y58D01*
X876Y58D02*
X899Y58D01*
X236Y57D02*
X260Y57D01*
X285Y57D02*
X309Y57D01*
X526Y57D02*
X550Y57D01*
X575Y57D02*
X599Y57D01*
X826Y57D02*
X850Y57D01*
X875Y57D02*
X899Y57D01*
X236Y56D02*
X262Y56D01*
X283Y56D02*
X309Y56D01*
X526Y56D02*
X552Y56D01*
X573Y56D02*
X599Y56D01*
X826Y56D02*
X852Y56D01*
X873Y56D02*
X899Y56D01*
X236Y55D02*
X264Y55D01*
X281Y55D02*
X309Y55D01*
X526Y55D02*
X554Y55D01*
X571Y55D02*
X599Y55D01*
X826Y55D02*
X854Y55D01*
X871Y55D02*
X899Y55D01*
X236Y54D02*
X267Y54D01*
X279Y54D02*
X309Y54D01*
X526Y54D02*
X557Y54D01*
X569Y54D02*
X599Y54D01*
X826Y54D02*
X856Y54D01*
X869Y54D02*
X899Y54D01*
X236Y53D02*
X309Y53D01*
X526Y53D02*
X599Y53D01*
X826Y53D02*
X899Y53D01*
X236Y52D02*
X309Y52D01*
X526Y52D02*
X599Y52D01*
X826Y52D02*
X899Y52D01*
X236Y51D02*
X309Y51D01*
X526Y51D02*
X599Y51D01*
X826Y51D02*
X899Y51D01*
X236Y50D02*
X309Y50D01*
X526Y50D02*
X599Y50D01*
X826Y50D02*
X899Y50D01*
X236Y49D02*
X309Y49D01*
X526Y49D02*
X599Y49D01*
X826Y49D02*
X899Y49D01*
X236Y48D02*
X309Y48D01*
X526Y48D02*
X599Y48D01*
X826Y48D02*
X899Y48D01*
X236Y47D02*
X309Y47D01*
X526Y47D02*
X599Y47D01*
X826Y47D02*
X899Y47D01*
X236Y46D02*
X309Y46D01*
X526Y46D02*
X599Y46D01*
X826Y46D02*
X899Y46D01*
X236Y45D02*
X309Y45D01*
X526Y45D02*
X599Y45D01*
X826Y45D02*
X899Y45D01*
X236Y44D02*
X309Y44D01*
X526Y44D02*
X599Y44D01*
X826Y44D02*
X899Y44D01*
X236Y43D02*
X309Y43D01*
X526Y43D02*
X599Y43D01*
X826Y43D02*
X899Y43D01*
X236Y42D02*
X309Y42D01*
X526Y42D02*
X599Y42D01*
X826Y42D02*
X899Y42D01*
X236Y41D02*
X309Y41D01*
X526Y41D02*
X599Y41D01*
X826Y41D02*
X899Y41D01*
X236Y40D02*
X309Y40D01*
X526Y40D02*
X599Y40D01*
X826Y40D02*
X899Y40D01*
X236Y39D02*
X309Y39D01*
X526Y39D02*
X599Y39D01*
X826Y39D02*
X899Y39D01*
X236Y38D02*
X309Y38D01*
X526Y38D02*
X599Y38D01*
X826Y38D02*
X899Y38D01*
X236Y37D02*
X309Y37D01*
X526Y37D02*
X599Y37D01*
X826Y37D02*
X899Y37D01*
D02*
G04 End of Copper1*
M02*