; NON-PLATED HOLES START AT T1
; THROUGH (PLATED) HOLES START AT T100
M48
INCH
T100C0.040000
T101C0.038000
T102C0.032000
%
T100
X002721Y000726
X007621Y001726
X007721Y010726
X005721Y001726
X009721Y000726
X007721Y000726
X007721Y002726
X005721Y003726
X002721Y002726
X008621Y000726
X005621Y000726
X002821Y001726
X005621Y002726
X007721Y012626
X007721Y009626
X007721Y013726
T101
X009720Y013726
X009720Y011726
X009720Y005726
X009720Y004726
X000721Y012726
X009720Y007726
X000721Y007726
X009720Y006726
X000721Y013726
X009720Y012726
X000721Y006726
X000721Y003726
X000721Y009726
X000721Y004726
X000721Y010726
X009720Y008726
X009720Y010726
X009720Y014726
X009720Y003726
X009720Y009726
X000721Y014730
X000721Y008726
X000721Y011726
X000721Y005726
T102
X002721Y006726
X005721Y005726
X005721Y007726
X005721Y006726
X002721Y007726
X002721Y005726
X005721Y010726
X002721Y011726
X002721Y012726
X005721Y011726
X002721Y010726
X005721Y012726
T00
M30
