G04 MADE WITH FRITZING*
G04 WWW.FRITZING.ORG*
G04 DOUBLE SIDED*
G04 HOLES PLATED*
G04 CONTOUR ON CENTER OF CONTOUR VECTOR*
%ASAXBY*%
%FSLAX23Y23*%
%MOIN*%
%OFA0B0*%
%SFA1.0B1.0*%
%ADD10C,0.075000*%
%ADD11C,0.078000*%
%ADD12C,0.074000*%
%ADD13C,0.063000*%
%ADD14R,0.055118X0.059055*%
%ADD15C,0.024000*%
%ADD16R,0.001000X0.001000*%
%LNCOPPER0*%
G90*
G70*
G54D10*
X757Y832D03*
X381Y1266D03*
X866Y380D03*
X658Y235D03*
G54D11*
X72Y1473D03*
X72Y1373D03*
X72Y1273D03*
X72Y1173D03*
X72Y1073D03*
X72Y973D03*
X72Y873D03*
X72Y773D03*
X72Y673D03*
X72Y573D03*
X72Y473D03*
X72Y373D03*
X972Y373D03*
X972Y473D03*
X972Y573D03*
X972Y673D03*
X972Y773D03*
X972Y873D03*
X972Y973D03*
X972Y1073D03*
X972Y1173D03*
X972Y1273D03*
X972Y1373D03*
X972Y1473D03*
G54D12*
X862Y73D03*
X972Y73D03*
X772Y1263D03*
X772Y1373D03*
X772Y963D03*
X772Y1073D03*
X562Y73D03*
X572Y173D03*
X562Y273D03*
X572Y373D03*
X772Y273D03*
X762Y173D03*
X772Y73D03*
X272Y73D03*
X282Y173D03*
X272Y273D03*
G54D13*
X572Y1273D03*
X572Y1173D03*
X572Y1073D03*
X272Y1073D03*
X272Y1173D03*
X272Y1273D03*
X572Y1273D03*
X572Y1173D03*
X572Y1073D03*
X272Y1073D03*
X272Y1173D03*
X272Y1273D03*
X572Y1273D03*
X572Y1173D03*
X572Y1073D03*
X272Y1073D03*
X272Y1173D03*
X272Y1273D03*
X572Y773D03*
X572Y673D03*
X572Y573D03*
X272Y573D03*
X272Y673D03*
X272Y773D03*
X572Y773D03*
X572Y673D03*
X572Y573D03*
X272Y573D03*
X272Y673D03*
X272Y773D03*
X572Y773D03*
X572Y673D03*
X572Y573D03*
X272Y573D03*
X272Y673D03*
X272Y773D03*
G54D14*
X351Y1388D03*
X270Y1388D03*
X426Y891D03*
X345Y891D03*
X553Y1473D03*
X472Y1473D03*
G54D15*
X191Y1387D02*
X248Y1388D01*
D02*
X86Y1286D02*
X191Y1387D01*
D02*
X561Y1284D02*
X454Y1387D01*
D02*
X454Y1387D02*
X373Y1388D01*
D02*
X560Y783D02*
X448Y873D01*
D02*
X172Y473D02*
X172Y972D01*
D02*
X172Y972D02*
X86Y1059D01*
D02*
X273Y373D02*
X172Y473D01*
D02*
X272Y293D02*
X273Y373D01*
D02*
X673Y1173D02*
X872Y1173D01*
D02*
X673Y471D02*
X673Y1173D01*
D02*
X872Y1173D02*
X959Y1259D01*
D02*
X586Y387D02*
X673Y472D01*
D02*
X872Y473D02*
X872Y473D01*
D02*
X579Y284D02*
X872Y473D01*
D02*
X872Y473D02*
X872Y1073D01*
D02*
X872Y1073D02*
X959Y1159D01*
D02*
X292Y73D02*
X542Y73D01*
D02*
X72Y73D02*
X252Y73D01*
D02*
X72Y354D02*
X72Y73D01*
D02*
X172Y174D02*
X172Y373D01*
D02*
X173Y373D02*
X86Y459D01*
D02*
X262Y173D02*
X172Y174D01*
D02*
X302Y173D02*
X552Y173D01*
D02*
X575Y1473D02*
X953Y1473D01*
D02*
X494Y1451D02*
X572Y1373D01*
D02*
X572Y1373D02*
X672Y1373D01*
D02*
X672Y1373D02*
X759Y1277D01*
D02*
X86Y1386D02*
X173Y1473D01*
D02*
X173Y1473D02*
X450Y1473D01*
D02*
X85Y1159D02*
X323Y914D01*
G36*
X182Y1445D02*
X182Y1443D01*
X180Y1443D01*
X180Y1441D01*
X178Y1441D01*
X178Y1439D01*
X176Y1439D01*
X176Y1437D01*
X174Y1437D01*
X174Y1435D01*
X172Y1435D01*
X172Y1433D01*
X170Y1433D01*
X170Y1431D01*
X168Y1431D01*
X168Y1429D01*
X166Y1429D01*
X166Y1427D01*
X164Y1427D01*
X164Y1425D01*
X162Y1425D01*
X162Y1423D01*
X160Y1423D01*
X160Y1421D01*
X158Y1421D01*
X158Y1419D01*
X156Y1419D01*
X156Y1417D01*
X154Y1417D01*
X154Y1415D01*
X152Y1415D01*
X152Y1413D01*
X150Y1413D01*
X150Y1411D01*
X148Y1411D01*
X148Y1409D01*
X146Y1409D01*
X146Y1407D01*
X144Y1407D01*
X144Y1405D01*
X142Y1405D01*
X142Y1403D01*
X140Y1403D01*
X140Y1401D01*
X138Y1401D01*
X138Y1399D01*
X136Y1399D01*
X136Y1397D01*
X134Y1397D01*
X134Y1395D01*
X132Y1395D01*
X132Y1393D01*
X130Y1393D01*
X130Y1391D01*
X128Y1391D01*
X128Y1389D01*
X126Y1389D01*
X126Y1381D01*
X146Y1381D01*
X146Y1383D01*
X148Y1383D01*
X148Y1385D01*
X150Y1385D01*
X150Y1387D01*
X152Y1387D01*
X152Y1389D01*
X154Y1389D01*
X154Y1391D01*
X156Y1391D01*
X156Y1393D01*
X160Y1393D01*
X160Y1395D01*
X162Y1395D01*
X162Y1397D01*
X164Y1397D01*
X164Y1399D01*
X166Y1399D01*
X166Y1401D01*
X168Y1401D01*
X168Y1403D01*
X170Y1403D01*
X170Y1405D01*
X172Y1405D01*
X172Y1407D01*
X174Y1407D01*
X174Y1409D01*
X176Y1409D01*
X176Y1411D01*
X180Y1411D01*
X180Y1413D01*
X188Y1413D01*
X188Y1415D01*
X228Y1415D01*
X228Y1445D01*
X182Y1445D01*
G37*
D02*
G36*
X596Y1445D02*
X596Y1429D01*
X594Y1429D01*
X594Y1427D01*
X574Y1427D01*
X574Y1425D01*
X778Y1425D01*
X778Y1423D01*
X788Y1423D01*
X788Y1421D01*
X794Y1421D01*
X794Y1419D01*
X796Y1419D01*
X796Y1417D01*
X800Y1417D01*
X800Y1415D01*
X804Y1415D01*
X804Y1413D01*
X806Y1413D01*
X806Y1411D01*
X808Y1411D01*
X808Y1409D01*
X810Y1409D01*
X810Y1407D01*
X812Y1407D01*
X812Y1405D01*
X814Y1405D01*
X814Y1401D01*
X816Y1401D01*
X816Y1399D01*
X818Y1399D01*
X818Y1395D01*
X820Y1395D01*
X820Y1391D01*
X822Y1391D01*
X822Y1383D01*
X824Y1383D01*
X824Y1363D01*
X822Y1363D01*
X822Y1355D01*
X820Y1355D01*
X820Y1351D01*
X818Y1351D01*
X818Y1347D01*
X816Y1347D01*
X816Y1343D01*
X814Y1343D01*
X814Y1341D01*
X812Y1341D01*
X812Y1339D01*
X810Y1339D01*
X810Y1335D01*
X806Y1335D01*
X806Y1315D01*
X824Y1315D01*
X824Y1201D01*
X862Y1201D01*
X862Y1203D01*
X864Y1203D01*
X864Y1205D01*
X866Y1205D01*
X866Y1207D01*
X868Y1207D01*
X868Y1209D01*
X870Y1209D01*
X870Y1211D01*
X872Y1211D01*
X872Y1213D01*
X874Y1213D01*
X874Y1215D01*
X876Y1215D01*
X876Y1217D01*
X878Y1217D01*
X878Y1219D01*
X880Y1219D01*
X880Y1221D01*
X884Y1221D01*
X884Y1223D01*
X886Y1223D01*
X886Y1225D01*
X888Y1225D01*
X888Y1227D01*
X890Y1227D01*
X890Y1229D01*
X892Y1229D01*
X892Y1231D01*
X894Y1231D01*
X894Y1233D01*
X896Y1233D01*
X896Y1235D01*
X898Y1235D01*
X898Y1237D01*
X900Y1237D01*
X900Y1239D01*
X902Y1239D01*
X902Y1241D01*
X904Y1241D01*
X904Y1243D01*
X906Y1243D01*
X906Y1245D01*
X908Y1245D01*
X908Y1247D01*
X910Y1247D01*
X910Y1249D01*
X912Y1249D01*
X912Y1251D01*
X914Y1251D01*
X914Y1253D01*
X916Y1253D01*
X916Y1255D01*
X918Y1255D01*
X918Y1281D01*
X920Y1281D01*
X920Y1289D01*
X922Y1289D01*
X922Y1295D01*
X924Y1295D01*
X924Y1299D01*
X926Y1299D01*
X926Y1301D01*
X928Y1301D01*
X928Y1305D01*
X930Y1305D01*
X930Y1307D01*
X932Y1307D01*
X932Y1309D01*
X934Y1309D01*
X934Y1311D01*
X936Y1311D01*
X936Y1333D01*
X934Y1333D01*
X934Y1335D01*
X932Y1335D01*
X932Y1337D01*
X930Y1337D01*
X930Y1341D01*
X928Y1341D01*
X928Y1343D01*
X926Y1343D01*
X926Y1347D01*
X924Y1347D01*
X924Y1351D01*
X922Y1351D01*
X922Y1355D01*
X920Y1355D01*
X920Y1363D01*
X918Y1363D01*
X918Y1381D01*
X920Y1381D01*
X920Y1389D01*
X922Y1389D01*
X922Y1395D01*
X924Y1395D01*
X924Y1399D01*
X926Y1399D01*
X926Y1401D01*
X928Y1401D01*
X928Y1405D01*
X930Y1405D01*
X930Y1407D01*
X932Y1407D01*
X932Y1409D01*
X934Y1409D01*
X934Y1411D01*
X936Y1411D01*
X936Y1433D01*
X934Y1433D01*
X934Y1435D01*
X932Y1435D01*
X932Y1437D01*
X930Y1437D01*
X930Y1441D01*
X928Y1441D01*
X928Y1443D01*
X926Y1443D01*
X926Y1445D01*
X596Y1445D01*
G37*
D02*
G36*
X574Y1425D02*
X574Y1407D01*
X576Y1407D01*
X576Y1405D01*
X578Y1405D01*
X578Y1403D01*
X580Y1403D01*
X580Y1401D01*
X582Y1401D01*
X582Y1399D01*
X680Y1399D01*
X680Y1397D01*
X686Y1397D01*
X686Y1395D01*
X688Y1395D01*
X688Y1393D01*
X690Y1393D01*
X690Y1391D01*
X692Y1391D01*
X692Y1389D01*
X694Y1389D01*
X694Y1387D01*
X696Y1387D01*
X696Y1385D01*
X698Y1385D01*
X698Y1383D01*
X700Y1383D01*
X700Y1381D01*
X722Y1381D01*
X722Y1389D01*
X724Y1389D01*
X724Y1395D01*
X726Y1395D01*
X726Y1397D01*
X728Y1397D01*
X728Y1401D01*
X730Y1401D01*
X730Y1403D01*
X732Y1403D01*
X732Y1407D01*
X734Y1407D01*
X734Y1409D01*
X736Y1409D01*
X736Y1411D01*
X738Y1411D01*
X738Y1413D01*
X742Y1413D01*
X742Y1415D01*
X744Y1415D01*
X744Y1417D01*
X748Y1417D01*
X748Y1419D01*
X752Y1419D01*
X752Y1421D01*
X756Y1421D01*
X756Y1423D01*
X766Y1423D01*
X766Y1425D01*
X574Y1425D01*
G37*
D02*
G36*
X898Y1161D02*
X898Y1159D01*
X896Y1159D01*
X896Y1157D01*
X894Y1157D01*
X894Y1155D01*
X892Y1155D01*
X892Y1153D01*
X888Y1153D01*
X888Y1151D01*
X886Y1151D01*
X886Y1149D01*
X882Y1149D01*
X882Y1147D01*
X700Y1147D01*
X700Y1125D01*
X778Y1125D01*
X778Y1123D01*
X788Y1123D01*
X788Y1121D01*
X794Y1121D01*
X794Y1119D01*
X796Y1119D01*
X796Y1117D01*
X800Y1117D01*
X800Y1115D01*
X804Y1115D01*
X804Y1113D01*
X806Y1113D01*
X806Y1111D01*
X808Y1111D01*
X808Y1109D01*
X810Y1109D01*
X810Y1107D01*
X812Y1107D01*
X812Y1105D01*
X814Y1105D01*
X814Y1101D01*
X816Y1101D01*
X816Y1099D01*
X818Y1099D01*
X818Y1095D01*
X820Y1095D01*
X820Y1091D01*
X822Y1091D01*
X822Y1083D01*
X824Y1083D01*
X824Y1063D01*
X822Y1063D01*
X822Y1055D01*
X820Y1055D01*
X820Y1051D01*
X818Y1051D01*
X818Y1047D01*
X816Y1047D01*
X816Y1043D01*
X814Y1043D01*
X814Y1041D01*
X812Y1041D01*
X812Y1039D01*
X810Y1039D01*
X810Y1035D01*
X806Y1035D01*
X806Y1015D01*
X824Y1015D01*
X824Y911D01*
X846Y911D01*
X846Y1081D01*
X848Y1081D01*
X848Y1087D01*
X850Y1087D01*
X850Y1089D01*
X852Y1089D01*
X852Y1091D01*
X854Y1091D01*
X854Y1093D01*
X856Y1093D01*
X856Y1095D01*
X858Y1095D01*
X858Y1097D01*
X860Y1097D01*
X860Y1099D01*
X862Y1099D01*
X862Y1101D01*
X864Y1101D01*
X864Y1103D01*
X866Y1103D01*
X866Y1105D01*
X868Y1105D01*
X868Y1107D01*
X870Y1107D01*
X870Y1109D01*
X872Y1109D01*
X872Y1111D01*
X874Y1111D01*
X874Y1113D01*
X876Y1113D01*
X876Y1115D01*
X878Y1115D01*
X878Y1117D01*
X880Y1117D01*
X880Y1119D01*
X882Y1119D01*
X882Y1121D01*
X884Y1121D01*
X884Y1123D01*
X886Y1123D01*
X886Y1125D01*
X888Y1125D01*
X888Y1127D01*
X890Y1127D01*
X890Y1129D01*
X892Y1129D01*
X892Y1131D01*
X894Y1131D01*
X894Y1133D01*
X896Y1133D01*
X896Y1135D01*
X898Y1135D01*
X898Y1137D01*
X900Y1137D01*
X900Y1139D01*
X902Y1139D01*
X902Y1141D01*
X904Y1141D01*
X904Y1143D01*
X906Y1143D01*
X906Y1145D01*
X908Y1145D01*
X908Y1147D01*
X910Y1147D01*
X910Y1149D01*
X912Y1149D01*
X912Y1151D01*
X914Y1151D01*
X914Y1153D01*
X916Y1153D01*
X916Y1155D01*
X918Y1155D01*
X918Y1161D01*
X898Y1161D01*
G37*
D02*
G36*
X700Y1125D02*
X700Y911D01*
X720Y911D01*
X720Y1015D01*
X738Y1015D01*
X738Y1035D01*
X736Y1035D01*
X736Y1037D01*
X734Y1037D01*
X734Y1039D01*
X732Y1039D01*
X732Y1041D01*
X730Y1041D01*
X730Y1043D01*
X728Y1043D01*
X728Y1047D01*
X726Y1047D01*
X726Y1051D01*
X724Y1051D01*
X724Y1055D01*
X722Y1055D01*
X722Y1065D01*
X720Y1065D01*
X720Y1081D01*
X722Y1081D01*
X722Y1089D01*
X724Y1089D01*
X724Y1095D01*
X726Y1095D01*
X726Y1097D01*
X728Y1097D01*
X728Y1101D01*
X730Y1101D01*
X730Y1103D01*
X732Y1103D01*
X732Y1107D01*
X734Y1107D01*
X734Y1109D01*
X736Y1109D01*
X736Y1111D01*
X738Y1111D01*
X738Y1113D01*
X742Y1113D01*
X742Y1115D01*
X744Y1115D01*
X744Y1117D01*
X748Y1117D01*
X748Y1119D01*
X752Y1119D01*
X752Y1121D01*
X756Y1121D01*
X756Y1123D01*
X766Y1123D01*
X766Y1125D01*
X700Y1125D01*
G37*
D02*
G36*
X700Y911D02*
X700Y909D01*
X846Y909D01*
X846Y911D01*
X700Y911D01*
G37*
D02*
G36*
X700Y911D02*
X700Y909D01*
X846Y909D01*
X846Y911D01*
X700Y911D01*
G37*
D02*
G36*
X700Y909D02*
X700Y465D01*
X698Y465D01*
X698Y459D01*
X696Y459D01*
X696Y457D01*
X694Y457D01*
X694Y453D01*
X692Y453D01*
X692Y451D01*
X690Y451D01*
X690Y449D01*
X688Y449D01*
X688Y447D01*
X686Y447D01*
X686Y445D01*
X684Y445D01*
X684Y443D01*
X682Y443D01*
X682Y441D01*
X680Y441D01*
X680Y439D01*
X678Y439D01*
X678Y437D01*
X676Y437D01*
X676Y435D01*
X674Y435D01*
X674Y433D01*
X672Y433D01*
X672Y431D01*
X670Y431D01*
X670Y429D01*
X668Y429D01*
X668Y427D01*
X666Y427D01*
X666Y425D01*
X664Y425D01*
X664Y423D01*
X662Y423D01*
X662Y421D01*
X658Y421D01*
X658Y419D01*
X656Y419D01*
X656Y417D01*
X654Y417D01*
X654Y415D01*
X652Y415D01*
X652Y413D01*
X650Y413D01*
X650Y411D01*
X648Y411D01*
X648Y409D01*
X646Y409D01*
X646Y407D01*
X644Y407D01*
X644Y405D01*
X642Y405D01*
X642Y403D01*
X640Y403D01*
X640Y401D01*
X638Y401D01*
X638Y399D01*
X636Y399D01*
X636Y397D01*
X634Y397D01*
X634Y395D01*
X632Y395D01*
X632Y393D01*
X630Y393D01*
X630Y391D01*
X628Y391D01*
X628Y389D01*
X626Y389D01*
X626Y387D01*
X624Y387D01*
X624Y357D01*
X644Y357D01*
X644Y359D01*
X648Y359D01*
X648Y361D01*
X650Y361D01*
X650Y363D01*
X654Y363D01*
X654Y365D01*
X656Y365D01*
X656Y367D01*
X660Y367D01*
X660Y369D01*
X664Y369D01*
X664Y371D01*
X666Y371D01*
X666Y373D01*
X670Y373D01*
X670Y375D01*
X672Y375D01*
X672Y377D01*
X676Y377D01*
X676Y379D01*
X678Y379D01*
X678Y381D01*
X682Y381D01*
X682Y383D01*
X684Y383D01*
X684Y385D01*
X688Y385D01*
X688Y387D01*
X690Y387D01*
X690Y389D01*
X694Y389D01*
X694Y391D01*
X698Y391D01*
X698Y393D01*
X700Y393D01*
X700Y395D01*
X704Y395D01*
X704Y397D01*
X706Y397D01*
X706Y399D01*
X710Y399D01*
X710Y401D01*
X712Y401D01*
X712Y403D01*
X716Y403D01*
X716Y405D01*
X718Y405D01*
X718Y407D01*
X722Y407D01*
X722Y409D01*
X724Y409D01*
X724Y411D01*
X728Y411D01*
X728Y413D01*
X732Y413D01*
X732Y415D01*
X734Y415D01*
X734Y417D01*
X738Y417D01*
X738Y419D01*
X740Y419D01*
X740Y421D01*
X744Y421D01*
X744Y423D01*
X746Y423D01*
X746Y425D01*
X750Y425D01*
X750Y427D01*
X752Y427D01*
X752Y429D01*
X756Y429D01*
X756Y431D01*
X758Y431D01*
X758Y433D01*
X762Y433D01*
X762Y435D01*
X766Y435D01*
X766Y437D01*
X768Y437D01*
X768Y439D01*
X772Y439D01*
X772Y441D01*
X774Y441D01*
X774Y443D01*
X778Y443D01*
X778Y445D01*
X780Y445D01*
X780Y447D01*
X784Y447D01*
X784Y449D01*
X786Y449D01*
X786Y451D01*
X790Y451D01*
X790Y453D01*
X792Y453D01*
X792Y455D01*
X796Y455D01*
X796Y457D01*
X800Y457D01*
X800Y459D01*
X802Y459D01*
X802Y461D01*
X806Y461D01*
X806Y463D01*
X808Y463D01*
X808Y465D01*
X812Y465D01*
X812Y467D01*
X814Y467D01*
X814Y469D01*
X818Y469D01*
X818Y471D01*
X820Y471D01*
X820Y473D01*
X824Y473D01*
X824Y475D01*
X826Y475D01*
X826Y477D01*
X830Y477D01*
X830Y479D01*
X834Y479D01*
X834Y481D01*
X836Y481D01*
X836Y483D01*
X840Y483D01*
X840Y485D01*
X842Y485D01*
X842Y487D01*
X846Y487D01*
X846Y909D01*
X700Y909D01*
G37*
D02*
G36*
X900Y1063D02*
X900Y981D01*
X920Y981D01*
X920Y989D01*
X922Y989D01*
X922Y995D01*
X924Y995D01*
X924Y999D01*
X926Y999D01*
X926Y1001D01*
X928Y1001D01*
X928Y1005D01*
X930Y1005D01*
X930Y1007D01*
X932Y1007D01*
X932Y1009D01*
X934Y1009D01*
X934Y1011D01*
X936Y1011D01*
X936Y1033D01*
X934Y1033D01*
X934Y1035D01*
X932Y1035D01*
X932Y1037D01*
X930Y1037D01*
X930Y1041D01*
X928Y1041D01*
X928Y1043D01*
X926Y1043D01*
X926Y1047D01*
X924Y1047D01*
X924Y1051D01*
X922Y1051D01*
X922Y1055D01*
X920Y1055D01*
X920Y1063D01*
X900Y1063D01*
G37*
D02*
G36*
X470Y1417D02*
X470Y1407D01*
X474Y1407D01*
X474Y1405D01*
X476Y1405D01*
X476Y1403D01*
X478Y1403D01*
X478Y1401D01*
X480Y1401D01*
X480Y1399D01*
X482Y1399D01*
X482Y1397D01*
X484Y1397D01*
X484Y1395D01*
X486Y1395D01*
X486Y1393D01*
X488Y1393D01*
X488Y1391D01*
X490Y1391D01*
X490Y1389D01*
X492Y1389D01*
X492Y1387D01*
X494Y1387D01*
X494Y1385D01*
X496Y1385D01*
X496Y1383D01*
X498Y1383D01*
X498Y1381D01*
X500Y1381D01*
X500Y1379D01*
X502Y1379D01*
X502Y1377D01*
X504Y1377D01*
X504Y1375D01*
X506Y1375D01*
X506Y1373D01*
X508Y1373D01*
X508Y1371D01*
X510Y1371D01*
X510Y1369D01*
X512Y1369D01*
X512Y1367D01*
X514Y1367D01*
X514Y1365D01*
X516Y1365D01*
X516Y1363D01*
X518Y1363D01*
X518Y1361D01*
X520Y1361D01*
X520Y1359D01*
X522Y1359D01*
X522Y1357D01*
X524Y1357D01*
X524Y1355D01*
X526Y1355D01*
X526Y1353D01*
X528Y1353D01*
X528Y1351D01*
X530Y1351D01*
X530Y1349D01*
X534Y1349D01*
X534Y1347D01*
X536Y1347D01*
X536Y1345D01*
X538Y1345D01*
X538Y1343D01*
X540Y1343D01*
X540Y1341D01*
X542Y1341D01*
X542Y1339D01*
X544Y1339D01*
X544Y1337D01*
X546Y1337D01*
X546Y1335D01*
X548Y1335D01*
X548Y1333D01*
X550Y1333D01*
X550Y1331D01*
X552Y1331D01*
X552Y1329D01*
X554Y1329D01*
X554Y1327D01*
X556Y1327D01*
X556Y1325D01*
X558Y1325D01*
X558Y1323D01*
X560Y1323D01*
X560Y1321D01*
X562Y1321D01*
X562Y1319D01*
X580Y1319D01*
X580Y1317D01*
X588Y1317D01*
X588Y1315D01*
X592Y1315D01*
X592Y1313D01*
X596Y1313D01*
X596Y1311D01*
X600Y1311D01*
X600Y1309D01*
X602Y1309D01*
X602Y1307D01*
X604Y1307D01*
X604Y1305D01*
X606Y1305D01*
X606Y1303D01*
X608Y1303D01*
X608Y1301D01*
X610Y1301D01*
X610Y1297D01*
X612Y1297D01*
X612Y1295D01*
X614Y1295D01*
X614Y1291D01*
X616Y1291D01*
X616Y1283D01*
X618Y1283D01*
X618Y1261D01*
X616Y1261D01*
X616Y1255D01*
X614Y1255D01*
X614Y1251D01*
X612Y1251D01*
X612Y1247D01*
X610Y1247D01*
X610Y1245D01*
X608Y1245D01*
X608Y1243D01*
X606Y1243D01*
X606Y1239D01*
X604Y1239D01*
X604Y1237D01*
X600Y1237D01*
X600Y1235D01*
X598Y1235D01*
X598Y1233D01*
X594Y1233D01*
X594Y1213D01*
X596Y1213D01*
X596Y1211D01*
X600Y1211D01*
X600Y1209D01*
X602Y1209D01*
X602Y1207D01*
X604Y1207D01*
X604Y1205D01*
X606Y1205D01*
X606Y1203D01*
X608Y1203D01*
X608Y1201D01*
X610Y1201D01*
X610Y1197D01*
X612Y1197D01*
X612Y1195D01*
X614Y1195D01*
X614Y1191D01*
X616Y1191D01*
X616Y1183D01*
X618Y1183D01*
X618Y1161D01*
X616Y1161D01*
X616Y1155D01*
X614Y1155D01*
X614Y1151D01*
X612Y1151D01*
X612Y1147D01*
X610Y1147D01*
X610Y1145D01*
X608Y1145D01*
X608Y1143D01*
X606Y1143D01*
X606Y1139D01*
X604Y1139D01*
X604Y1137D01*
X600Y1137D01*
X600Y1135D01*
X598Y1135D01*
X598Y1133D01*
X594Y1133D01*
X594Y1113D01*
X596Y1113D01*
X596Y1111D01*
X600Y1111D01*
X600Y1109D01*
X602Y1109D01*
X602Y1107D01*
X604Y1107D01*
X604Y1105D01*
X606Y1105D01*
X606Y1103D01*
X608Y1103D01*
X608Y1101D01*
X610Y1101D01*
X610Y1097D01*
X612Y1097D01*
X612Y1095D01*
X614Y1095D01*
X614Y1091D01*
X616Y1091D01*
X616Y1083D01*
X618Y1083D01*
X618Y1061D01*
X616Y1061D01*
X616Y1055D01*
X614Y1055D01*
X614Y1051D01*
X612Y1051D01*
X612Y1047D01*
X610Y1047D01*
X610Y1045D01*
X608Y1045D01*
X608Y1043D01*
X606Y1043D01*
X606Y1039D01*
X604Y1039D01*
X604Y1037D01*
X600Y1037D01*
X600Y1035D01*
X598Y1035D01*
X598Y1033D01*
X594Y1033D01*
X594Y1031D01*
X590Y1031D01*
X590Y1029D01*
X584Y1029D01*
X584Y1027D01*
X574Y1027D01*
X574Y1025D01*
X646Y1025D01*
X646Y1179D01*
X648Y1179D01*
X648Y1185D01*
X650Y1185D01*
X650Y1189D01*
X652Y1189D01*
X652Y1191D01*
X654Y1191D01*
X654Y1193D01*
X656Y1193D01*
X656Y1195D01*
X660Y1195D01*
X660Y1197D01*
X662Y1197D01*
X662Y1199D01*
X672Y1199D01*
X672Y1201D01*
X720Y1201D01*
X720Y1281D01*
X718Y1281D01*
X718Y1283D01*
X716Y1283D01*
X716Y1285D01*
X714Y1285D01*
X714Y1287D01*
X712Y1287D01*
X712Y1289D01*
X710Y1289D01*
X710Y1291D01*
X708Y1291D01*
X708Y1293D01*
X706Y1293D01*
X706Y1297D01*
X704Y1297D01*
X704Y1299D01*
X702Y1299D01*
X702Y1301D01*
X700Y1301D01*
X700Y1303D01*
X698Y1303D01*
X698Y1305D01*
X696Y1305D01*
X696Y1307D01*
X694Y1307D01*
X694Y1309D01*
X692Y1309D01*
X692Y1311D01*
X690Y1311D01*
X690Y1313D01*
X688Y1313D01*
X688Y1315D01*
X686Y1315D01*
X686Y1319D01*
X684Y1319D01*
X684Y1321D01*
X682Y1321D01*
X682Y1323D01*
X680Y1323D01*
X680Y1325D01*
X678Y1325D01*
X678Y1327D01*
X676Y1327D01*
X676Y1329D01*
X674Y1329D01*
X674Y1331D01*
X672Y1331D01*
X672Y1333D01*
X670Y1333D01*
X670Y1335D01*
X668Y1335D01*
X668Y1337D01*
X666Y1337D01*
X666Y1341D01*
X664Y1341D01*
X664Y1343D01*
X662Y1343D01*
X662Y1345D01*
X568Y1345D01*
X568Y1347D01*
X562Y1347D01*
X562Y1349D01*
X558Y1349D01*
X558Y1351D01*
X554Y1351D01*
X554Y1353D01*
X552Y1353D01*
X552Y1355D01*
X550Y1355D01*
X550Y1357D01*
X548Y1357D01*
X548Y1359D01*
X546Y1359D01*
X546Y1361D01*
X544Y1361D01*
X544Y1363D01*
X542Y1363D01*
X542Y1365D01*
X540Y1365D01*
X540Y1367D01*
X538Y1367D01*
X538Y1369D01*
X536Y1369D01*
X536Y1371D01*
X534Y1371D01*
X534Y1373D01*
X532Y1373D01*
X532Y1375D01*
X530Y1375D01*
X530Y1377D01*
X528Y1377D01*
X528Y1379D01*
X526Y1379D01*
X526Y1381D01*
X524Y1381D01*
X524Y1383D01*
X522Y1383D01*
X522Y1385D01*
X520Y1385D01*
X520Y1387D01*
X518Y1387D01*
X518Y1389D01*
X516Y1389D01*
X516Y1391D01*
X514Y1391D01*
X514Y1393D01*
X512Y1393D01*
X512Y1395D01*
X510Y1395D01*
X510Y1397D01*
X508Y1397D01*
X508Y1399D01*
X506Y1399D01*
X506Y1401D01*
X504Y1401D01*
X504Y1403D01*
X502Y1403D01*
X502Y1405D01*
X500Y1405D01*
X500Y1407D01*
X498Y1407D01*
X498Y1409D01*
X496Y1409D01*
X496Y1411D01*
X494Y1411D01*
X494Y1413D01*
X492Y1413D01*
X492Y1415D01*
X490Y1415D01*
X490Y1417D01*
X470Y1417D01*
G37*
D02*
G36*
X202Y1361D02*
X202Y1359D01*
X200Y1359D01*
X200Y1357D01*
X198Y1357D01*
X198Y1355D01*
X196Y1355D01*
X196Y1353D01*
X194Y1353D01*
X194Y1351D01*
X192Y1351D01*
X192Y1349D01*
X190Y1349D01*
X190Y1347D01*
X188Y1347D01*
X188Y1345D01*
X186Y1345D01*
X186Y1343D01*
X228Y1343D01*
X228Y1361D01*
X202Y1361D01*
G37*
D02*
G36*
X394Y1361D02*
X394Y1343D01*
X460Y1343D01*
X460Y1345D01*
X458Y1345D01*
X458Y1347D01*
X456Y1347D01*
X456Y1349D01*
X454Y1349D01*
X454Y1351D01*
X452Y1351D01*
X452Y1353D01*
X450Y1353D01*
X450Y1355D01*
X448Y1355D01*
X448Y1357D01*
X446Y1357D01*
X446Y1359D01*
X444Y1359D01*
X444Y1361D01*
X394Y1361D01*
G37*
D02*
G36*
X182Y1343D02*
X182Y1341D01*
X462Y1341D01*
X462Y1343D01*
X182Y1343D01*
G37*
D02*
G36*
X182Y1343D02*
X182Y1341D01*
X462Y1341D01*
X462Y1343D01*
X182Y1343D01*
G37*
D02*
G36*
X180Y1341D02*
X180Y1339D01*
X178Y1339D01*
X178Y1337D01*
X176Y1337D01*
X176Y1335D01*
X174Y1335D01*
X174Y1333D01*
X172Y1333D01*
X172Y1331D01*
X170Y1331D01*
X170Y1329D01*
X168Y1329D01*
X168Y1327D01*
X166Y1327D01*
X166Y1325D01*
X164Y1325D01*
X164Y1323D01*
X162Y1323D01*
X162Y1321D01*
X160Y1321D01*
X160Y1319D01*
X280Y1319D01*
X280Y1317D01*
X288Y1317D01*
X288Y1315D01*
X292Y1315D01*
X292Y1313D01*
X296Y1313D01*
X296Y1311D01*
X300Y1311D01*
X300Y1309D01*
X302Y1309D01*
X302Y1307D01*
X304Y1307D01*
X304Y1305D01*
X306Y1305D01*
X306Y1303D01*
X308Y1303D01*
X308Y1301D01*
X310Y1301D01*
X310Y1297D01*
X312Y1297D01*
X312Y1295D01*
X314Y1295D01*
X314Y1291D01*
X316Y1291D01*
X316Y1283D01*
X318Y1283D01*
X318Y1261D01*
X316Y1261D01*
X316Y1255D01*
X314Y1255D01*
X314Y1251D01*
X312Y1251D01*
X312Y1247D01*
X310Y1247D01*
X310Y1245D01*
X308Y1245D01*
X308Y1243D01*
X306Y1243D01*
X306Y1239D01*
X304Y1239D01*
X304Y1237D01*
X300Y1237D01*
X300Y1235D01*
X298Y1235D01*
X298Y1233D01*
X294Y1233D01*
X294Y1213D01*
X296Y1213D01*
X296Y1211D01*
X300Y1211D01*
X300Y1209D01*
X302Y1209D01*
X302Y1207D01*
X304Y1207D01*
X304Y1205D01*
X306Y1205D01*
X306Y1203D01*
X308Y1203D01*
X308Y1201D01*
X310Y1201D01*
X310Y1197D01*
X312Y1197D01*
X312Y1195D01*
X314Y1195D01*
X314Y1191D01*
X316Y1191D01*
X316Y1183D01*
X318Y1183D01*
X318Y1161D01*
X316Y1161D01*
X316Y1155D01*
X314Y1155D01*
X314Y1151D01*
X312Y1151D01*
X312Y1147D01*
X310Y1147D01*
X310Y1145D01*
X308Y1145D01*
X308Y1143D01*
X306Y1143D01*
X306Y1139D01*
X304Y1139D01*
X304Y1137D01*
X300Y1137D01*
X300Y1135D01*
X298Y1135D01*
X298Y1133D01*
X294Y1133D01*
X294Y1113D01*
X296Y1113D01*
X296Y1111D01*
X300Y1111D01*
X300Y1109D01*
X302Y1109D01*
X302Y1107D01*
X304Y1107D01*
X304Y1105D01*
X306Y1105D01*
X306Y1103D01*
X308Y1103D01*
X308Y1101D01*
X310Y1101D01*
X310Y1097D01*
X312Y1097D01*
X312Y1095D01*
X314Y1095D01*
X314Y1091D01*
X316Y1091D01*
X316Y1083D01*
X318Y1083D01*
X318Y1061D01*
X316Y1061D01*
X316Y1055D01*
X314Y1055D01*
X314Y1051D01*
X312Y1051D01*
X312Y1047D01*
X310Y1047D01*
X310Y1045D01*
X308Y1045D01*
X308Y1043D01*
X306Y1043D01*
X306Y1039D01*
X304Y1039D01*
X304Y1037D01*
X300Y1037D01*
X300Y1035D01*
X298Y1035D01*
X298Y1033D01*
X294Y1033D01*
X294Y1031D01*
X290Y1031D01*
X290Y1029D01*
X284Y1029D01*
X284Y1027D01*
X274Y1027D01*
X274Y1025D01*
X572Y1025D01*
X572Y1027D01*
X560Y1027D01*
X560Y1029D01*
X554Y1029D01*
X554Y1031D01*
X550Y1031D01*
X550Y1033D01*
X546Y1033D01*
X546Y1035D01*
X544Y1035D01*
X544Y1037D01*
X542Y1037D01*
X542Y1039D01*
X538Y1039D01*
X538Y1043D01*
X536Y1043D01*
X536Y1045D01*
X534Y1045D01*
X534Y1047D01*
X532Y1047D01*
X532Y1051D01*
X530Y1051D01*
X530Y1055D01*
X528Y1055D01*
X528Y1063D01*
X526Y1063D01*
X526Y1083D01*
X528Y1083D01*
X528Y1089D01*
X530Y1089D01*
X530Y1093D01*
X532Y1093D01*
X532Y1097D01*
X534Y1097D01*
X534Y1101D01*
X536Y1101D01*
X536Y1103D01*
X538Y1103D01*
X538Y1105D01*
X540Y1105D01*
X540Y1107D01*
X542Y1107D01*
X542Y1109D01*
X546Y1109D01*
X546Y1111D01*
X548Y1111D01*
X548Y1113D01*
X550Y1113D01*
X550Y1133D01*
X546Y1133D01*
X546Y1135D01*
X544Y1135D01*
X544Y1137D01*
X542Y1137D01*
X542Y1139D01*
X538Y1139D01*
X538Y1143D01*
X536Y1143D01*
X536Y1145D01*
X534Y1145D01*
X534Y1147D01*
X532Y1147D01*
X532Y1151D01*
X530Y1151D01*
X530Y1155D01*
X528Y1155D01*
X528Y1163D01*
X526Y1163D01*
X526Y1183D01*
X528Y1183D01*
X528Y1189D01*
X530Y1189D01*
X530Y1193D01*
X532Y1193D01*
X532Y1197D01*
X534Y1197D01*
X534Y1201D01*
X536Y1201D01*
X536Y1203D01*
X538Y1203D01*
X538Y1205D01*
X540Y1205D01*
X540Y1207D01*
X542Y1207D01*
X542Y1209D01*
X546Y1209D01*
X546Y1211D01*
X548Y1211D01*
X548Y1213D01*
X550Y1213D01*
X550Y1233D01*
X546Y1233D01*
X546Y1235D01*
X544Y1235D01*
X544Y1237D01*
X542Y1237D01*
X542Y1239D01*
X538Y1239D01*
X538Y1243D01*
X536Y1243D01*
X536Y1245D01*
X534Y1245D01*
X534Y1247D01*
X532Y1247D01*
X532Y1251D01*
X530Y1251D01*
X530Y1255D01*
X528Y1255D01*
X528Y1263D01*
X526Y1263D01*
X526Y1281D01*
X524Y1281D01*
X524Y1283D01*
X522Y1283D01*
X522Y1285D01*
X520Y1285D01*
X520Y1287D01*
X518Y1287D01*
X518Y1289D01*
X516Y1289D01*
X516Y1291D01*
X514Y1291D01*
X514Y1293D01*
X512Y1293D01*
X512Y1295D01*
X510Y1295D01*
X510Y1297D01*
X506Y1297D01*
X506Y1299D01*
X504Y1299D01*
X504Y1301D01*
X502Y1301D01*
X502Y1303D01*
X500Y1303D01*
X500Y1305D01*
X498Y1305D01*
X498Y1307D01*
X496Y1307D01*
X496Y1309D01*
X494Y1309D01*
X494Y1311D01*
X492Y1311D01*
X492Y1313D01*
X490Y1313D01*
X490Y1315D01*
X488Y1315D01*
X488Y1317D01*
X486Y1317D01*
X486Y1319D01*
X484Y1319D01*
X484Y1321D01*
X482Y1321D01*
X482Y1323D01*
X480Y1323D01*
X480Y1325D01*
X478Y1325D01*
X478Y1327D01*
X476Y1327D01*
X476Y1329D01*
X474Y1329D01*
X474Y1331D01*
X472Y1331D01*
X472Y1333D01*
X470Y1333D01*
X470Y1335D01*
X468Y1335D01*
X468Y1337D01*
X466Y1337D01*
X466Y1339D01*
X464Y1339D01*
X464Y1341D01*
X180Y1341D01*
G37*
D02*
G36*
X158Y1319D02*
X158Y1317D01*
X156Y1317D01*
X156Y1315D01*
X154Y1315D01*
X154Y1313D01*
X152Y1313D01*
X152Y1311D01*
X150Y1311D01*
X150Y1309D01*
X148Y1309D01*
X148Y1307D01*
X146Y1307D01*
X146Y1305D01*
X144Y1305D01*
X144Y1303D01*
X142Y1303D01*
X142Y1301D01*
X140Y1301D01*
X140Y1299D01*
X138Y1299D01*
X138Y1297D01*
X136Y1297D01*
X136Y1295D01*
X134Y1295D01*
X134Y1293D01*
X132Y1293D01*
X132Y1291D01*
X130Y1291D01*
X130Y1289D01*
X128Y1289D01*
X128Y1287D01*
X126Y1287D01*
X126Y1261D01*
X124Y1261D01*
X124Y1255D01*
X122Y1255D01*
X122Y1249D01*
X120Y1249D01*
X120Y1247D01*
X118Y1247D01*
X118Y1243D01*
X116Y1243D01*
X116Y1241D01*
X114Y1241D01*
X114Y1237D01*
X112Y1237D01*
X112Y1235D01*
X110Y1235D01*
X110Y1233D01*
X108Y1233D01*
X108Y1211D01*
X110Y1211D01*
X110Y1209D01*
X112Y1209D01*
X112Y1207D01*
X114Y1207D01*
X114Y1205D01*
X116Y1205D01*
X116Y1203D01*
X118Y1203D01*
X118Y1199D01*
X120Y1199D01*
X120Y1195D01*
X122Y1195D01*
X122Y1191D01*
X124Y1191D01*
X124Y1183D01*
X126Y1183D01*
X126Y1155D01*
X128Y1155D01*
X128Y1153D01*
X130Y1153D01*
X130Y1151D01*
X132Y1151D01*
X132Y1149D01*
X134Y1149D01*
X134Y1147D01*
X136Y1147D01*
X136Y1145D01*
X138Y1145D01*
X138Y1143D01*
X140Y1143D01*
X140Y1141D01*
X142Y1141D01*
X142Y1139D01*
X144Y1139D01*
X144Y1137D01*
X146Y1137D01*
X146Y1135D01*
X148Y1135D01*
X148Y1131D01*
X150Y1131D01*
X150Y1129D01*
X152Y1129D01*
X152Y1127D01*
X154Y1127D01*
X154Y1125D01*
X156Y1125D01*
X156Y1123D01*
X158Y1123D01*
X158Y1121D01*
X160Y1121D01*
X160Y1119D01*
X162Y1119D01*
X162Y1117D01*
X164Y1117D01*
X164Y1115D01*
X166Y1115D01*
X166Y1113D01*
X168Y1113D01*
X168Y1111D01*
X170Y1111D01*
X170Y1109D01*
X172Y1109D01*
X172Y1107D01*
X174Y1107D01*
X174Y1105D01*
X176Y1105D01*
X176Y1103D01*
X178Y1103D01*
X178Y1101D01*
X180Y1101D01*
X180Y1099D01*
X182Y1099D01*
X182Y1097D01*
X184Y1097D01*
X184Y1095D01*
X186Y1095D01*
X186Y1093D01*
X188Y1093D01*
X188Y1091D01*
X190Y1091D01*
X190Y1089D01*
X192Y1089D01*
X192Y1087D01*
X194Y1087D01*
X194Y1085D01*
X196Y1085D01*
X196Y1083D01*
X198Y1083D01*
X198Y1081D01*
X200Y1081D01*
X200Y1079D01*
X202Y1079D01*
X202Y1077D01*
X204Y1077D01*
X204Y1075D01*
X206Y1075D01*
X206Y1073D01*
X226Y1073D01*
X226Y1083D01*
X228Y1083D01*
X228Y1089D01*
X230Y1089D01*
X230Y1093D01*
X232Y1093D01*
X232Y1097D01*
X234Y1097D01*
X234Y1101D01*
X236Y1101D01*
X236Y1103D01*
X238Y1103D01*
X238Y1105D01*
X240Y1105D01*
X240Y1107D01*
X242Y1107D01*
X242Y1109D01*
X246Y1109D01*
X246Y1111D01*
X248Y1111D01*
X248Y1113D01*
X250Y1113D01*
X250Y1133D01*
X246Y1133D01*
X246Y1135D01*
X244Y1135D01*
X244Y1137D01*
X242Y1137D01*
X242Y1139D01*
X238Y1139D01*
X238Y1143D01*
X236Y1143D01*
X236Y1145D01*
X234Y1145D01*
X234Y1147D01*
X232Y1147D01*
X232Y1151D01*
X230Y1151D01*
X230Y1155D01*
X228Y1155D01*
X228Y1163D01*
X226Y1163D01*
X226Y1183D01*
X228Y1183D01*
X228Y1189D01*
X230Y1189D01*
X230Y1193D01*
X232Y1193D01*
X232Y1197D01*
X234Y1197D01*
X234Y1201D01*
X236Y1201D01*
X236Y1203D01*
X238Y1203D01*
X238Y1205D01*
X240Y1205D01*
X240Y1207D01*
X242Y1207D01*
X242Y1209D01*
X246Y1209D01*
X246Y1211D01*
X248Y1211D01*
X248Y1213D01*
X250Y1213D01*
X250Y1233D01*
X246Y1233D01*
X246Y1235D01*
X244Y1235D01*
X244Y1237D01*
X242Y1237D01*
X242Y1239D01*
X238Y1239D01*
X238Y1243D01*
X236Y1243D01*
X236Y1245D01*
X234Y1245D01*
X234Y1247D01*
X232Y1247D01*
X232Y1251D01*
X230Y1251D01*
X230Y1255D01*
X228Y1255D01*
X228Y1263D01*
X226Y1263D01*
X226Y1283D01*
X228Y1283D01*
X228Y1289D01*
X230Y1289D01*
X230Y1293D01*
X232Y1293D01*
X232Y1297D01*
X234Y1297D01*
X234Y1301D01*
X236Y1301D01*
X236Y1303D01*
X238Y1303D01*
X238Y1305D01*
X240Y1305D01*
X240Y1307D01*
X242Y1307D01*
X242Y1309D01*
X246Y1309D01*
X246Y1311D01*
X248Y1311D01*
X248Y1313D01*
X252Y1313D01*
X252Y1315D01*
X256Y1315D01*
X256Y1317D01*
X264Y1317D01*
X264Y1319D01*
X158Y1319D01*
G37*
D02*
G36*
X126Y1059D02*
X126Y1055D01*
X128Y1055D01*
X128Y1053D01*
X130Y1053D01*
X130Y1051D01*
X132Y1051D01*
X132Y1049D01*
X134Y1049D01*
X134Y1047D01*
X136Y1047D01*
X136Y1045D01*
X138Y1045D01*
X138Y1043D01*
X140Y1043D01*
X140Y1041D01*
X142Y1041D01*
X142Y1039D01*
X144Y1039D01*
X144Y1037D01*
X146Y1037D01*
X146Y1035D01*
X148Y1035D01*
X148Y1033D01*
X150Y1033D01*
X150Y1031D01*
X152Y1031D01*
X152Y1029D01*
X154Y1029D01*
X154Y1027D01*
X156Y1027D01*
X156Y1025D01*
X158Y1025D01*
X158Y1023D01*
X160Y1023D01*
X160Y1021D01*
X162Y1021D01*
X162Y1019D01*
X164Y1019D01*
X164Y1017D01*
X166Y1017D01*
X166Y1015D01*
X168Y1015D01*
X168Y1013D01*
X170Y1013D01*
X170Y1011D01*
X172Y1011D01*
X172Y1009D01*
X174Y1009D01*
X174Y1007D01*
X176Y1007D01*
X176Y1005D01*
X178Y1005D01*
X178Y1003D01*
X180Y1003D01*
X180Y1001D01*
X182Y1001D01*
X182Y999D01*
X184Y999D01*
X184Y997D01*
X186Y997D01*
X186Y995D01*
X188Y995D01*
X188Y993D01*
X190Y993D01*
X190Y991D01*
X192Y991D01*
X192Y989D01*
X194Y989D01*
X194Y987D01*
X196Y987D01*
X196Y983D01*
X198Y983D01*
X198Y975D01*
X200Y975D01*
X200Y819D01*
X280Y819D01*
X280Y817D01*
X288Y817D01*
X288Y815D01*
X292Y815D01*
X292Y813D01*
X296Y813D01*
X296Y811D01*
X300Y811D01*
X300Y809D01*
X302Y809D01*
X302Y807D01*
X304Y807D01*
X304Y805D01*
X306Y805D01*
X306Y803D01*
X308Y803D01*
X308Y801D01*
X310Y801D01*
X310Y797D01*
X312Y797D01*
X312Y795D01*
X314Y795D01*
X314Y791D01*
X316Y791D01*
X316Y783D01*
X318Y783D01*
X318Y761D01*
X316Y761D01*
X316Y755D01*
X314Y755D01*
X314Y751D01*
X312Y751D01*
X312Y747D01*
X310Y747D01*
X310Y745D01*
X308Y745D01*
X308Y741D01*
X306Y741D01*
X306Y739D01*
X304Y739D01*
X304Y737D01*
X300Y737D01*
X300Y735D01*
X298Y735D01*
X298Y733D01*
X294Y733D01*
X294Y713D01*
X296Y713D01*
X296Y711D01*
X300Y711D01*
X300Y709D01*
X302Y709D01*
X302Y707D01*
X304Y707D01*
X304Y705D01*
X306Y705D01*
X306Y703D01*
X308Y703D01*
X308Y701D01*
X310Y701D01*
X310Y697D01*
X312Y697D01*
X312Y695D01*
X314Y695D01*
X314Y691D01*
X316Y691D01*
X316Y683D01*
X318Y683D01*
X318Y661D01*
X316Y661D01*
X316Y655D01*
X314Y655D01*
X314Y651D01*
X312Y651D01*
X312Y647D01*
X310Y647D01*
X310Y645D01*
X308Y645D01*
X308Y641D01*
X306Y641D01*
X306Y639D01*
X304Y639D01*
X304Y637D01*
X300Y637D01*
X300Y635D01*
X298Y635D01*
X298Y633D01*
X294Y633D01*
X294Y613D01*
X296Y613D01*
X296Y611D01*
X300Y611D01*
X300Y609D01*
X302Y609D01*
X302Y607D01*
X304Y607D01*
X304Y605D01*
X306Y605D01*
X306Y603D01*
X308Y603D01*
X308Y601D01*
X310Y601D01*
X310Y597D01*
X312Y597D01*
X312Y595D01*
X314Y595D01*
X314Y591D01*
X316Y591D01*
X316Y583D01*
X318Y583D01*
X318Y561D01*
X316Y561D01*
X316Y555D01*
X314Y555D01*
X314Y551D01*
X312Y551D01*
X312Y547D01*
X310Y547D01*
X310Y545D01*
X308Y545D01*
X308Y541D01*
X306Y541D01*
X306Y539D01*
X304Y539D01*
X304Y537D01*
X300Y537D01*
X300Y535D01*
X298Y535D01*
X298Y533D01*
X294Y533D01*
X294Y531D01*
X290Y531D01*
X290Y529D01*
X284Y529D01*
X284Y527D01*
X274Y527D01*
X274Y525D01*
X572Y525D01*
X572Y527D01*
X560Y527D01*
X560Y529D01*
X554Y529D01*
X554Y531D01*
X550Y531D01*
X550Y533D01*
X546Y533D01*
X546Y535D01*
X544Y535D01*
X544Y537D01*
X542Y537D01*
X542Y539D01*
X538Y539D01*
X538Y543D01*
X536Y543D01*
X536Y545D01*
X534Y545D01*
X534Y547D01*
X532Y547D01*
X532Y551D01*
X530Y551D01*
X530Y555D01*
X528Y555D01*
X528Y563D01*
X526Y563D01*
X526Y583D01*
X528Y583D01*
X528Y589D01*
X530Y589D01*
X530Y593D01*
X532Y593D01*
X532Y597D01*
X534Y597D01*
X534Y601D01*
X536Y601D01*
X536Y603D01*
X538Y603D01*
X538Y605D01*
X540Y605D01*
X540Y607D01*
X542Y607D01*
X542Y609D01*
X546Y609D01*
X546Y611D01*
X548Y611D01*
X548Y613D01*
X550Y613D01*
X550Y633D01*
X546Y633D01*
X546Y635D01*
X544Y635D01*
X544Y637D01*
X542Y637D01*
X542Y639D01*
X538Y639D01*
X538Y643D01*
X536Y643D01*
X536Y645D01*
X534Y645D01*
X534Y647D01*
X532Y647D01*
X532Y651D01*
X530Y651D01*
X530Y655D01*
X528Y655D01*
X528Y663D01*
X526Y663D01*
X526Y683D01*
X528Y683D01*
X528Y689D01*
X530Y689D01*
X530Y693D01*
X532Y693D01*
X532Y697D01*
X534Y697D01*
X534Y701D01*
X536Y701D01*
X536Y703D01*
X538Y703D01*
X538Y705D01*
X540Y705D01*
X540Y707D01*
X542Y707D01*
X542Y709D01*
X546Y709D01*
X546Y711D01*
X548Y711D01*
X548Y713D01*
X550Y713D01*
X550Y733D01*
X546Y733D01*
X546Y735D01*
X544Y735D01*
X544Y737D01*
X542Y737D01*
X542Y739D01*
X538Y739D01*
X538Y743D01*
X536Y743D01*
X536Y745D01*
X534Y745D01*
X534Y747D01*
X532Y747D01*
X532Y751D01*
X530Y751D01*
X530Y755D01*
X528Y755D01*
X528Y763D01*
X526Y763D01*
X526Y775D01*
X524Y775D01*
X524Y777D01*
X522Y777D01*
X522Y779D01*
X520Y779D01*
X520Y781D01*
X518Y781D01*
X518Y783D01*
X514Y783D01*
X514Y785D01*
X512Y785D01*
X512Y787D01*
X510Y787D01*
X510Y789D01*
X508Y789D01*
X508Y791D01*
X506Y791D01*
X506Y793D01*
X502Y793D01*
X502Y795D01*
X500Y795D01*
X500Y797D01*
X498Y797D01*
X498Y799D01*
X496Y799D01*
X496Y801D01*
X492Y801D01*
X492Y803D01*
X490Y803D01*
X490Y805D01*
X488Y805D01*
X488Y807D01*
X486Y807D01*
X486Y809D01*
X482Y809D01*
X482Y811D01*
X480Y811D01*
X480Y813D01*
X478Y813D01*
X478Y815D01*
X476Y815D01*
X476Y817D01*
X472Y817D01*
X472Y819D01*
X470Y819D01*
X470Y821D01*
X468Y821D01*
X468Y823D01*
X466Y823D01*
X466Y825D01*
X462Y825D01*
X462Y827D01*
X460Y827D01*
X460Y829D01*
X458Y829D01*
X458Y831D01*
X456Y831D01*
X456Y833D01*
X454Y833D01*
X454Y835D01*
X450Y835D01*
X450Y837D01*
X448Y837D01*
X448Y839D01*
X446Y839D01*
X446Y841D01*
X444Y841D01*
X444Y843D01*
X440Y843D01*
X440Y845D01*
X438Y845D01*
X438Y847D01*
X302Y847D01*
X302Y897D01*
X300Y897D01*
X300Y899D01*
X298Y899D01*
X298Y901D01*
X296Y901D01*
X296Y903D01*
X294Y903D01*
X294Y905D01*
X292Y905D01*
X292Y907D01*
X290Y907D01*
X290Y909D01*
X288Y909D01*
X288Y911D01*
X286Y911D01*
X286Y915D01*
X284Y915D01*
X284Y917D01*
X282Y917D01*
X282Y919D01*
X280Y919D01*
X280Y921D01*
X278Y921D01*
X278Y923D01*
X276Y923D01*
X276Y925D01*
X274Y925D01*
X274Y927D01*
X272Y927D01*
X272Y929D01*
X270Y929D01*
X270Y931D01*
X268Y931D01*
X268Y933D01*
X266Y933D01*
X266Y935D01*
X264Y935D01*
X264Y937D01*
X262Y937D01*
X262Y939D01*
X260Y939D01*
X260Y941D01*
X258Y941D01*
X258Y943D01*
X256Y943D01*
X256Y945D01*
X254Y945D01*
X254Y947D01*
X252Y947D01*
X252Y949D01*
X250Y949D01*
X250Y951D01*
X248Y951D01*
X248Y953D01*
X246Y953D01*
X246Y955D01*
X244Y955D01*
X244Y957D01*
X242Y957D01*
X242Y959D01*
X240Y959D01*
X240Y961D01*
X238Y961D01*
X238Y963D01*
X236Y963D01*
X236Y965D01*
X234Y965D01*
X234Y967D01*
X232Y967D01*
X232Y969D01*
X230Y969D01*
X230Y971D01*
X228Y971D01*
X228Y973D01*
X226Y973D01*
X226Y975D01*
X224Y975D01*
X224Y979D01*
X222Y979D01*
X222Y981D01*
X220Y981D01*
X220Y983D01*
X218Y983D01*
X218Y985D01*
X216Y985D01*
X216Y987D01*
X214Y987D01*
X214Y989D01*
X212Y989D01*
X212Y991D01*
X210Y991D01*
X210Y993D01*
X208Y993D01*
X208Y995D01*
X206Y995D01*
X206Y997D01*
X204Y997D01*
X204Y999D01*
X202Y999D01*
X202Y1001D01*
X200Y1001D01*
X200Y1003D01*
X198Y1003D01*
X198Y1005D01*
X196Y1005D01*
X196Y1007D01*
X194Y1007D01*
X194Y1009D01*
X192Y1009D01*
X192Y1011D01*
X190Y1011D01*
X190Y1013D01*
X188Y1013D01*
X188Y1015D01*
X186Y1015D01*
X186Y1017D01*
X184Y1017D01*
X184Y1019D01*
X182Y1019D01*
X182Y1021D01*
X180Y1021D01*
X180Y1023D01*
X178Y1023D01*
X178Y1025D01*
X176Y1025D01*
X176Y1027D01*
X174Y1027D01*
X174Y1029D01*
X172Y1029D01*
X172Y1031D01*
X170Y1031D01*
X170Y1033D01*
X168Y1033D01*
X168Y1035D01*
X166Y1035D01*
X166Y1037D01*
X164Y1037D01*
X164Y1039D01*
X162Y1039D01*
X162Y1041D01*
X160Y1041D01*
X160Y1045D01*
X158Y1045D01*
X158Y1047D01*
X156Y1047D01*
X156Y1049D01*
X154Y1049D01*
X154Y1051D01*
X152Y1051D01*
X152Y1053D01*
X150Y1053D01*
X150Y1055D01*
X148Y1055D01*
X148Y1057D01*
X146Y1057D01*
X146Y1059D01*
X126Y1059D01*
G37*
D02*
G36*
X270Y1025D02*
X270Y1023D01*
X646Y1023D01*
X646Y1025D01*
X270Y1025D01*
G37*
D02*
G36*
X270Y1025D02*
X270Y1023D01*
X646Y1023D01*
X646Y1025D01*
X270Y1025D01*
G37*
D02*
G36*
X270Y1023D02*
X270Y1007D01*
X272Y1007D01*
X272Y1005D01*
X274Y1005D01*
X274Y1001D01*
X276Y1001D01*
X276Y999D01*
X278Y999D01*
X278Y997D01*
X280Y997D01*
X280Y995D01*
X282Y995D01*
X282Y993D01*
X284Y993D01*
X284Y991D01*
X286Y991D01*
X286Y989D01*
X288Y989D01*
X288Y987D01*
X290Y987D01*
X290Y985D01*
X292Y985D01*
X292Y983D01*
X294Y983D01*
X294Y981D01*
X296Y981D01*
X296Y979D01*
X298Y979D01*
X298Y977D01*
X300Y977D01*
X300Y975D01*
X302Y975D01*
X302Y973D01*
X304Y973D01*
X304Y971D01*
X306Y971D01*
X306Y969D01*
X308Y969D01*
X308Y967D01*
X310Y967D01*
X310Y965D01*
X312Y965D01*
X312Y963D01*
X314Y963D01*
X314Y961D01*
X316Y961D01*
X316Y959D01*
X318Y959D01*
X318Y957D01*
X320Y957D01*
X320Y955D01*
X322Y955D01*
X322Y953D01*
X324Y953D01*
X324Y951D01*
X326Y951D01*
X326Y949D01*
X328Y949D01*
X328Y947D01*
X330Y947D01*
X330Y945D01*
X332Y945D01*
X332Y943D01*
X334Y943D01*
X334Y941D01*
X336Y941D01*
X336Y937D01*
X338Y937D01*
X338Y935D01*
X468Y935D01*
X468Y891D01*
X470Y891D01*
X470Y889D01*
X472Y889D01*
X472Y887D01*
X474Y887D01*
X474Y885D01*
X478Y885D01*
X478Y883D01*
X480Y883D01*
X480Y881D01*
X482Y881D01*
X482Y879D01*
X484Y879D01*
X484Y877D01*
X488Y877D01*
X488Y875D01*
X490Y875D01*
X490Y873D01*
X492Y873D01*
X492Y871D01*
X494Y871D01*
X494Y869D01*
X496Y869D01*
X496Y867D01*
X500Y867D01*
X500Y865D01*
X502Y865D01*
X502Y863D01*
X504Y863D01*
X504Y861D01*
X506Y861D01*
X506Y859D01*
X510Y859D01*
X510Y857D01*
X512Y857D01*
X512Y855D01*
X514Y855D01*
X514Y853D01*
X516Y853D01*
X516Y851D01*
X520Y851D01*
X520Y849D01*
X522Y849D01*
X522Y847D01*
X524Y847D01*
X524Y845D01*
X526Y845D01*
X526Y843D01*
X530Y843D01*
X530Y841D01*
X532Y841D01*
X532Y839D01*
X534Y839D01*
X534Y837D01*
X536Y837D01*
X536Y835D01*
X538Y835D01*
X538Y833D01*
X542Y833D01*
X542Y831D01*
X544Y831D01*
X544Y829D01*
X546Y829D01*
X546Y827D01*
X548Y827D01*
X548Y825D01*
X552Y825D01*
X552Y823D01*
X554Y823D01*
X554Y821D01*
X556Y821D01*
X556Y819D01*
X580Y819D01*
X580Y817D01*
X588Y817D01*
X588Y815D01*
X592Y815D01*
X592Y813D01*
X596Y813D01*
X596Y811D01*
X600Y811D01*
X600Y809D01*
X602Y809D01*
X602Y807D01*
X604Y807D01*
X604Y805D01*
X606Y805D01*
X606Y803D01*
X608Y803D01*
X608Y801D01*
X610Y801D01*
X610Y797D01*
X612Y797D01*
X612Y795D01*
X614Y795D01*
X614Y791D01*
X616Y791D01*
X616Y783D01*
X618Y783D01*
X618Y761D01*
X616Y761D01*
X616Y755D01*
X614Y755D01*
X614Y751D01*
X612Y751D01*
X612Y747D01*
X610Y747D01*
X610Y745D01*
X608Y745D01*
X608Y743D01*
X606Y743D01*
X606Y739D01*
X604Y739D01*
X604Y737D01*
X600Y737D01*
X600Y735D01*
X598Y735D01*
X598Y733D01*
X594Y733D01*
X594Y713D01*
X596Y713D01*
X596Y711D01*
X600Y711D01*
X600Y709D01*
X602Y709D01*
X602Y707D01*
X604Y707D01*
X604Y705D01*
X606Y705D01*
X606Y703D01*
X608Y703D01*
X608Y701D01*
X610Y701D01*
X610Y697D01*
X612Y697D01*
X612Y695D01*
X614Y695D01*
X614Y691D01*
X616Y691D01*
X616Y683D01*
X618Y683D01*
X618Y661D01*
X616Y661D01*
X616Y655D01*
X614Y655D01*
X614Y651D01*
X612Y651D01*
X612Y647D01*
X610Y647D01*
X610Y645D01*
X608Y645D01*
X608Y643D01*
X606Y643D01*
X606Y639D01*
X604Y639D01*
X604Y637D01*
X600Y637D01*
X600Y635D01*
X598Y635D01*
X598Y633D01*
X594Y633D01*
X594Y613D01*
X596Y613D01*
X596Y611D01*
X600Y611D01*
X600Y609D01*
X602Y609D01*
X602Y607D01*
X604Y607D01*
X604Y605D01*
X606Y605D01*
X606Y603D01*
X608Y603D01*
X608Y601D01*
X610Y601D01*
X610Y597D01*
X612Y597D01*
X612Y595D01*
X614Y595D01*
X614Y591D01*
X616Y591D01*
X616Y583D01*
X618Y583D01*
X618Y561D01*
X616Y561D01*
X616Y555D01*
X614Y555D01*
X614Y551D01*
X612Y551D01*
X612Y547D01*
X610Y547D01*
X610Y545D01*
X608Y545D01*
X608Y543D01*
X606Y543D01*
X606Y539D01*
X604Y539D01*
X604Y537D01*
X600Y537D01*
X600Y535D01*
X598Y535D01*
X598Y533D01*
X594Y533D01*
X594Y531D01*
X590Y531D01*
X590Y529D01*
X584Y529D01*
X584Y527D01*
X574Y527D01*
X574Y525D01*
X646Y525D01*
X646Y1023D01*
X270Y1023D01*
G37*
D02*
G36*
X200Y819D02*
X200Y525D01*
X272Y525D01*
X272Y527D01*
X260Y527D01*
X260Y529D01*
X254Y529D01*
X254Y531D01*
X250Y531D01*
X250Y533D01*
X246Y533D01*
X246Y535D01*
X244Y535D01*
X244Y537D01*
X242Y537D01*
X242Y539D01*
X238Y539D01*
X238Y543D01*
X236Y543D01*
X236Y545D01*
X234Y545D01*
X234Y547D01*
X232Y547D01*
X232Y551D01*
X230Y551D01*
X230Y555D01*
X228Y555D01*
X228Y563D01*
X226Y563D01*
X226Y583D01*
X228Y583D01*
X228Y589D01*
X230Y589D01*
X230Y593D01*
X232Y593D01*
X232Y597D01*
X234Y597D01*
X234Y601D01*
X236Y601D01*
X236Y603D01*
X238Y603D01*
X238Y605D01*
X240Y605D01*
X240Y607D01*
X242Y607D01*
X242Y609D01*
X246Y609D01*
X246Y611D01*
X248Y611D01*
X248Y613D01*
X250Y613D01*
X250Y633D01*
X246Y633D01*
X246Y635D01*
X244Y635D01*
X244Y637D01*
X242Y637D01*
X242Y639D01*
X238Y639D01*
X238Y643D01*
X236Y643D01*
X236Y645D01*
X234Y645D01*
X234Y647D01*
X232Y647D01*
X232Y651D01*
X230Y651D01*
X230Y655D01*
X228Y655D01*
X228Y663D01*
X226Y663D01*
X226Y683D01*
X228Y683D01*
X228Y689D01*
X230Y689D01*
X230Y693D01*
X232Y693D01*
X232Y697D01*
X234Y697D01*
X234Y701D01*
X236Y701D01*
X236Y703D01*
X238Y703D01*
X238Y705D01*
X240Y705D01*
X240Y707D01*
X242Y707D01*
X242Y709D01*
X246Y709D01*
X246Y711D01*
X248Y711D01*
X248Y713D01*
X250Y713D01*
X250Y733D01*
X246Y733D01*
X246Y735D01*
X244Y735D01*
X244Y737D01*
X242Y737D01*
X242Y739D01*
X238Y739D01*
X238Y743D01*
X236Y743D01*
X236Y745D01*
X234Y745D01*
X234Y747D01*
X232Y747D01*
X232Y751D01*
X230Y751D01*
X230Y755D01*
X228Y755D01*
X228Y763D01*
X226Y763D01*
X226Y783D01*
X228Y783D01*
X228Y789D01*
X230Y789D01*
X230Y793D01*
X232Y793D01*
X232Y797D01*
X234Y797D01*
X234Y801D01*
X236Y801D01*
X236Y803D01*
X238Y803D01*
X238Y805D01*
X240Y805D01*
X240Y807D01*
X242Y807D01*
X242Y809D01*
X246Y809D01*
X246Y811D01*
X248Y811D01*
X248Y813D01*
X252Y813D01*
X252Y815D01*
X256Y815D01*
X256Y817D01*
X264Y817D01*
X264Y819D01*
X200Y819D01*
G37*
D02*
G36*
X200Y525D02*
X200Y523D01*
X646Y523D01*
X646Y525D01*
X200Y525D01*
G37*
D02*
G36*
X200Y525D02*
X200Y523D01*
X646Y523D01*
X646Y525D01*
X200Y525D01*
G37*
D02*
G36*
X200Y525D02*
X200Y523D01*
X646Y523D01*
X646Y525D01*
X200Y525D01*
G37*
D02*
G36*
X200Y523D02*
X200Y483D01*
X202Y483D01*
X202Y481D01*
X204Y481D01*
X204Y479D01*
X206Y479D01*
X206Y477D01*
X208Y477D01*
X208Y475D01*
X210Y475D01*
X210Y473D01*
X212Y473D01*
X212Y471D01*
X214Y471D01*
X214Y469D01*
X216Y469D01*
X216Y467D01*
X218Y467D01*
X218Y465D01*
X220Y465D01*
X220Y463D01*
X222Y463D01*
X222Y461D01*
X224Y461D01*
X224Y459D01*
X226Y459D01*
X226Y457D01*
X228Y457D01*
X228Y455D01*
X230Y455D01*
X230Y453D01*
X232Y453D01*
X232Y451D01*
X234Y451D01*
X234Y449D01*
X236Y449D01*
X236Y447D01*
X238Y447D01*
X238Y445D01*
X240Y445D01*
X240Y443D01*
X242Y443D01*
X242Y441D01*
X244Y441D01*
X244Y439D01*
X246Y439D01*
X246Y437D01*
X248Y437D01*
X248Y435D01*
X250Y435D01*
X250Y433D01*
X252Y433D01*
X252Y431D01*
X254Y431D01*
X254Y429D01*
X256Y429D01*
X256Y427D01*
X258Y427D01*
X258Y425D01*
X260Y425D01*
X260Y423D01*
X262Y423D01*
X262Y421D01*
X264Y421D01*
X264Y419D01*
X266Y419D01*
X266Y417D01*
X268Y417D01*
X268Y415D01*
X270Y415D01*
X270Y413D01*
X272Y413D01*
X272Y411D01*
X274Y411D01*
X274Y409D01*
X276Y409D01*
X276Y407D01*
X278Y407D01*
X278Y405D01*
X280Y405D01*
X280Y403D01*
X282Y403D01*
X282Y401D01*
X284Y401D01*
X284Y399D01*
X286Y399D01*
X286Y397D01*
X288Y397D01*
X288Y395D01*
X290Y395D01*
X290Y393D01*
X292Y393D01*
X292Y391D01*
X294Y391D01*
X294Y387D01*
X296Y387D01*
X296Y385D01*
X298Y385D01*
X298Y379D01*
X300Y379D01*
X300Y315D01*
X304Y315D01*
X304Y313D01*
X306Y313D01*
X306Y311D01*
X308Y311D01*
X308Y309D01*
X310Y309D01*
X310Y307D01*
X312Y307D01*
X312Y305D01*
X314Y305D01*
X314Y301D01*
X316Y301D01*
X316Y299D01*
X318Y299D01*
X318Y295D01*
X320Y295D01*
X320Y291D01*
X322Y291D01*
X322Y283D01*
X324Y283D01*
X324Y263D01*
X322Y263D01*
X322Y255D01*
X320Y255D01*
X320Y251D01*
X318Y251D01*
X318Y247D01*
X316Y247D01*
X316Y243D01*
X314Y243D01*
X314Y241D01*
X312Y241D01*
X312Y239D01*
X310Y239D01*
X310Y215D01*
X314Y215D01*
X314Y213D01*
X316Y213D01*
X316Y211D01*
X318Y211D01*
X318Y209D01*
X320Y209D01*
X320Y207D01*
X322Y207D01*
X322Y205D01*
X324Y205D01*
X324Y201D01*
X326Y201D01*
X326Y199D01*
X528Y199D01*
X528Y201D01*
X530Y201D01*
X530Y203D01*
X532Y203D01*
X532Y207D01*
X534Y207D01*
X534Y209D01*
X536Y209D01*
X536Y229D01*
X532Y229D01*
X532Y231D01*
X530Y231D01*
X530Y233D01*
X528Y233D01*
X528Y235D01*
X526Y235D01*
X526Y237D01*
X524Y237D01*
X524Y239D01*
X522Y239D01*
X522Y241D01*
X520Y241D01*
X520Y243D01*
X518Y243D01*
X518Y247D01*
X516Y247D01*
X516Y251D01*
X514Y251D01*
X514Y255D01*
X512Y255D01*
X512Y265D01*
X510Y265D01*
X510Y281D01*
X512Y281D01*
X512Y289D01*
X514Y289D01*
X514Y295D01*
X516Y295D01*
X516Y297D01*
X518Y297D01*
X518Y301D01*
X520Y301D01*
X520Y303D01*
X522Y303D01*
X522Y307D01*
X524Y307D01*
X524Y309D01*
X526Y309D01*
X526Y311D01*
X528Y311D01*
X528Y313D01*
X532Y313D01*
X532Y315D01*
X534Y315D01*
X534Y317D01*
X536Y317D01*
X536Y337D01*
X534Y337D01*
X534Y339D01*
X532Y339D01*
X532Y341D01*
X530Y341D01*
X530Y343D01*
X528Y343D01*
X528Y347D01*
X526Y347D01*
X526Y351D01*
X524Y351D01*
X524Y355D01*
X522Y355D01*
X522Y365D01*
X520Y365D01*
X520Y381D01*
X522Y381D01*
X522Y389D01*
X524Y389D01*
X524Y395D01*
X526Y395D01*
X526Y397D01*
X528Y397D01*
X528Y401D01*
X530Y401D01*
X530Y403D01*
X532Y403D01*
X532Y407D01*
X534Y407D01*
X534Y409D01*
X536Y409D01*
X536Y411D01*
X538Y411D01*
X538Y413D01*
X542Y413D01*
X542Y415D01*
X544Y415D01*
X544Y417D01*
X548Y417D01*
X548Y419D01*
X552Y419D01*
X552Y421D01*
X556Y421D01*
X556Y423D01*
X566Y423D01*
X566Y425D01*
X588Y425D01*
X588Y427D01*
X590Y427D01*
X590Y429D01*
X592Y429D01*
X592Y431D01*
X594Y431D01*
X594Y433D01*
X596Y433D01*
X596Y435D01*
X598Y435D01*
X598Y437D01*
X600Y437D01*
X600Y439D01*
X602Y439D01*
X602Y441D01*
X604Y441D01*
X604Y443D01*
X606Y443D01*
X606Y445D01*
X608Y445D01*
X608Y447D01*
X610Y447D01*
X610Y449D01*
X612Y449D01*
X612Y451D01*
X614Y451D01*
X614Y453D01*
X616Y453D01*
X616Y455D01*
X618Y455D01*
X618Y457D01*
X620Y457D01*
X620Y459D01*
X622Y459D01*
X622Y461D01*
X624Y461D01*
X624Y463D01*
X626Y463D01*
X626Y465D01*
X628Y465D01*
X628Y467D01*
X630Y467D01*
X630Y469D01*
X632Y469D01*
X632Y471D01*
X634Y471D01*
X634Y473D01*
X636Y473D01*
X636Y475D01*
X638Y475D01*
X638Y477D01*
X640Y477D01*
X640Y479D01*
X642Y479D01*
X642Y481D01*
X644Y481D01*
X644Y483D01*
X646Y483D01*
X646Y523D01*
X200Y523D01*
G37*
D02*
G36*
X900Y963D02*
X900Y881D01*
X920Y881D01*
X920Y889D01*
X922Y889D01*
X922Y895D01*
X924Y895D01*
X924Y899D01*
X926Y899D01*
X926Y901D01*
X928Y901D01*
X928Y905D01*
X930Y905D01*
X930Y907D01*
X932Y907D01*
X932Y909D01*
X934Y909D01*
X934Y911D01*
X936Y911D01*
X936Y933D01*
X934Y933D01*
X934Y935D01*
X932Y935D01*
X932Y937D01*
X930Y937D01*
X930Y941D01*
X928Y941D01*
X928Y943D01*
X926Y943D01*
X926Y947D01*
X924Y947D01*
X924Y951D01*
X922Y951D01*
X922Y955D01*
X920Y955D01*
X920Y963D01*
X900Y963D01*
G37*
D02*
G36*
X124Y961D02*
X124Y955D01*
X122Y955D01*
X122Y949D01*
X120Y949D01*
X120Y947D01*
X118Y947D01*
X118Y943D01*
X116Y943D01*
X116Y941D01*
X114Y941D01*
X114Y937D01*
X112Y937D01*
X112Y935D01*
X110Y935D01*
X110Y933D01*
X108Y933D01*
X108Y911D01*
X110Y911D01*
X110Y909D01*
X112Y909D01*
X112Y907D01*
X114Y907D01*
X114Y905D01*
X116Y905D01*
X116Y903D01*
X118Y903D01*
X118Y899D01*
X120Y899D01*
X120Y895D01*
X122Y895D01*
X122Y891D01*
X124Y891D01*
X124Y883D01*
X126Y883D01*
X126Y861D01*
X124Y861D01*
X124Y855D01*
X122Y855D01*
X122Y849D01*
X120Y849D01*
X120Y847D01*
X118Y847D01*
X118Y843D01*
X116Y843D01*
X116Y841D01*
X114Y841D01*
X114Y837D01*
X112Y837D01*
X112Y835D01*
X110Y835D01*
X110Y833D01*
X108Y833D01*
X108Y811D01*
X110Y811D01*
X110Y809D01*
X112Y809D01*
X112Y807D01*
X114Y807D01*
X114Y805D01*
X116Y805D01*
X116Y803D01*
X118Y803D01*
X118Y799D01*
X120Y799D01*
X120Y795D01*
X122Y795D01*
X122Y791D01*
X124Y791D01*
X124Y783D01*
X126Y783D01*
X126Y761D01*
X124Y761D01*
X124Y755D01*
X122Y755D01*
X122Y749D01*
X120Y749D01*
X120Y747D01*
X118Y747D01*
X118Y743D01*
X116Y743D01*
X116Y741D01*
X114Y741D01*
X114Y737D01*
X112Y737D01*
X112Y735D01*
X110Y735D01*
X110Y733D01*
X108Y733D01*
X108Y711D01*
X110Y711D01*
X110Y709D01*
X112Y709D01*
X112Y707D01*
X114Y707D01*
X114Y705D01*
X116Y705D01*
X116Y703D01*
X118Y703D01*
X118Y699D01*
X120Y699D01*
X120Y695D01*
X122Y695D01*
X122Y691D01*
X124Y691D01*
X124Y683D01*
X126Y683D01*
X126Y661D01*
X124Y661D01*
X124Y655D01*
X122Y655D01*
X122Y649D01*
X120Y649D01*
X120Y647D01*
X118Y647D01*
X118Y643D01*
X116Y643D01*
X116Y641D01*
X114Y641D01*
X114Y637D01*
X112Y637D01*
X112Y635D01*
X110Y635D01*
X110Y633D01*
X108Y633D01*
X108Y611D01*
X110Y611D01*
X110Y609D01*
X112Y609D01*
X112Y607D01*
X114Y607D01*
X114Y605D01*
X116Y605D01*
X116Y603D01*
X118Y603D01*
X118Y599D01*
X120Y599D01*
X120Y595D01*
X122Y595D01*
X122Y591D01*
X124Y591D01*
X124Y583D01*
X126Y583D01*
X126Y561D01*
X124Y561D01*
X124Y555D01*
X122Y555D01*
X122Y549D01*
X120Y549D01*
X120Y547D01*
X118Y547D01*
X118Y543D01*
X116Y543D01*
X116Y541D01*
X114Y541D01*
X114Y537D01*
X112Y537D01*
X112Y535D01*
X110Y535D01*
X110Y533D01*
X108Y533D01*
X108Y511D01*
X110Y511D01*
X110Y509D01*
X112Y509D01*
X112Y507D01*
X114Y507D01*
X114Y505D01*
X116Y505D01*
X116Y503D01*
X118Y503D01*
X118Y499D01*
X120Y499D01*
X120Y495D01*
X122Y495D01*
X122Y491D01*
X124Y491D01*
X124Y483D01*
X126Y483D01*
X126Y455D01*
X130Y455D01*
X130Y453D01*
X132Y453D01*
X132Y451D01*
X134Y451D01*
X134Y449D01*
X136Y449D01*
X136Y447D01*
X138Y447D01*
X138Y445D01*
X140Y445D01*
X140Y443D01*
X142Y443D01*
X142Y441D01*
X144Y441D01*
X144Y439D01*
X146Y439D01*
X146Y437D01*
X148Y437D01*
X148Y435D01*
X150Y435D01*
X150Y433D01*
X152Y433D01*
X152Y431D01*
X154Y431D01*
X154Y429D01*
X156Y429D01*
X156Y427D01*
X158Y427D01*
X158Y425D01*
X160Y425D01*
X160Y423D01*
X162Y423D01*
X162Y421D01*
X164Y421D01*
X164Y419D01*
X166Y419D01*
X166Y417D01*
X168Y417D01*
X168Y415D01*
X170Y415D01*
X170Y413D01*
X172Y413D01*
X172Y411D01*
X174Y411D01*
X174Y409D01*
X176Y409D01*
X176Y407D01*
X178Y407D01*
X178Y405D01*
X180Y405D01*
X180Y403D01*
X182Y403D01*
X182Y401D01*
X184Y401D01*
X184Y399D01*
X186Y399D01*
X186Y397D01*
X188Y397D01*
X188Y395D01*
X190Y395D01*
X190Y393D01*
X192Y393D01*
X192Y391D01*
X194Y391D01*
X194Y387D01*
X196Y387D01*
X196Y383D01*
X198Y383D01*
X198Y377D01*
X200Y377D01*
X200Y201D01*
X240Y201D01*
X240Y203D01*
X242Y203D01*
X242Y207D01*
X244Y207D01*
X244Y209D01*
X246Y209D01*
X246Y229D01*
X242Y229D01*
X242Y231D01*
X240Y231D01*
X240Y233D01*
X238Y233D01*
X238Y235D01*
X236Y235D01*
X236Y237D01*
X234Y237D01*
X234Y239D01*
X232Y239D01*
X232Y241D01*
X230Y241D01*
X230Y243D01*
X228Y243D01*
X228Y247D01*
X226Y247D01*
X226Y251D01*
X224Y251D01*
X224Y255D01*
X222Y255D01*
X222Y265D01*
X220Y265D01*
X220Y281D01*
X222Y281D01*
X222Y289D01*
X224Y289D01*
X224Y295D01*
X226Y295D01*
X226Y297D01*
X228Y297D01*
X228Y301D01*
X230Y301D01*
X230Y303D01*
X232Y303D01*
X232Y307D01*
X234Y307D01*
X234Y309D01*
X236Y309D01*
X236Y311D01*
X238Y311D01*
X238Y313D01*
X242Y313D01*
X242Y315D01*
X244Y315D01*
X244Y317D01*
X246Y317D01*
X246Y363D01*
X244Y363D01*
X244Y365D01*
X242Y365D01*
X242Y367D01*
X240Y367D01*
X240Y369D01*
X238Y369D01*
X238Y371D01*
X236Y371D01*
X236Y373D01*
X234Y373D01*
X234Y375D01*
X232Y375D01*
X232Y377D01*
X230Y377D01*
X230Y379D01*
X228Y379D01*
X228Y381D01*
X226Y381D01*
X226Y383D01*
X224Y383D01*
X224Y385D01*
X222Y385D01*
X222Y387D01*
X220Y387D01*
X220Y389D01*
X218Y389D01*
X218Y391D01*
X216Y391D01*
X216Y393D01*
X214Y393D01*
X214Y395D01*
X212Y395D01*
X212Y397D01*
X210Y397D01*
X210Y399D01*
X208Y399D01*
X208Y401D01*
X206Y401D01*
X206Y403D01*
X204Y403D01*
X204Y405D01*
X202Y405D01*
X202Y407D01*
X200Y407D01*
X200Y409D01*
X198Y409D01*
X198Y411D01*
X196Y411D01*
X196Y413D01*
X194Y413D01*
X194Y415D01*
X192Y415D01*
X192Y417D01*
X190Y417D01*
X190Y419D01*
X188Y419D01*
X188Y421D01*
X186Y421D01*
X186Y423D01*
X184Y423D01*
X184Y425D01*
X182Y425D01*
X182Y427D01*
X180Y427D01*
X180Y429D01*
X178Y429D01*
X178Y431D01*
X176Y431D01*
X176Y433D01*
X174Y433D01*
X174Y435D01*
X172Y435D01*
X172Y437D01*
X170Y437D01*
X170Y439D01*
X168Y439D01*
X168Y441D01*
X166Y441D01*
X166Y443D01*
X164Y443D01*
X164Y445D01*
X162Y445D01*
X162Y447D01*
X160Y447D01*
X160Y449D01*
X158Y449D01*
X158Y451D01*
X156Y451D01*
X156Y453D01*
X154Y453D01*
X154Y455D01*
X152Y455D01*
X152Y457D01*
X150Y457D01*
X150Y459D01*
X148Y459D01*
X148Y463D01*
X146Y463D01*
X146Y961D01*
X124Y961D01*
G37*
D02*
G36*
X900Y863D02*
X900Y781D01*
X920Y781D01*
X920Y789D01*
X922Y789D01*
X922Y795D01*
X924Y795D01*
X924Y799D01*
X926Y799D01*
X926Y801D01*
X928Y801D01*
X928Y805D01*
X930Y805D01*
X930Y807D01*
X932Y807D01*
X932Y809D01*
X934Y809D01*
X934Y811D01*
X936Y811D01*
X936Y833D01*
X934Y833D01*
X934Y835D01*
X932Y835D01*
X932Y837D01*
X930Y837D01*
X930Y841D01*
X928Y841D01*
X928Y843D01*
X926Y843D01*
X926Y847D01*
X924Y847D01*
X924Y851D01*
X922Y851D01*
X922Y855D01*
X920Y855D01*
X920Y863D01*
X900Y863D01*
G37*
D02*
G36*
X900Y763D02*
X900Y681D01*
X920Y681D01*
X920Y689D01*
X922Y689D01*
X922Y695D01*
X924Y695D01*
X924Y699D01*
X926Y699D01*
X926Y701D01*
X928Y701D01*
X928Y705D01*
X930Y705D01*
X930Y707D01*
X932Y707D01*
X932Y709D01*
X934Y709D01*
X934Y711D01*
X936Y711D01*
X936Y733D01*
X934Y733D01*
X934Y735D01*
X932Y735D01*
X932Y737D01*
X930Y737D01*
X930Y741D01*
X928Y741D01*
X928Y743D01*
X926Y743D01*
X926Y747D01*
X924Y747D01*
X924Y751D01*
X922Y751D01*
X922Y755D01*
X920Y755D01*
X920Y763D01*
X900Y763D01*
G37*
D02*
G36*
X900Y663D02*
X900Y581D01*
X920Y581D01*
X920Y589D01*
X922Y589D01*
X922Y595D01*
X924Y595D01*
X924Y599D01*
X926Y599D01*
X926Y601D01*
X928Y601D01*
X928Y605D01*
X930Y605D01*
X930Y607D01*
X932Y607D01*
X932Y609D01*
X934Y609D01*
X934Y611D01*
X936Y611D01*
X936Y633D01*
X934Y633D01*
X934Y635D01*
X932Y635D01*
X932Y637D01*
X930Y637D01*
X930Y641D01*
X928Y641D01*
X928Y643D01*
X926Y643D01*
X926Y647D01*
X924Y647D01*
X924Y651D01*
X922Y651D01*
X922Y655D01*
X920Y655D01*
X920Y663D01*
X900Y663D01*
G37*
D02*
G36*
X900Y563D02*
X900Y481D01*
X920Y481D01*
X920Y489D01*
X922Y489D01*
X922Y495D01*
X924Y495D01*
X924Y499D01*
X926Y499D01*
X926Y501D01*
X928Y501D01*
X928Y505D01*
X930Y505D01*
X930Y507D01*
X932Y507D01*
X932Y509D01*
X934Y509D01*
X934Y511D01*
X936Y511D01*
X936Y533D01*
X934Y533D01*
X934Y535D01*
X932Y535D01*
X932Y537D01*
X930Y537D01*
X930Y541D01*
X928Y541D01*
X928Y543D01*
X926Y543D01*
X926Y547D01*
X924Y547D01*
X924Y551D01*
X922Y551D01*
X922Y555D01*
X920Y555D01*
X920Y563D01*
X900Y563D01*
G37*
D02*
G36*
X898Y471D02*
X898Y463D01*
X896Y463D01*
X896Y459D01*
X894Y459D01*
X894Y457D01*
X892Y457D01*
X892Y453D01*
X888Y453D01*
X888Y451D01*
X886Y451D01*
X886Y449D01*
X882Y449D01*
X882Y447D01*
X880Y447D01*
X880Y445D01*
X876Y445D01*
X876Y443D01*
X874Y443D01*
X874Y441D01*
X870Y441D01*
X870Y439D01*
X868Y439D01*
X868Y437D01*
X864Y437D01*
X864Y435D01*
X862Y435D01*
X862Y433D01*
X858Y433D01*
X858Y431D01*
X856Y431D01*
X856Y429D01*
X852Y429D01*
X852Y427D01*
X848Y427D01*
X848Y425D01*
X846Y425D01*
X846Y423D01*
X842Y423D01*
X842Y421D01*
X840Y421D01*
X840Y419D01*
X836Y419D01*
X836Y417D01*
X834Y417D01*
X834Y415D01*
X830Y415D01*
X830Y413D01*
X828Y413D01*
X828Y411D01*
X824Y411D01*
X824Y409D01*
X822Y409D01*
X822Y407D01*
X818Y407D01*
X818Y405D01*
X814Y405D01*
X814Y403D01*
X812Y403D01*
X812Y401D01*
X808Y401D01*
X808Y399D01*
X806Y399D01*
X806Y397D01*
X802Y397D01*
X802Y395D01*
X800Y395D01*
X800Y393D01*
X796Y393D01*
X796Y391D01*
X794Y391D01*
X794Y389D01*
X790Y389D01*
X790Y387D01*
X788Y387D01*
X788Y385D01*
X784Y385D01*
X784Y383D01*
X782Y383D01*
X782Y381D01*
X778Y381D01*
X778Y379D01*
X774Y379D01*
X774Y377D01*
X772Y377D01*
X772Y375D01*
X768Y375D01*
X768Y373D01*
X766Y373D01*
X766Y371D01*
X762Y371D01*
X762Y369D01*
X760Y369D01*
X760Y367D01*
X756Y367D01*
X756Y365D01*
X754Y365D01*
X754Y363D01*
X750Y363D01*
X750Y361D01*
X748Y361D01*
X748Y359D01*
X744Y359D01*
X744Y357D01*
X740Y357D01*
X740Y355D01*
X738Y355D01*
X738Y353D01*
X734Y353D01*
X734Y351D01*
X732Y351D01*
X732Y349D01*
X728Y349D01*
X728Y347D01*
X726Y347D01*
X726Y345D01*
X722Y345D01*
X722Y325D01*
X824Y325D01*
X824Y319D01*
X960Y319D01*
X960Y321D01*
X952Y321D01*
X952Y323D01*
X948Y323D01*
X948Y325D01*
X946Y325D01*
X946Y327D01*
X942Y327D01*
X942Y329D01*
X940Y329D01*
X940Y331D01*
X936Y331D01*
X936Y333D01*
X934Y333D01*
X934Y335D01*
X932Y335D01*
X932Y337D01*
X930Y337D01*
X930Y341D01*
X928Y341D01*
X928Y343D01*
X926Y343D01*
X926Y347D01*
X924Y347D01*
X924Y351D01*
X922Y351D01*
X922Y355D01*
X920Y355D01*
X920Y363D01*
X918Y363D01*
X918Y381D01*
X920Y381D01*
X920Y389D01*
X922Y389D01*
X922Y395D01*
X924Y395D01*
X924Y399D01*
X926Y399D01*
X926Y401D01*
X928Y401D01*
X928Y405D01*
X930Y405D01*
X930Y407D01*
X932Y407D01*
X932Y409D01*
X934Y409D01*
X934Y411D01*
X936Y411D01*
X936Y433D01*
X934Y433D01*
X934Y435D01*
X932Y435D01*
X932Y437D01*
X930Y437D01*
X930Y441D01*
X928Y441D01*
X928Y443D01*
X926Y443D01*
X926Y447D01*
X924Y447D01*
X924Y451D01*
X922Y451D01*
X922Y455D01*
X920Y455D01*
X920Y463D01*
X918Y463D01*
X918Y471D01*
X898Y471D01*
G37*
D02*
G36*
X984Y321D02*
X984Y319D01*
X1004Y319D01*
X1004Y321D01*
X984Y321D01*
G37*
D02*
G36*
X824Y319D02*
X824Y317D01*
X1004Y317D01*
X1004Y319D01*
X824Y319D01*
G37*
D02*
G36*
X824Y319D02*
X824Y317D01*
X1004Y317D01*
X1004Y319D01*
X824Y319D01*
G37*
D02*
G36*
X824Y317D02*
X824Y221D01*
X804Y221D01*
X804Y201D01*
X806Y201D01*
X806Y199D01*
X808Y199D01*
X808Y195D01*
X810Y195D01*
X810Y191D01*
X812Y191D01*
X812Y183D01*
X814Y183D01*
X814Y163D01*
X812Y163D01*
X812Y155D01*
X810Y155D01*
X810Y151D01*
X808Y151D01*
X808Y147D01*
X806Y147D01*
X806Y143D01*
X804Y143D01*
X804Y141D01*
X802Y141D01*
X802Y139D01*
X800Y139D01*
X800Y125D01*
X978Y125D01*
X978Y123D01*
X1004Y123D01*
X1004Y317D01*
X824Y317D01*
G37*
D02*
G36*
X914Y125D02*
X914Y107D01*
X934Y107D01*
X934Y109D01*
X936Y109D01*
X936Y111D01*
X938Y111D01*
X938Y113D01*
X942Y113D01*
X942Y115D01*
X944Y115D01*
X944Y117D01*
X948Y117D01*
X948Y119D01*
X952Y119D01*
X952Y121D01*
X956Y121D01*
X956Y123D01*
X966Y123D01*
X966Y125D01*
X914Y125D01*
G37*
D02*
G36*
X124Y361D02*
X124Y355D01*
X122Y355D01*
X122Y349D01*
X120Y349D01*
X120Y347D01*
X118Y347D01*
X118Y343D01*
X116Y343D01*
X116Y341D01*
X114Y341D01*
X114Y337D01*
X112Y337D01*
X112Y335D01*
X110Y335D01*
X110Y333D01*
X108Y333D01*
X108Y331D01*
X106Y331D01*
X106Y329D01*
X102Y329D01*
X102Y327D01*
X100Y327D01*
X100Y291D01*
X98Y291D01*
X98Y99D01*
X220Y99D01*
X220Y125D01*
X238Y125D01*
X238Y145D01*
X228Y145D01*
X228Y147D01*
X164Y147D01*
X164Y149D01*
X160Y149D01*
X160Y151D01*
X156Y151D01*
X156Y153D01*
X154Y153D01*
X154Y155D01*
X152Y155D01*
X152Y157D01*
X150Y157D01*
X150Y161D01*
X148Y161D01*
X148Y165D01*
X146Y165D01*
X146Y361D01*
X124Y361D01*
G37*
D02*
G36*
X700Y331D02*
X700Y329D01*
X698Y329D01*
X698Y327D01*
X694Y327D01*
X694Y325D01*
X692Y325D01*
X692Y323D01*
X688Y323D01*
X688Y321D01*
X686Y321D01*
X686Y319D01*
X682Y319D01*
X682Y317D01*
X680Y317D01*
X680Y315D01*
X676Y315D01*
X676Y313D01*
X672Y313D01*
X672Y311D01*
X670Y311D01*
X670Y309D01*
X666Y309D01*
X666Y307D01*
X664Y307D01*
X664Y305D01*
X660Y305D01*
X660Y303D01*
X658Y303D01*
X658Y301D01*
X654Y301D01*
X654Y299D01*
X652Y299D01*
X652Y297D01*
X648Y297D01*
X648Y295D01*
X646Y295D01*
X646Y293D01*
X642Y293D01*
X642Y291D01*
X638Y291D01*
X638Y289D01*
X636Y289D01*
X636Y287D01*
X632Y287D01*
X632Y285D01*
X630Y285D01*
X630Y283D01*
X626Y283D01*
X626Y281D01*
X624Y281D01*
X624Y279D01*
X620Y279D01*
X620Y277D01*
X618Y277D01*
X618Y275D01*
X614Y275D01*
X614Y263D01*
X612Y263D01*
X612Y255D01*
X610Y255D01*
X610Y251D01*
X608Y251D01*
X608Y247D01*
X606Y247D01*
X606Y243D01*
X604Y243D01*
X604Y241D01*
X602Y241D01*
X602Y239D01*
X600Y239D01*
X600Y215D01*
X604Y215D01*
X604Y213D01*
X606Y213D01*
X606Y211D01*
X608Y211D01*
X608Y209D01*
X610Y209D01*
X610Y207D01*
X612Y207D01*
X612Y205D01*
X614Y205D01*
X614Y201D01*
X616Y201D01*
X616Y199D01*
X618Y199D01*
X618Y195D01*
X620Y195D01*
X620Y191D01*
X622Y191D01*
X622Y183D01*
X624Y183D01*
X624Y163D01*
X622Y163D01*
X622Y155D01*
X620Y155D01*
X620Y151D01*
X618Y151D01*
X618Y147D01*
X616Y147D01*
X616Y143D01*
X614Y143D01*
X614Y41D01*
X722Y41D01*
X722Y65D01*
X720Y65D01*
X720Y81D01*
X722Y81D01*
X722Y89D01*
X724Y89D01*
X724Y95D01*
X726Y95D01*
X726Y97D01*
X728Y97D01*
X728Y101D01*
X730Y101D01*
X730Y103D01*
X732Y103D01*
X732Y107D01*
X734Y107D01*
X734Y109D01*
X736Y109D01*
X736Y129D01*
X732Y129D01*
X732Y131D01*
X730Y131D01*
X730Y133D01*
X728Y133D01*
X728Y135D01*
X726Y135D01*
X726Y137D01*
X724Y137D01*
X724Y139D01*
X722Y139D01*
X722Y141D01*
X720Y141D01*
X720Y143D01*
X718Y143D01*
X718Y147D01*
X716Y147D01*
X716Y151D01*
X714Y151D01*
X714Y155D01*
X712Y155D01*
X712Y165D01*
X710Y165D01*
X710Y181D01*
X712Y181D01*
X712Y189D01*
X714Y189D01*
X714Y195D01*
X716Y195D01*
X716Y197D01*
X718Y197D01*
X718Y201D01*
X720Y201D01*
X720Y331D01*
X700Y331D01*
G37*
D02*
G36*
X326Y145D02*
X326Y143D01*
X324Y143D01*
X324Y99D01*
X510Y99D01*
X510Y125D01*
X528Y125D01*
X528Y145D01*
X326Y145D01*
G37*
D02*
G54D16*
X736Y1299D02*
X809Y1299D01*
X736Y1298D02*
X809Y1298D01*
X736Y1297D02*
X809Y1297D01*
X736Y1296D02*
X809Y1296D01*
X736Y1295D02*
X809Y1295D01*
X736Y1294D02*
X809Y1294D01*
X736Y1293D02*
X809Y1293D01*
X736Y1292D02*
X809Y1292D01*
X736Y1291D02*
X809Y1291D01*
X736Y1290D02*
X809Y1290D01*
X736Y1289D02*
X809Y1289D01*
X736Y1288D02*
X809Y1288D01*
X736Y1287D02*
X809Y1287D01*
X736Y1286D02*
X809Y1286D01*
X736Y1285D02*
X809Y1285D01*
X736Y1284D02*
X809Y1284D01*
X736Y1283D02*
X809Y1283D01*
X736Y1282D02*
X766Y1282D01*
X779Y1282D02*
X809Y1282D01*
X736Y1281D02*
X764Y1281D01*
X782Y1281D02*
X809Y1281D01*
X736Y1280D02*
X762Y1280D01*
X783Y1280D02*
X809Y1280D01*
X736Y1279D02*
X760Y1279D01*
X785Y1279D02*
X809Y1279D01*
X736Y1278D02*
X759Y1278D01*
X786Y1278D02*
X809Y1278D01*
X736Y1277D02*
X758Y1277D01*
X787Y1277D02*
X809Y1277D01*
X736Y1276D02*
X757Y1276D01*
X788Y1276D02*
X809Y1276D01*
X736Y1275D02*
X756Y1275D01*
X789Y1275D02*
X809Y1275D01*
X736Y1274D02*
X755Y1274D01*
X790Y1274D02*
X809Y1274D01*
X736Y1273D02*
X755Y1273D01*
X790Y1273D02*
X809Y1273D01*
X736Y1272D02*
X754Y1272D01*
X791Y1272D02*
X809Y1272D01*
X736Y1271D02*
X754Y1271D01*
X791Y1271D02*
X809Y1271D01*
X736Y1270D02*
X753Y1270D01*
X792Y1270D02*
X809Y1270D01*
X736Y1269D02*
X753Y1269D01*
X792Y1269D02*
X809Y1269D01*
X736Y1268D02*
X753Y1268D01*
X792Y1268D02*
X809Y1268D01*
X736Y1267D02*
X752Y1267D01*
X793Y1267D02*
X809Y1267D01*
X736Y1266D02*
X752Y1266D01*
X793Y1266D02*
X809Y1266D01*
X736Y1265D02*
X752Y1265D01*
X793Y1265D02*
X809Y1265D01*
X736Y1264D02*
X752Y1264D01*
X793Y1264D02*
X809Y1264D01*
X736Y1263D02*
X752Y1263D01*
X793Y1263D02*
X809Y1263D01*
X736Y1262D02*
X752Y1262D01*
X793Y1262D02*
X809Y1262D01*
X736Y1261D02*
X752Y1261D01*
X793Y1261D02*
X809Y1261D01*
X736Y1260D02*
X752Y1260D01*
X793Y1260D02*
X809Y1260D01*
X736Y1259D02*
X752Y1259D01*
X793Y1259D02*
X809Y1259D01*
X736Y1258D02*
X753Y1258D01*
X792Y1258D02*
X809Y1258D01*
X736Y1257D02*
X753Y1257D01*
X792Y1257D02*
X809Y1257D01*
X736Y1256D02*
X753Y1256D01*
X792Y1256D02*
X809Y1256D01*
X736Y1255D02*
X754Y1255D01*
X791Y1255D02*
X809Y1255D01*
X736Y1254D02*
X754Y1254D01*
X791Y1254D02*
X809Y1254D01*
X736Y1253D02*
X755Y1253D01*
X790Y1253D02*
X809Y1253D01*
X736Y1252D02*
X755Y1252D01*
X790Y1252D02*
X809Y1252D01*
X736Y1251D02*
X756Y1251D01*
X789Y1251D02*
X809Y1251D01*
X736Y1250D02*
X757Y1250D01*
X788Y1250D02*
X809Y1250D01*
X736Y1249D02*
X758Y1249D01*
X787Y1249D02*
X809Y1249D01*
X736Y1248D02*
X759Y1248D01*
X786Y1248D02*
X809Y1248D01*
X736Y1247D02*
X760Y1247D01*
X785Y1247D02*
X809Y1247D01*
X736Y1246D02*
X762Y1246D01*
X783Y1246D02*
X809Y1246D01*
X736Y1245D02*
X763Y1245D01*
X782Y1245D02*
X809Y1245D01*
X736Y1244D02*
X766Y1244D01*
X779Y1244D02*
X809Y1244D01*
X736Y1243D02*
X809Y1243D01*
X736Y1242D02*
X809Y1242D01*
X736Y1241D02*
X809Y1241D01*
X736Y1240D02*
X809Y1240D01*
X736Y1239D02*
X809Y1239D01*
X736Y1238D02*
X809Y1238D01*
X736Y1237D02*
X809Y1237D01*
X736Y1236D02*
X809Y1236D01*
X736Y1235D02*
X809Y1235D01*
X736Y1234D02*
X809Y1234D01*
X736Y1233D02*
X809Y1233D01*
X736Y1232D02*
X809Y1232D01*
X736Y1231D02*
X809Y1231D01*
X736Y1230D02*
X809Y1230D01*
X736Y1229D02*
X809Y1229D01*
X736Y1228D02*
X809Y1228D01*
X736Y1227D02*
X809Y1227D01*
X736Y1226D02*
X809Y1226D01*
X736Y1000D02*
X809Y1000D01*
X736Y999D02*
X809Y999D01*
X736Y998D02*
X809Y998D01*
X736Y997D02*
X809Y997D01*
X736Y996D02*
X809Y996D01*
X736Y995D02*
X809Y995D01*
X736Y994D02*
X809Y994D01*
X736Y993D02*
X809Y993D01*
X736Y992D02*
X809Y992D01*
X736Y991D02*
X809Y991D01*
X736Y990D02*
X809Y990D01*
X736Y989D02*
X809Y989D01*
X736Y988D02*
X809Y988D01*
X736Y987D02*
X809Y987D01*
X736Y986D02*
X809Y986D01*
X736Y985D02*
X809Y985D01*
X736Y984D02*
X809Y984D01*
X736Y983D02*
X809Y983D01*
X736Y982D02*
X766Y982D01*
X779Y982D02*
X809Y982D01*
X736Y981D02*
X763Y981D01*
X782Y981D02*
X809Y981D01*
X736Y980D02*
X762Y980D01*
X783Y980D02*
X809Y980D01*
X736Y979D02*
X760Y979D01*
X785Y979D02*
X809Y979D01*
X736Y978D02*
X759Y978D01*
X786Y978D02*
X809Y978D01*
X736Y977D02*
X758Y977D01*
X787Y977D02*
X809Y977D01*
X736Y976D02*
X757Y976D01*
X788Y976D02*
X809Y976D01*
X736Y975D02*
X756Y975D01*
X789Y975D02*
X809Y975D01*
X736Y974D02*
X755Y974D01*
X790Y974D02*
X809Y974D01*
X736Y973D02*
X755Y973D01*
X790Y973D02*
X809Y973D01*
X736Y972D02*
X754Y972D01*
X791Y972D02*
X809Y972D01*
X736Y971D02*
X754Y971D01*
X791Y971D02*
X809Y971D01*
X736Y970D02*
X753Y970D01*
X792Y970D02*
X809Y970D01*
X736Y969D02*
X753Y969D01*
X792Y969D02*
X809Y969D01*
X736Y968D02*
X753Y968D01*
X792Y968D02*
X809Y968D01*
X736Y967D02*
X752Y967D01*
X793Y967D02*
X809Y967D01*
X736Y966D02*
X752Y966D01*
X793Y966D02*
X809Y966D01*
X736Y965D02*
X752Y965D01*
X793Y965D02*
X809Y965D01*
X736Y964D02*
X752Y964D01*
X793Y964D02*
X809Y964D01*
X736Y963D02*
X752Y963D01*
X793Y963D02*
X809Y963D01*
X736Y962D02*
X752Y962D01*
X793Y962D02*
X809Y962D01*
X736Y961D02*
X752Y961D01*
X793Y961D02*
X809Y961D01*
X736Y960D02*
X752Y960D01*
X793Y960D02*
X809Y960D01*
X736Y959D02*
X752Y959D01*
X793Y959D02*
X809Y959D01*
X736Y958D02*
X753Y958D01*
X792Y958D02*
X809Y958D01*
X736Y957D02*
X753Y957D01*
X792Y957D02*
X809Y957D01*
X736Y956D02*
X753Y956D01*
X792Y956D02*
X809Y956D01*
X736Y955D02*
X754Y955D01*
X791Y955D02*
X809Y955D01*
X736Y954D02*
X754Y954D01*
X791Y954D02*
X809Y954D01*
X736Y953D02*
X755Y953D01*
X790Y953D02*
X809Y953D01*
X736Y952D02*
X755Y952D01*
X790Y952D02*
X809Y952D01*
X736Y951D02*
X756Y951D01*
X789Y951D02*
X809Y951D01*
X736Y950D02*
X757Y950D01*
X788Y950D02*
X809Y950D01*
X736Y949D02*
X758Y949D01*
X787Y949D02*
X809Y949D01*
X736Y948D02*
X759Y948D01*
X786Y948D02*
X809Y948D01*
X736Y947D02*
X760Y947D01*
X785Y947D02*
X809Y947D01*
X736Y946D02*
X762Y946D01*
X783Y946D02*
X809Y946D01*
X736Y945D02*
X764Y945D01*
X782Y945D02*
X809Y945D01*
X736Y944D02*
X766Y944D01*
X779Y944D02*
X809Y944D01*
X736Y943D02*
X809Y943D01*
X736Y942D02*
X809Y942D01*
X736Y941D02*
X809Y941D01*
X736Y940D02*
X809Y940D01*
X736Y939D02*
X809Y939D01*
X736Y938D02*
X809Y938D01*
X736Y937D02*
X809Y937D01*
X736Y936D02*
X809Y936D01*
X736Y935D02*
X809Y935D01*
X736Y934D02*
X809Y934D01*
X736Y933D02*
X809Y933D01*
X736Y932D02*
X809Y932D01*
X736Y931D02*
X809Y931D01*
X736Y930D02*
X809Y930D01*
X736Y929D02*
X809Y929D01*
X736Y928D02*
X809Y928D01*
X736Y927D02*
X809Y927D01*
X736Y310D02*
X809Y310D01*
X736Y309D02*
X809Y309D01*
X736Y308D02*
X809Y308D01*
X736Y307D02*
X809Y307D01*
X736Y306D02*
X809Y306D01*
X736Y305D02*
X809Y305D01*
X736Y304D02*
X809Y304D01*
X736Y303D02*
X809Y303D01*
X736Y302D02*
X809Y302D01*
X736Y301D02*
X809Y301D01*
X736Y300D02*
X809Y300D01*
X736Y299D02*
X809Y299D01*
X736Y298D02*
X809Y298D01*
X736Y297D02*
X809Y297D01*
X736Y296D02*
X809Y296D01*
X736Y295D02*
X809Y295D01*
X736Y294D02*
X809Y294D01*
X736Y293D02*
X771Y293D01*
X774Y293D02*
X809Y293D01*
X736Y292D02*
X766Y292D01*
X779Y292D02*
X809Y292D01*
X736Y291D02*
X763Y291D01*
X782Y291D02*
X809Y291D01*
X736Y290D02*
X761Y290D01*
X784Y290D02*
X809Y290D01*
X736Y289D02*
X760Y289D01*
X785Y289D02*
X809Y289D01*
X736Y288D02*
X759Y288D01*
X786Y288D02*
X809Y288D01*
X736Y287D02*
X758Y287D01*
X787Y287D02*
X809Y287D01*
X736Y286D02*
X757Y286D01*
X788Y286D02*
X809Y286D01*
X736Y285D02*
X756Y285D01*
X789Y285D02*
X809Y285D01*
X736Y284D02*
X755Y284D01*
X790Y284D02*
X809Y284D01*
X736Y283D02*
X755Y283D01*
X790Y283D02*
X809Y283D01*
X736Y282D02*
X754Y282D01*
X791Y282D02*
X809Y282D01*
X736Y281D02*
X754Y281D01*
X791Y281D02*
X809Y281D01*
X736Y280D02*
X753Y280D01*
X792Y280D02*
X809Y280D01*
X736Y279D02*
X753Y279D01*
X792Y279D02*
X809Y279D01*
X736Y278D02*
X753Y278D01*
X792Y278D02*
X809Y278D01*
X736Y277D02*
X752Y277D01*
X793Y277D02*
X809Y277D01*
X736Y276D02*
X752Y276D01*
X793Y276D02*
X809Y276D01*
X736Y275D02*
X752Y275D01*
X793Y275D02*
X809Y275D01*
X736Y274D02*
X752Y274D01*
X793Y274D02*
X809Y274D01*
X736Y273D02*
X752Y273D01*
X793Y273D02*
X809Y273D01*
X736Y272D02*
X752Y272D01*
X793Y272D02*
X809Y272D01*
X736Y271D02*
X752Y271D01*
X793Y271D02*
X809Y271D01*
X736Y270D02*
X752Y270D01*
X793Y270D02*
X809Y270D01*
X736Y269D02*
X752Y269D01*
X793Y269D02*
X809Y269D01*
X736Y268D02*
X753Y268D01*
X792Y268D02*
X809Y268D01*
X736Y267D02*
X753Y267D01*
X792Y267D02*
X809Y267D01*
X736Y266D02*
X753Y266D01*
X792Y266D02*
X809Y266D01*
X736Y265D02*
X754Y265D01*
X791Y265D02*
X809Y265D01*
X736Y264D02*
X754Y264D01*
X791Y264D02*
X809Y264D01*
X736Y263D02*
X755Y263D01*
X790Y263D02*
X809Y263D01*
X736Y262D02*
X755Y262D01*
X790Y262D02*
X809Y262D01*
X736Y261D02*
X756Y261D01*
X789Y261D02*
X809Y261D01*
X736Y260D02*
X757Y260D01*
X788Y260D02*
X809Y260D01*
X736Y259D02*
X758Y259D01*
X787Y259D02*
X809Y259D01*
X736Y258D02*
X759Y258D01*
X786Y258D02*
X809Y258D01*
X736Y257D02*
X760Y257D01*
X785Y257D02*
X809Y257D01*
X736Y256D02*
X762Y256D01*
X783Y256D02*
X809Y256D01*
X736Y255D02*
X764Y255D01*
X781Y255D02*
X809Y255D01*
X736Y254D02*
X766Y254D01*
X779Y254D02*
X809Y254D01*
X736Y253D02*
X809Y253D01*
X736Y252D02*
X809Y252D01*
X736Y251D02*
X809Y251D01*
X736Y250D02*
X809Y250D01*
X736Y249D02*
X809Y249D01*
X736Y248D02*
X809Y248D01*
X736Y247D02*
X809Y247D01*
X736Y246D02*
X809Y246D01*
X736Y245D02*
X809Y245D01*
X736Y244D02*
X809Y244D01*
X736Y243D02*
X809Y243D01*
X736Y242D02*
X809Y242D01*
X736Y241D02*
X809Y241D01*
X736Y240D02*
X809Y240D01*
X736Y239D02*
X809Y239D01*
X736Y238D02*
X809Y238D01*
X736Y237D02*
X809Y237D01*
X236Y110D02*
X309Y110D01*
X526Y110D02*
X599Y110D01*
X826Y110D02*
X899Y110D01*
X236Y109D02*
X309Y109D01*
X526Y109D02*
X599Y109D01*
X826Y109D02*
X899Y109D01*
X236Y108D02*
X309Y108D01*
X526Y108D02*
X599Y108D01*
X826Y108D02*
X899Y108D01*
X236Y107D02*
X309Y107D01*
X526Y107D02*
X599Y107D01*
X826Y107D02*
X899Y107D01*
X236Y106D02*
X309Y106D01*
X526Y106D02*
X599Y106D01*
X826Y106D02*
X899Y106D01*
X236Y105D02*
X309Y105D01*
X526Y105D02*
X599Y105D01*
X826Y105D02*
X899Y105D01*
X236Y104D02*
X309Y104D01*
X526Y104D02*
X599Y104D01*
X826Y104D02*
X899Y104D01*
X236Y103D02*
X309Y103D01*
X526Y103D02*
X599Y103D01*
X826Y103D02*
X899Y103D01*
X236Y102D02*
X309Y102D01*
X526Y102D02*
X599Y102D01*
X826Y102D02*
X899Y102D01*
X236Y101D02*
X309Y101D01*
X526Y101D02*
X599Y101D01*
X826Y101D02*
X899Y101D01*
X236Y100D02*
X309Y100D01*
X526Y100D02*
X599Y100D01*
X826Y100D02*
X899Y100D01*
X236Y99D02*
X309Y99D01*
X526Y99D02*
X599Y99D01*
X826Y99D02*
X899Y99D01*
X236Y98D02*
X309Y98D01*
X526Y98D02*
X599Y98D01*
X826Y98D02*
X899Y98D01*
X236Y97D02*
X309Y97D01*
X526Y97D02*
X599Y97D01*
X826Y97D02*
X899Y97D01*
X236Y96D02*
X309Y96D01*
X526Y96D02*
X599Y96D01*
X826Y96D02*
X899Y96D01*
X236Y95D02*
X309Y95D01*
X526Y95D02*
X599Y95D01*
X826Y95D02*
X899Y95D01*
X236Y94D02*
X309Y94D01*
X526Y94D02*
X599Y94D01*
X826Y94D02*
X899Y94D01*
X236Y93D02*
X271Y93D01*
X274Y93D02*
X309Y93D01*
X526Y93D02*
X561Y93D01*
X564Y93D02*
X599Y93D01*
X826Y93D02*
X861Y93D01*
X864Y93D02*
X899Y93D01*
X236Y92D02*
X266Y92D01*
X279Y92D02*
X309Y92D01*
X526Y92D02*
X556Y92D01*
X569Y92D02*
X599Y92D01*
X826Y92D02*
X856Y92D01*
X869Y92D02*
X899Y92D01*
X236Y91D02*
X263Y91D01*
X282Y91D02*
X309Y91D01*
X526Y91D02*
X553Y91D01*
X572Y91D02*
X599Y91D01*
X826Y91D02*
X853Y91D01*
X872Y91D02*
X899Y91D01*
X236Y90D02*
X261Y90D01*
X284Y90D02*
X309Y90D01*
X526Y90D02*
X551Y90D01*
X574Y90D02*
X599Y90D01*
X826Y90D02*
X851Y90D01*
X874Y90D02*
X899Y90D01*
X236Y89D02*
X260Y89D01*
X285Y89D02*
X309Y89D01*
X526Y89D02*
X550Y89D01*
X575Y89D02*
X599Y89D01*
X826Y89D02*
X850Y89D01*
X875Y89D02*
X899Y89D01*
X236Y88D02*
X259Y88D01*
X286Y88D02*
X309Y88D01*
X526Y88D02*
X549Y88D01*
X576Y88D02*
X599Y88D01*
X826Y88D02*
X849Y88D01*
X876Y88D02*
X899Y88D01*
X236Y87D02*
X258Y87D01*
X287Y87D02*
X309Y87D01*
X526Y87D02*
X548Y87D01*
X577Y87D02*
X599Y87D01*
X826Y87D02*
X848Y87D01*
X877Y87D02*
X899Y87D01*
X236Y86D02*
X257Y86D01*
X288Y86D02*
X309Y86D01*
X526Y86D02*
X547Y86D01*
X578Y86D02*
X599Y86D01*
X826Y86D02*
X847Y86D01*
X878Y86D02*
X899Y86D01*
X236Y85D02*
X256Y85D01*
X289Y85D02*
X309Y85D01*
X526Y85D02*
X546Y85D01*
X579Y85D02*
X599Y85D01*
X826Y85D02*
X846Y85D01*
X879Y85D02*
X899Y85D01*
X236Y84D02*
X255Y84D01*
X290Y84D02*
X309Y84D01*
X526Y84D02*
X545Y84D01*
X580Y84D02*
X599Y84D01*
X826Y84D02*
X845Y84D01*
X880Y84D02*
X899Y84D01*
X236Y83D02*
X255Y83D01*
X290Y83D02*
X309Y83D01*
X526Y83D02*
X545Y83D01*
X580Y83D02*
X599Y83D01*
X826Y83D02*
X845Y83D01*
X880Y83D02*
X899Y83D01*
X236Y82D02*
X254Y82D01*
X291Y82D02*
X309Y82D01*
X526Y82D02*
X544Y82D01*
X581Y82D02*
X599Y82D01*
X826Y82D02*
X844Y82D01*
X881Y82D02*
X899Y82D01*
X236Y81D02*
X254Y81D01*
X291Y81D02*
X309Y81D01*
X526Y81D02*
X544Y81D01*
X581Y81D02*
X599Y81D01*
X826Y81D02*
X844Y81D01*
X881Y81D02*
X899Y81D01*
X236Y80D02*
X253Y80D01*
X292Y80D02*
X309Y80D01*
X526Y80D02*
X543Y80D01*
X582Y80D02*
X599Y80D01*
X826Y80D02*
X843Y80D01*
X882Y80D02*
X899Y80D01*
X236Y79D02*
X253Y79D01*
X292Y79D02*
X309Y79D01*
X526Y79D02*
X543Y79D01*
X582Y79D02*
X599Y79D01*
X826Y79D02*
X843Y79D01*
X882Y79D02*
X899Y79D01*
X236Y78D02*
X253Y78D01*
X292Y78D02*
X309Y78D01*
X526Y78D02*
X543Y78D01*
X582Y78D02*
X599Y78D01*
X826Y78D02*
X843Y78D01*
X882Y78D02*
X899Y78D01*
X236Y77D02*
X253Y77D01*
X293Y77D02*
X309Y77D01*
X526Y77D02*
X542Y77D01*
X583Y77D02*
X599Y77D01*
X826Y77D02*
X842Y77D01*
X883Y77D02*
X899Y77D01*
X236Y76D02*
X252Y76D01*
X293Y76D02*
X309Y76D01*
X526Y76D02*
X542Y76D01*
X583Y76D02*
X599Y76D01*
X826Y76D02*
X842Y76D01*
X883Y76D02*
X899Y76D01*
X236Y75D02*
X252Y75D01*
X293Y75D02*
X309Y75D01*
X526Y75D02*
X542Y75D01*
X583Y75D02*
X599Y75D01*
X826Y75D02*
X842Y75D01*
X883Y75D02*
X899Y75D01*
X236Y74D02*
X252Y74D01*
X293Y74D02*
X309Y74D01*
X526Y74D02*
X542Y74D01*
X583Y74D02*
X599Y74D01*
X826Y74D02*
X842Y74D01*
X883Y74D02*
X899Y74D01*
X236Y73D02*
X252Y73D01*
X293Y73D02*
X309Y73D01*
X526Y73D02*
X542Y73D01*
X583Y73D02*
X599Y73D01*
X826Y73D02*
X842Y73D01*
X883Y73D02*
X899Y73D01*
X236Y72D02*
X252Y72D01*
X293Y72D02*
X309Y72D01*
X526Y72D02*
X542Y72D01*
X583Y72D02*
X599Y72D01*
X826Y72D02*
X842Y72D01*
X883Y72D02*
X899Y72D01*
X236Y71D02*
X252Y71D01*
X293Y71D02*
X309Y71D01*
X526Y71D02*
X542Y71D01*
X583Y71D02*
X599Y71D01*
X826Y71D02*
X842Y71D01*
X883Y71D02*
X899Y71D01*
X236Y70D02*
X252Y70D01*
X293Y70D02*
X309Y70D01*
X526Y70D02*
X542Y70D01*
X583Y70D02*
X599Y70D01*
X826Y70D02*
X842Y70D01*
X883Y70D02*
X899Y70D01*
X236Y69D02*
X253Y69D01*
X293Y69D02*
X309Y69D01*
X526Y69D02*
X543Y69D01*
X583Y69D02*
X599Y69D01*
X826Y69D02*
X842Y69D01*
X883Y69D02*
X899Y69D01*
X236Y68D02*
X253Y68D01*
X292Y68D02*
X309Y68D01*
X526Y68D02*
X543Y68D01*
X582Y68D02*
X599Y68D01*
X826Y68D02*
X843Y68D01*
X882Y68D02*
X899Y68D01*
X236Y67D02*
X253Y67D01*
X292Y67D02*
X309Y67D01*
X526Y67D02*
X543Y67D01*
X582Y67D02*
X599Y67D01*
X826Y67D02*
X843Y67D01*
X882Y67D02*
X899Y67D01*
X236Y66D02*
X253Y66D01*
X292Y66D02*
X309Y66D01*
X526Y66D02*
X543Y66D01*
X582Y66D02*
X599Y66D01*
X826Y66D02*
X843Y66D01*
X882Y66D02*
X899Y66D01*
X236Y65D02*
X254Y65D01*
X291Y65D02*
X309Y65D01*
X526Y65D02*
X544Y65D01*
X581Y65D02*
X599Y65D01*
X826Y65D02*
X844Y65D01*
X881Y65D02*
X899Y65D01*
X236Y64D02*
X254Y64D01*
X291Y64D02*
X309Y64D01*
X526Y64D02*
X544Y64D01*
X581Y64D02*
X599Y64D01*
X826Y64D02*
X844Y64D01*
X881Y64D02*
X899Y64D01*
X236Y63D02*
X255Y63D01*
X290Y63D02*
X309Y63D01*
X526Y63D02*
X545Y63D01*
X580Y63D02*
X599Y63D01*
X826Y63D02*
X845Y63D01*
X880Y63D02*
X899Y63D01*
X236Y62D02*
X256Y62D01*
X290Y62D02*
X309Y62D01*
X526Y62D02*
X545Y62D01*
X580Y62D02*
X599Y62D01*
X826Y62D02*
X845Y62D01*
X880Y62D02*
X899Y62D01*
X236Y61D02*
X256Y61D01*
X289Y61D02*
X309Y61D01*
X526Y61D02*
X546Y61D01*
X579Y61D02*
X599Y61D01*
X826Y61D02*
X846Y61D01*
X879Y61D02*
X899Y61D01*
X236Y60D02*
X257Y60D01*
X288Y60D02*
X309Y60D01*
X526Y60D02*
X547Y60D01*
X578Y60D02*
X599Y60D01*
X826Y60D02*
X847Y60D01*
X878Y60D02*
X899Y60D01*
X236Y59D02*
X258Y59D01*
X287Y59D02*
X309Y59D01*
X526Y59D02*
X548Y59D01*
X577Y59D02*
X599Y59D01*
X826Y59D02*
X848Y59D01*
X877Y59D02*
X899Y59D01*
X236Y58D02*
X259Y58D01*
X286Y58D02*
X309Y58D01*
X526Y58D02*
X549Y58D01*
X576Y58D02*
X599Y58D01*
X826Y58D02*
X849Y58D01*
X876Y58D02*
X899Y58D01*
X236Y57D02*
X260Y57D01*
X285Y57D02*
X309Y57D01*
X526Y57D02*
X550Y57D01*
X575Y57D02*
X599Y57D01*
X826Y57D02*
X850Y57D01*
X875Y57D02*
X899Y57D01*
X236Y56D02*
X262Y56D01*
X283Y56D02*
X309Y56D01*
X526Y56D02*
X552Y56D01*
X573Y56D02*
X599Y56D01*
X826Y56D02*
X852Y56D01*
X873Y56D02*
X899Y56D01*
X236Y55D02*
X264Y55D01*
X281Y55D02*
X309Y55D01*
X526Y55D02*
X554Y55D01*
X571Y55D02*
X599Y55D01*
X826Y55D02*
X854Y55D01*
X871Y55D02*
X899Y55D01*
X236Y54D02*
X267Y54D01*
X279Y54D02*
X309Y54D01*
X526Y54D02*
X557Y54D01*
X569Y54D02*
X599Y54D01*
X826Y54D02*
X856Y54D01*
X869Y54D02*
X899Y54D01*
X236Y53D02*
X309Y53D01*
X526Y53D02*
X599Y53D01*
X826Y53D02*
X899Y53D01*
X236Y52D02*
X309Y52D01*
X526Y52D02*
X599Y52D01*
X826Y52D02*
X899Y52D01*
X236Y51D02*
X309Y51D01*
X526Y51D02*
X599Y51D01*
X826Y51D02*
X899Y51D01*
X236Y50D02*
X309Y50D01*
X526Y50D02*
X599Y50D01*
X826Y50D02*
X899Y50D01*
X236Y49D02*
X309Y49D01*
X526Y49D02*
X599Y49D01*
X826Y49D02*
X899Y49D01*
X236Y48D02*
X309Y48D01*
X526Y48D02*
X599Y48D01*
X826Y48D02*
X899Y48D01*
X236Y47D02*
X309Y47D01*
X526Y47D02*
X599Y47D01*
X826Y47D02*
X899Y47D01*
X236Y46D02*
X309Y46D01*
X526Y46D02*
X599Y46D01*
X826Y46D02*
X899Y46D01*
X236Y45D02*
X309Y45D01*
X526Y45D02*
X599Y45D01*
X826Y45D02*
X899Y45D01*
X236Y44D02*
X309Y44D01*
X526Y44D02*
X599Y44D01*
X826Y44D02*
X899Y44D01*
X236Y43D02*
X309Y43D01*
X526Y43D02*
X599Y43D01*
X826Y43D02*
X899Y43D01*
X236Y42D02*
X309Y42D01*
X526Y42D02*
X599Y42D01*
X826Y42D02*
X899Y42D01*
X236Y41D02*
X309Y41D01*
X526Y41D02*
X599Y41D01*
X826Y41D02*
X899Y41D01*
X236Y40D02*
X309Y40D01*
X526Y40D02*
X599Y40D01*
X826Y40D02*
X899Y40D01*
X236Y39D02*
X309Y39D01*
X526Y39D02*
X599Y39D01*
X826Y39D02*
X899Y39D01*
X236Y38D02*
X309Y38D01*
X526Y38D02*
X599Y38D01*
X826Y38D02*
X899Y38D01*
X236Y37D02*
X309Y37D01*
X526Y37D02*
X599Y37D01*
X826Y37D02*
X899Y37D01*
D02*
G04 End of Copper0*
M02*